<svg width="104" height="50" viewBox="0 0 104 50" fill="none" xmlns="http://www.w3.org/2000/svg">
<path d="M49.2365 30.9134H49.0422C48.9589 31.2604 48.8756 31.6074 48.7785 31.9545C48.8617 31.6074 48.9312 31.2604 48.9867 30.9134H48.8201C48.5564 32.5791 48.015 34.1755 47.2099 35.6607C47.1682 35.744 47.1405 35.8134 47.0988 35.8967C47.2793 35.5913 47.4459 35.2721 47.6124 34.9528C47.4181 35.3554 47.2099 35.744 46.9878 36.1327C47.0294 36.0494 47.0572 35.98 47.0988 35.8967C47.0294 36.0217 46.96 36.1327 46.8767 36.2438C46.9878 36.0494 47.0988 35.8551 47.2099 35.6607C47.8762 34.1893 48.2649 32.6069 48.3898 30.9134H48.2093C47.9872 34.0366 46.8073 36.8129 44.7529 39.0755C45.9883 37.5347 46.8212 35.7024 47.196 33.648C47.3626 32.7596 47.4181 31.8434 47.4181 30.9134H47.2515C47.2515 31.8295 47.196 32.7318 47.0294 33.6063C46.4603 36.7574 44.8223 39.3393 42.2821 41.1993C43.6424 40.0333 44.6835 38.5619 45.3498 36.8129C46.0439 35.0083 46.2937 33.0094 46.141 30.8995H45.9745C46.141 32.9817 45.8912 34.9667 45.1971 36.7574C44.0589 39.714 41.8518 41.8656 38.7701 43.0594C40.5886 42.1988 42.0738 40.9078 43.1011 39.2143C44.5031 36.9239 45.0305 34.0366 44.6835 30.8856H44.5308C44.8779 34.0089 44.3642 36.8545 42.9761 39.131C41.3798 41.7407 38.7007 43.4064 35.3276 43.9339C37.4375 43.4758 39.2421 42.4625 40.6024 40.9356C42.754 38.5064 43.6563 34.9528 43.1982 30.8995H43.0455C43.5036 34.925 42.6152 38.437 40.4775 40.8384C38.4786 43.0872 35.5219 44.1977 32.0239 44.0727C34.2726 44.0172 36.2854 43.337 37.9234 42.06C40.8523 39.7557 42.2127 35.7996 41.7962 30.8995H41.6574C42.0739 35.744 40.7274 39.6585 37.8401 41.9489C35.4942 43.809 32.3431 44.3781 28.8312 43.6285C29.4281 43.7118 30.0111 43.7674 30.5802 43.7674C32.2321 43.7674 33.7729 43.3926 35.1471 42.6569C38.201 41.0189 40.0888 37.7152 40.4775 33.3565C40.5469 32.5514 40.5608 31.7324 40.533 30.9134H40.3942C40.422 31.7324 40.4081 32.5514 40.3387 33.3426C39.9639 37.6458 38.09 40.9217 35.0777 42.5319C32.2737 44.0311 28.8034 43.9894 25.1666 42.4209C26.5825 42.9345 27.9845 43.2121 29.3309 43.2121C30.3443 43.2121 31.3298 43.0594 32.2599 42.754C35.3415 41.7546 37.6319 39.1727 38.7146 35.4942C39.1449 34.0505 39.3531 32.5097 39.3948 30.9134H39.2699C39.2282 32.4958 39.02 34.0228 38.5897 35.4525C37.5208 39.0894 35.2582 41.6435 32.2182 42.6291C29.2476 43.6008 25.7496 42.9761 22.4042 40.9356C24.2504 41.935 26.1799 42.4625 28.04 42.4625C28.4564 42.4625 28.8867 42.4348 29.3032 42.3792C32.357 41.9767 34.9528 40.1027 36.6185 37.0905C37.618 35.2721 38.201 33.1483 38.4231 30.9134H38.2982C38.0761 33.1344 37.5069 35.2304 36.5075 37.035C34.8695 40.0056 32.3015 41.8656 29.2893 42.2682C26.1244 42.6846 22.6957 41.477 19.6696 38.9228C21.724 40.4775 24.0006 41.4076 26.3048 41.5325C26.4992 41.5325 26.6935 41.5464 26.8878 41.5464C29.6918 41.5464 32.2876 40.3526 34.2726 38.1316C36.0078 36.2021 37.1044 33.6757 37.6041 30.9134H37.4792C36.9795 33.648 35.8828 36.1466 34.1755 38.0483C32.0794 40.3803 29.2893 41.5741 26.3048 41.4076C23.0705 41.2132 19.8778 39.4642 17.3237 36.5491C19.045 38.3398 21.0994 39.603 23.3204 40.1721C24.1949 40.3942 25.0694 40.5053 25.93 40.5053C27.9983 40.5053 30.025 39.8667 31.7879 38.6452C34.3282 36.8823 36.0911 34.1061 36.9656 30.9273H36.8406C35.9661 34.0783 34.231 36.8129 31.7185 38.548C29.2338 40.2693 26.2632 40.8107 23.3343 40.0611C20.1694 39.2421 17.3098 37.0072 15.3248 33.8145C16.6713 35.7579 18.4203 37.3126 20.447 38.2704C21.9878 39.0061 23.6258 39.3809 25.2637 39.3809C26.6102 39.3809 27.9706 39.131 29.2615 38.6174C32.6346 37.2848 35.1333 34.4253 36.452 30.9273H36.3409C35.0361 34.3837 32.5652 37.2016 29.2338 38.5203C26.402 39.6308 23.3065 39.5197 20.5025 38.1732C17.7263 36.8406 15.4636 34.4114 14.1033 31.3715C15.0056 33.1344 16.2826 34.6752 17.879 35.869C19.975 37.4237 22.4459 38.2426 24.9584 38.2426C25.5691 38.2426 26.1799 38.201 26.7907 38.1038C30.955 37.4514 34.3282 34.6474 36.1049 30.9134H35.98C34.2171 34.5919 30.8856 37.3542 26.7768 37.9928C23.6535 38.4786 20.5164 37.7013 17.9345 35.7857C15.4775 33.9534 13.7701 31.3159 13.0622 28.276C14.4919 33.1899 18.9895 36.9239 24.4586 37.1877C24.6669 37.1877 24.8751 37.2016 25.0833 37.2016C28.2204 37.2016 31.191 36.0633 33.4953 33.9534C34.467 33.065 35.2721 32.0378 35.8967 30.9134H35.6746C35.5081 31.1494 35.3415 31.3853 35.161 31.6074C31.8157 35.6885 24.5697 36.0911 18.9617 32.482C15.8245 30.4692 13.7562 27.5541 13.2565 24.5003C12.9373 22.5291 13.2982 20.683 14.3115 19.1144C14.4781 18.8645 14.6446 18.6285 14.839 18.3926C16.6435 16.1855 19.6002 15.0472 22.8207 15.0472C25.5552 15.0472 28.4703 15.8662 31.0383 17.518C31.9128 18.0872 32.7041 18.7257 33.412 19.4059H33.5369C32.8151 18.6841 31.9961 18.0178 31.08 17.4348C26.5547 14.5197 20.9606 14.2143 17.171 16.3381C20.4886 14.256 25.1943 13.8951 29.4836 15.7551C31.4686 16.6158 33.176 17.879 34.467 19.4059H34.5919C33.2732 17.8512 31.538 16.5464 29.5114 15.6718C24.5142 13.5064 18.9617 14.3254 15.658 17.3792C17.8512 15.1444 21.03 13.8257 24.4448 13.8257C25.4858 13.8257 26.5547 13.9506 27.6235 14.2004C30.8023 14.9639 33.5647 16.8517 35.2998 19.4059H35.4248C33.6619 16.8101 30.8717 14.8806 27.6513 14.1033C22.2932 12.8123 16.9628 14.8806 14.3115 18.8645C14.9084 17.8651 15.658 16.935 16.5602 16.116C18.8506 14.0339 21.7935 12.8956 24.9028 12.8956C25.1111 12.8956 25.3193 12.8956 25.5136 12.9095C30.0389 13.1316 33.8701 15.7135 35.8551 19.392H35.9661C33.9811 15.6718 30.0944 13.0344 25.5136 12.8123C22.1544 12.6458 18.9478 13.7979 16.477 16.0466C15.0888 17.3098 14.0616 18.8368 13.3953 20.5164C14.9084 16.1299 18.573 12.729 23.1954 11.9933C23.8062 11.8962 24.417 11.8545 25.0139 11.8545C27.5125 11.8545 29.9556 12.6596 32.0378 14.2143C33.8423 15.5608 35.2304 17.3376 36.1327 19.4059H36.452C36.1605 18.7118 35.8273 18.0316 35.4664 17.3654C35.8551 18.0316 36.216 18.7118 36.5491 19.4059H36.688C35.9384 17.8373 35.0361 16.3381 34.0089 14.9361C35.1194 16.3243 36.1049 17.8373 36.9517 19.4059H37.1044C35.7163 16.824 33.9534 14.4087 31.9128 12.382C34.0922 14.4225 36.0355 16.824 37.6041 19.4059H37.7707C35.5775 15.7551 32.6485 12.4792 29.3448 10.0639C32.8845 12.4653 36.1049 15.7274 38.5342 19.4059H38.7146C35.5636 14.6169 31.1077 10.5358 26.3326 8.10661C31.4547 10.4664 36.327 14.5058 39.7696 19.4059H39.9639C35.7857 13.4231 29.4836 8.7035 23.1816 6.71849C29.9417 8.53692 36.799 13.1594 41.2965 19.4059H41.5047C36.1188 11.8684 27.3043 6.64908 19.3226 5.81621C26.8184 6.27429 35.1333 10.2027 40.8939 16.6574C41.6991 17.5458 42.407 18.462 43.0594 19.392H43.2676C42.5875 18.4203 41.8518 17.4764 41.0189 16.5464C34.231 8.95336 23.945 4.83065 15.5608 5.73293C16.7546 5.55247 17.99 5.4553 19.2393 5.4553C25.8606 5.4553 33.1483 7.9678 39.0061 12.7984C41.4214 14.7973 43.4203 17.0322 44.9195 19.4059H45.1277C43.6008 16.9906 41.588 14.7002 39.1172 12.6596C30.9967 5.95502 20.0861 3.69239 12.0211 6.39922C14.7696 5.33037 17.8373 4.77512 21.03 4.77512C26.1244 4.77512 31.538 6.17712 36.4242 9.06441C40.9356 11.7296 44.4614 15.3526 46.613 19.4059H46.8212C44.6557 15.2832 41.0883 11.6047 36.5214 8.91172C27.2349 3.42865 16.0605 3.28984 8.66185 7.89839C12.5902 5.1638 17.5597 3.66463 22.8207 3.66463C26.2215 3.66463 29.7474 4.28928 33.176 5.62188C39.95 8.24542 45.3082 13.201 47.8623 19.2393C47.8901 19.2948 47.9039 19.3504 47.9317 19.4059H48.1399C48.1122 19.3226 48.0844 19.2393 48.0428 19.156C45.4609 13.0761 40.075 8.06496 33.2454 5.42754C23.0844 1.49917 12.0905 3.66463 5.69128 10.1194C10.1888 5.13604 16.9212 2.12382 24.2227 2.12382C25.9162 2.12382 27.6235 2.29039 29.3587 2.62354C38.9367 4.48362 46.2521 11.2299 48.7785 19.4198H48.9867C46.4603 11.1327 39.0755 4.31705 29.4003 2.42921C18.6702 0.333148 8.30094 4.92782 3.2482 13.1038C7.46807 5.42754 15.6441 0.208218 25 0.208218C36.7435 0.208218 46.613 8.42587 49.1533 19.4059H49.3615C46.8212 8.31482 36.8684 0 25 0C11.216 0 0 11.216 0 25C0 38.784 11.216 50 25 50C36.7435 50 46.6269 41.8517 49.2921 30.9134H49.2365ZM46.4881 36.8684C46.3631 37.0627 46.2243 37.2571 46.0855 37.4514C46.0577 37.4792 46.03 37.5069 46.0161 37.5486C46.1827 37.3265 46.3354 37.1044 46.4881 36.8684ZM13.3953 27.2071C14.5336 30.2748 17.1016 32.8567 20.4747 34.3281C22.3765 35.161 24.3753 35.5497 26.2771 35.5497C29.2754 35.5497 32.0933 34.578 34.1199 32.8151C31.2604 35.5913 26.8184 36.8684 22.3487 35.7996C18.9617 34.9806 16.0328 32.8984 14.3254 30.0944C13.0067 27.9289 12.4931 25.4858 12.8262 23.0983C12.7013 24.4586 12.8817 25.8468 13.3815 27.2071H13.3953ZM35.2443 43.9617C35.2443 43.9617 35.2027 43.9617 35.1888 43.9617C35.2027 43.9617 35.2304 43.9617 35.2443 43.9478V43.9617ZM41.5464 41.7407C41.5464 41.7407 41.6297 41.6852 41.6713 41.6435C41.6297 41.6713 41.588 41.6991 41.5464 41.7268V41.7407ZM43.573 40.3248C43.1705 40.6996 42.754 41.0605 42.2959 41.3798C42.171 41.477 42.0461 41.5741 41.9212 41.6574C42.06 41.5741 42.171 41.4631 42.3098 41.3659C42.754 41.0189 43.1705 40.658 43.573 40.2832C43.8506 40.0194 44.1283 39.7418 44.4059 39.4642C44.156 39.7557 43.8784 40.0333 43.6008 40.2971L43.573 40.3248ZM43.5175 40.2554C43.5175 40.2554 43.3787 40.3665 43.3093 40.422C43.3787 40.3665 43.4481 40.3109 43.5175 40.2554C43.5453 40.2277 43.573 40.2138 43.5869 40.186C43.5591 40.2138 43.5314 40.2277 43.5175 40.2554ZM40.6719 42.407C40.6719 42.407 40.6024 42.4348 40.5747 42.4486C40.5747 42.4486 40.6024 42.4486 40.6163 42.4348C40.6024 42.4348 40.5886 42.4486 40.5747 42.4625C40.5747 42.4625 40.6441 42.4209 40.6719 42.407ZM41.4214 42.0322C34.9528 46.5991 25.5691 47.7651 16.7962 44.3781C10.0222 41.7546 4.66408 36.799 2.10994 30.7607C0.347029 26.5825 0.0555247 22.1405 1.23542 18.0594C1.23542 18.0039 1.26319 17.9484 1.27707 17.879C1.27707 17.879 1.24931 17.99 1.23542 18.0594C1.33259 17.7263 1.44364 17.3931 1.55469 17.06C1.56857 17.0044 1.59634 16.9489 1.6241 16.8934C1.59634 16.9489 1.58245 17.0044 1.55469 17.06C1.44364 17.3931 1.33259 17.7263 1.23542 18.0594C0.70794 20.3637 0.680178 22.8068 1.20766 25.2776C2.51249 31.5103 6.98223 37.271 13.4509 41.1022C18.3648 44.0033 23.8062 45.4053 28.9284 45.4053C33.5508 45.4053 37.9234 44.2532 41.4214 42.0322ZM5.26097 10.9245C4.03942 12.4653 3.20655 14.2976 2.83176 16.352C1.8462 21.7657 4.08107 27.9983 8.93948 33.4398C15.1166 40.3526 24.181 44.3781 32.0933 44.3781C32.8429 44.3781 33.5647 44.3365 34.2865 44.2671C26.8323 45.3637 17.879 42.9067 10.9522 37.1877C5.19156 32.4264 1.8462 26.3048 1.76291 20.3776C1.72127 16.7268 2.92893 13.4786 5.26097 10.9106V10.9245ZM24.764 7.53748C22.3209 6.66296 19.9056 6.53803 17.754 7.24597C14.6724 8.24542 12.382 10.8273 11.2993 14.5058C9.4392 20.8079 11.4659 28.9839 15.9356 35.0639C11.7018 29.7196 9.1477 22.7374 9.68906 16.6574C10.0639 12.3542 11.9378 9.07829 14.95 7.46807C16.3104 6.73237 17.8373 6.37146 19.4614 6.37146C21.0855 6.37146 22.9317 6.76013 24.7779 7.53748H24.764ZM27.568 9.03665C25.3054 7.82898 22.9456 7.31538 20.7107 7.62077C17.6569 8.02332 15.0611 9.89728 13.3953 12.9095C10.4248 18.3232 11.0494 26.2354 14.4919 32.6208C11.1605 26.9295 9.81399 20.0167 11.4242 14.5336C12.4931 10.8967 14.7557 8.34259 17.7957 7.35702C18.7118 7.05164 19.6835 6.91283 20.683 6.91283C22.8901 6.91283 25.2637 7.64853 27.5541 9.02276L27.568 9.03665ZM30.3581 11.0911C28.3037 9.52249 26.0272 8.60633 23.7229 8.46752C20.6968 8.28706 17.879 9.49472 15.7551 11.8545C11.9239 16.1299 11.1327 23.2787 13.2843 29.6502C11.0911 23.9311 11.0078 17.5458 13.5203 12.965C15.1582 9.99445 17.7124 8.13437 20.7385 7.73182C21.1549 7.67629 21.5575 7.64853 21.9878 7.64853C24.7918 7.64853 27.7346 8.85619 30.372 11.0772L30.3581 11.0911ZM14.8945 7.34314C11.8406 8.98112 9.9528 12.2848 9.56413 16.6435C8.93948 23.7507 12.4931 32.0655 18.0455 37.618C12.8679 32.7873 9.02277 25.8745 8.39811 19.2671C7.92615 14.3393 9.27263 10.3415 12.2016 8.0372C13.8812 6.70461 15.9772 6.03831 18.3232 6.03831C19.2115 6.03831 20.1555 6.14936 21.1133 6.3437C18.8506 6.02443 16.7407 6.3437 14.9084 7.34314H14.8945ZM12.1044 7.92615C9.13382 10.2721 7.77346 14.2976 8.24542 19.281C8.995 27.0128 14.0894 35.161 20.6135 39.9361C14.5891 35.8551 9.49473 29.2615 7.60689 22.3348C6.14936 16.9767 6.8573 12.1738 9.53637 9.1477C11.4381 7.00999 14.2004 5.8995 17.4625 5.8995C17.5736 5.8995 17.6985 5.8995 17.8096 5.8995C15.6302 5.98279 13.6868 6.66296 12.1044 7.91227V7.92615ZM14.4225 6.10772C12.4375 6.59356 10.744 7.593 9.4392 9.05053C6.71849 12.1183 5.99667 16.9628 7.46807 22.3765C9.67518 30.4969 16.2826 38.1594 23.6258 41.8795C16.9073 38.784 10.6191 32.8012 7.42643 25.7635C4.85841 20.0999 4.7196 14.6585 7.06552 10.8412C8.62021 8.31482 11.1882 6.67685 14.4225 6.10772ZM6.94059 10.7579C4.56691 14.6169 4.70572 20.1138 7.28762 25.8329C11.0355 34.0922 19.045 40.9217 27.0267 43.337C19.7946 41.4631 12.4098 36.3548 7.91227 29.4697C4.19212 23.7785 3.06774 17.8512 4.85841 13.2288C5.99667 10.2721 8.20378 8.12049 11.2854 6.92671C9.46696 7.78734 7.98168 9.07829 6.95447 10.7718L6.94059 10.7579ZM4.69184 13.1594C2.88729 17.8373 4.01166 23.8062 7.77346 29.553C13.09 37.6874 22.432 43.3509 30.8023 44.1699C23.2787 43.7535 14.8945 39.8251 9.09217 33.3148C4.26152 27.915 2.05441 21.7379 3.0261 16.3798C3.59523 13.2288 5.2332 10.633 7.78734 8.7729C6.42699 9.93892 5.3859 11.4103 4.70572 13.1594H4.69184ZM12.7152 27.1377C11.5075 21.5019 12.5347 15.6302 15.8384 11.9378C17.7957 9.74459 20.3776 8.56469 23.1399 8.56469C23.3343 8.56469 23.5286 8.56469 23.7091 8.57857C26.9434 8.7729 30.136 10.5219 32.6902 13.437C30.9689 11.6463 28.9145 10.3831 26.6935 9.81399C23.7368 9.05053 20.7385 9.59189 18.2121 11.3409C13.6591 14.4919 11.6185 20.9051 12.7013 27.1238L12.7152 27.1377ZM38.4925 43.3509C38.3259 43.4203 38.1455 43.4897 37.9789 43.5591C35.2304 44.6419 32.1488 45.1971 28.9423 45.1971C23.8479 45.1971 18.4342 43.7951 13.548 40.9078C7.12104 37.1044 2.67907 31.3853 1.38812 25.2082C0.569128 21.3076 1.06885 17.5736 2.81788 14.3115C2.81788 14.2837 2.84564 14.256 2.85952 14.2282C2.85952 14.2282 2.83176 14.2837 2.81788 14.3115C1.98501 16.1577 1.56857 18.1843 1.59634 20.3776C1.67962 26.3465 5.03887 32.5236 10.8412 37.3126C16.7268 42.171 24.0561 44.6974 30.719 44.6974C33.2732 44.6974 35.7302 44.3226 37.965 43.5591C38.1316 43.4897 38.3121 43.4203 38.4786 43.3509H38.4925ZM37.146 43.7535C37.146 43.7535 37.1044 43.7535 37.0766 43.7674C37.1044 43.7674 37.1183 43.7674 37.146 43.7535ZM12.5625 24.7918C12.2987 19.392 14.3531 14.1866 18.2954 11.452C20.7801 9.7307 23.7507 9.18934 26.6796 9.93892C29.8445 10.7579 32.7041 12.9928 34.6891 16.1855C33.3426 14.2421 31.5936 12.6874 29.5669 11.7296C26.7351 10.3831 23.6119 10.2582 20.7524 11.3826C15.6718 13.3953 12.5347 18.8784 12.5625 24.7918ZM0.333148 22.6541C0.263742 25.3887 0.805108 28.1649 1.92948 30.844C4.51138 36.9239 9.89728 41.935 16.7268 44.5725C20.1832 45.9051 23.7229 46.5436 27.1516 46.5436C33.884 46.5436 40.1721 44.1005 44.392 39.7557C39.9361 44.8223 33.1483 47.8901 25.7912 47.8901C24.0977 47.8901 22.3903 47.7235 20.6552 47.3903C14.1449 46.1271 8.49528 42.6013 4.7196 37.4792C1.44364 33.0372 -0.0694059 27.8456 0.333148 22.6541ZM41.7823 41.5602C41.4214 41.7962 41.0328 42.0183 40.6441 42.2265C40.5886 42.2543 40.5469 42.2821 40.5053 42.3098C40.5608 42.2821 40.6024 42.2543 40.6441 42.2265C40.6441 42.2265 40.658 42.2265 40.6719 42.2127C41.0466 42.0044 41.4214 41.7962 41.7823 41.5602ZM40.533 42.2959C40.533 42.2959 40.4498 42.3376 40.4081 42.3654C40.4498 42.3376 40.4914 42.3237 40.533 42.2959ZM38.8951 43.1982C38.6452 43.2954 38.3815 43.3926 38.1177 43.4758C38.3815 43.3926 38.6313 43.2954 38.8951 43.1843V43.1982ZM36.3548 43.7951C36.3132 43.7951 36.2576 43.809 36.216 43.8229C36.2576 43.8229 36.3132 43.809 36.3548 43.7951ZM33.4398 33.8701C30.9967 36.0911 27.8179 37.2293 24.4864 37.0766C18.1011 36.7712 13.0622 31.7324 12.729 25.6108C12.8956 27.1793 13.4092 28.7202 14.2699 30.136C15.9911 32.9678 18.9478 35.0639 22.3626 35.8967C23.4453 36.1605 24.5142 36.2854 25.5691 36.2854C29.6502 36.2854 33.3981 34.4253 35.5358 31.3715C34.9667 32.2876 34.2726 33.1344 33.4536 33.8701H33.4398ZM13.1871 24.5142C13.6868 27.5958 15.7829 30.5247 18.9339 32.5652C21.5158 34.231 24.4586 35.05 27.1932 35.05C29.2199 35.05 31.1494 34.6058 32.7457 33.7174C29.442 35.7579 24.7779 36.0911 20.5164 34.2449C17.171 32.7873 14.6169 30.2193 13.4925 27.1793C12.7707 25.2221 12.7152 23.1816 13.2843 21.3215C13.0344 22.3348 13.0067 23.4037 13.1732 24.5142H13.1871ZM32.1627 14.131C29.553 12.1877 26.3881 11.3964 23.2371 11.8962C17.8373 12.7429 13.7701 17.1849 12.8123 22.6124C13.4647 17.6291 16.4076 13.2426 20.8079 11.5075C22.085 11.0078 23.4314 10.744 24.764 10.744C26.3881 10.744 27.9983 11.1188 29.5391 11.8406C32.3154 13.1732 34.578 15.6024 35.9384 18.6424C35.0361 16.8795 33.759 15.3248 32.1627 14.131ZM0.291505 21.2382C0.333148 20.9051 0.402554 20.5719 0.458079 20.2388C0.583009 19.5863 0.735702 18.9617 0.916158 18.337C1.09661 17.7124 1.30483 17.1016 1.54081 16.5186C1.30483 17.1155 1.09661 17.7263 0.916158 18.337C0.735702 18.9617 0.583009 19.5863 0.458079 20.2388C0.388673 20.5719 0.333148 20.9051 0.291505 21.2382ZM0.0832871 25.236C0.111049 25.9023 0.166574 26.5686 0.263742 27.221C0.180455 26.5686 0.111049 25.9023 0.0832871 25.236ZM25 49.8057C12.4098 49.7918 1.99889 40.3665 0.416435 28.1927C1.02721 31.5103 2.41532 34.7029 4.53915 37.5902C8.34259 42.754 14.0478 46.2937 20.5997 47.5708C22.3348 47.9039 24.07 48.0705 25.7773 48.0705C34.5364 48.0705 42.4764 43.7535 46.7102 36.9239C42.4903 44.5725 34.3282 49.7779 24.9861 49.7779L25 49.8057ZM47.085 36.2438C46.9045 36.5491 46.7102 36.8545 46.5158 37.146C46.4187 37.2848 46.3215 37.4375 46.2243 37.5763C46.3215 37.4375 46.4187 37.2987 46.5158 37.1599C46.724 36.8545 46.9323 36.5353 47.1127 36.2021C47.1127 36.216 47.0988 36.2438 47.085 36.2576V36.2438Z" fill="url(#paint0_radial_1_27)"/>
<path d="M36.5491 21.2104L36.6602 21.266L41.5186 27.6652V21.266L41.5741 21.2104H42.3237L42.3792 21.266V28.9978L42.3237 29.0533H41.5325L41.4214 28.9978L36.563 22.5986V28.9978L36.5075 29.0533H35.7579L35.7024 28.9978V21.266L35.7579 21.2104H36.5491Z" fill="#365888"/>
<path d="M49.0422 21.2104L49.0977 21.266V22.0156L49.0422 22.0711H45.4053V24.2921H48.1538L48.2093 24.3476V25.1111L48.1538 25.1666H45.4053V28.1788H49.3753L49.4309 28.2343V28.9839L49.3753 29.0394H44.6002L44.5447 28.9839V21.2521L44.6002 21.1966H49.0422V21.2104Z" fill="#365888"/>
<path d="M64.7834 21.2104L64.839 21.266V22.0156L64.7834 22.0711H62.146V28.9839L62.0905 29.0394H61.327L61.2715 28.9839V22.0711H58.6341L58.5786 22.0156V21.266L58.6341 21.2104H64.7973H64.7834Z" fill="#365888"/>
<path d="M51.6796 21.2104L51.7907 21.266L54.081 24.1949L56.3714 21.266L56.4825 21.2104H57.4819L57.5375 21.266L54.6363 24.9306L57.8428 28.9978L57.7873 29.0533H56.8018L56.6907 28.9978L54.081 25.6663L51.4853 28.9978L51.3742 29.0533H50.3887L50.3331 28.9978L53.5397 24.9306L50.6385 21.266L50.694 21.2104H51.6796Z" fill="#365888"/>
<path d="M68.2399 21.2104C69.8917 21.2104 70.9606 22.2099 70.9606 23.5564C70.9606 24.9028 69.8917 25.9023 68.2399 25.9023H66.8934V28.9978L66.8379 29.0533H66.0883L66.0328 28.9978V21.266L66.0744 21.2104H68.2399ZM66.8934 25.0278H68.2399C69.3087 25.0278 69.9612 24.4448 69.9612 23.5564C69.9612 22.668 69.2949 22.085 68.2399 22.085H66.8934V25.0417V25.0278Z" fill="#365888"/>
<path d="M73.3481 21.2104L73.4037 21.266V24.306H77.915V21.266L77.9706 21.2104H78.7202L78.7757 21.266V28.9978L78.7202 29.0533H77.9706L77.915 28.9978V25.1805H73.4037V28.9978L73.3481 29.0533H72.5986L72.543 28.9978V21.266L72.5986 21.2104H73.3481Z" fill="#365888"/>
<path d="M84.1061 21.2104L84.1616 21.266L87.2849 28.9978L87.2293 29.0533H86.3965L86.3409 28.9978L85.4942 26.9434H81.9128L81.08 28.9978L81.0244 29.0533H80.1916L80.136 28.9978L83.2454 21.266L83.301 21.2104H84.0783H84.1061ZM82.2738 26.0827H85.1749L83.7174 22.4042L82.2738 26.0827Z" fill="#365888"/>
<path d="M90.7552 21.2104C92.2821 21.2104 93.2677 22.0988 93.2677 23.3759C93.2677 24.3754 92.6291 25.0833 91.7407 25.3887L94.392 28.9839L94.3365 29.0394H93.3232L93.2677 28.9839L90.6858 25.5553H89.492V28.9839L89.4365 29.0394H88.6869L88.6313 28.9839V21.2521L88.6869 21.1966H90.7413L90.7552 21.2104ZM89.5059 24.6946H90.6858C91.588 24.6946 92.2682 24.2504 92.2682 23.3898C92.2682 22.5708 91.713 22.085 90.7413 22.085H89.492V24.7085L89.5059 24.6946Z" fill="#365888"/>
<path d="M96.5297 21.2104L96.6408 21.266L99.5558 24.8612L102.471 21.266L102.582 21.2104H103.304L103.359 21.266V28.9978L103.304 29.0533H102.554L102.499 28.9978V22.5153L99.6252 26.0689H99.5142L96.6546 22.5153V28.9978L96.5991 29.0533H95.8495L95.794 28.9978V21.266L95.8495 21.2104H96.5575H96.5297Z" fill="#365888"/>
<defs>
<radialGradient id="paint0_radial_1_27" cx="0" cy="0" r="1" gradientUnits="userSpaceOnUse" gradientTransform="translate(25.4442 24.9306) scale(31.3992 31.3992)">
<stop stop-color="#26B7EA"/>
<stop offset="0.26" stop-color="#1361AC"/>
<stop offset="0.59" stop-color="#26B7EA"/>
<stop offset="0.89" stop-color="#2371B9"/>
<stop offset="1" stop-color="#2356A7"/>
</radialGradient>
</defs>
</svg>
