<svg width="78" height="68" viewBox="0 0 78 68" fill="none" xmlns="http://www.w3.org/2000/svg">
<path fill-rule="evenodd" clip-rule="evenodd" d="M1.16699 7.34635C1.16699 3.9406 3.9279 1.17969 7.33366 1.17969H70.667C74.0727 1.17969 76.8337 3.9406 76.8337 7.34635V16.8457H64.1081C64.0733 16.838 64.0371 16.834 64 16.834H44C43.9629 16.834 43.9267 16.838 43.8919 16.8457H1.16699V7.34635ZM43.5 17.8457H1.16699V60.6797C1.16699 64.0854 3.9279 66.8464 7.33366 66.8464H70.667C74.0727 66.8464 76.8337 64.0854 76.8337 60.6797V17.8457H64.5V42.564V42.5642C64.4998 42.9562 64.3933 43.3407 64.1918 43.6769C63.9904 44.013 63.7015 44.2883 63.356 44.4733C63.0105 44.6582 62.6213 44.746 62.2298 44.7273C61.8383 44.7086 61.4593 44.584 61.133 44.3669L61.1323 44.3664L53.9996 39.6017L46.8672 44.3534L46.867 44.3536C46.5407 44.5707 46.1617 44.6953 45.7702 44.714C45.3787 44.7327 44.9895 44.6449 44.644 44.4599C44.2985 44.2749 44.0096 43.9997 43.8082 43.6635C43.6067 43.3273 43.5002 42.9428 43.5 42.5509V42.5507V17.8457ZM44.5 17.8457H63.5V42.5637C63.4999 42.7748 63.4425 42.9818 63.3341 43.1628C63.2256 43.3438 63.07 43.492 62.884 43.5917C62.698 43.6913 62.4884 43.7385 62.2776 43.7285C62.0669 43.7184 61.863 43.6514 61.6874 43.5346L61.687 43.5344L54.2777 38.5849C54.1098 38.4727 53.8909 38.4726 53.7228 38.5845L46.313 43.5211L46.3129 43.5211C46.1373 43.638 45.9332 43.705 45.7224 43.7151C45.5116 43.7252 45.302 43.6779 45.116 43.5783C44.93 43.4787 44.7744 43.3305 44.6659 43.1495C44.5575 42.9686 44.5002 42.7616 44.5 42.5507V42.5504V17.8457ZM0.166992 17.3457V7.34635C0.166992 3.38831 3.37562 0.179688 7.33366 0.179688H70.667C74.625 0.179688 77.8337 3.38831 77.8337 7.34635V17.3457V60.6797C77.8337 64.6377 74.625 67.8464 70.667 67.8464H7.33366C3.37562 67.8464 0.166992 64.6377 0.166992 60.6797V17.3457ZM12.3333 8.67969C12.2449 8.67969 12.1601 8.71481 12.0976 8.77732C12.0351 8.83983 12 8.92461 12 9.01302C12 9.07895 12.0195 9.14339 12.0562 9.19821C12.0928 9.25303 12.1449 9.29575 12.2058 9.32098C12.2667 9.34621 12.3337 9.35281 12.3984 9.33995C12.463 9.32709 12.5224 9.29534 12.569 9.24872C12.6157 9.2021 12.6474 9.14271 12.6603 9.07805C12.6731 9.01339 12.6665 8.94637 12.6413 8.88546C12.6161 8.82455 12.5733 8.77249 12.5185 8.73586C12.4637 8.69924 12.3993 8.67969 12.3333 8.67969ZM11.3905 8.07021C11.6406 7.82016 11.9797 7.67969 12.3333 7.67969C12.597 7.67969 12.8548 7.75788 13.0741 7.90439C13.2934 8.0509 13.4643 8.25914 13.5652 8.50278C13.6661 8.74641 13.6925 9.0145 13.641 9.27314C13.5896 9.53178 13.4626 9.76936 13.2761 9.95583C13.0897 10.1423 12.8521 10.2693 12.5935 10.3207C12.3348 10.3722 12.0667 10.3458 11.8231 10.2449C11.5795 10.1439 11.3712 9.97304 11.2247 9.75378C11.0782 9.53451 11 9.27673 11 9.01302C11 8.6594 11.1405 8.32026 11.3905 8.07021ZM22.0976 8.77732C22.1601 8.71481 22.2449 8.67969 22.3333 8.67969C22.3993 8.67969 22.4637 8.69924 22.5185 8.73586C22.5733 8.77249 22.6161 8.82455 22.6413 8.88546C22.6665 8.94637 22.6731 9.01339 22.6603 9.07805C22.6474 9.14271 22.6157 9.2021 22.569 9.24872C22.5224 9.29534 22.463 9.32709 22.3984 9.33995C22.3337 9.35281 22.2667 9.34621 22.2058 9.32098C22.1449 9.29575 22.0928 9.25303 22.0562 9.19821C22.0195 9.14339 22 9.07895 22 9.01302C22 8.92461 22.0351 8.83983 22.0976 8.77732ZM22.3333 7.67969C21.9797 7.67969 21.6406 7.82016 21.3905 8.07021C21.1405 8.32026 21 8.6594 21 9.01302C21 9.27673 21.0782 9.53451 21.2247 9.75378C21.3712 9.97304 21.5795 10.1439 21.8231 10.2449C22.0667 10.3458 22.3348 10.3722 22.5935 10.3207C22.8521 10.2693 23.0897 10.1423 23.2761 9.95583C23.4626 9.76936 23.5896 9.53178 23.641 9.27314C23.6925 9.0145 23.6661 8.74641 23.5652 8.50278C23.4643 8.25914 23.2934 8.0509 23.0741 7.90439C22.8548 7.75788 22.597 7.67969 22.3333 7.67969ZM32.3333 8.67969C32.2449 8.67969 32.1601 8.71481 32.0976 8.77732C32.0351 8.83983 32 8.92461 32 9.01302C32 9.07895 32.0195 9.14339 32.0562 9.19821C32.0928 9.25303 32.1449 9.29575 32.2058 9.32098C32.2667 9.34621 32.3337 9.35281 32.3984 9.33995C32.463 9.32709 32.5224 9.29534 32.569 9.24872C32.6157 9.2021 32.6474 9.14271 32.6603 9.07805C32.6731 9.01339 32.6665 8.94637 32.6413 8.88546C32.6161 8.82455 32.5733 8.77249 32.5185 8.73586C32.4637 8.69924 32.3993 8.67969 32.3333 8.67969ZM31.3905 8.07021C31.6406 7.82016 31.9797 7.67969 32.3333 7.67969C32.597 7.67969 32.8548 7.75788 33.0741 7.90439C33.2934 8.0509 33.4643 8.25914 33.5652 8.50278C33.6661 8.74641 33.6925 9.0145 33.641 9.27314C33.5896 9.53178 33.4626 9.76936 33.2761 9.95583C33.0897 10.1423 32.8521 10.2693 32.5935 10.3207C32.3348 10.3722 32.0667 10.3458 31.8231 10.2449C31.5795 10.1439 31.3712 9.97304 31.2247 9.75378C31.0782 9.53451 31 9.27673 31 9.01302C31 8.6594 31.1405 8.32026 31.3905 8.07021Z" fill="#F5B335"/>
</svg>
