<svg width="117" height="50" viewBox="0 0 117 50" fill="none" xmlns="http://www.w3.org/2000/svg">
<g clip-path="url(#clip0_1_2)">
<mask id="mask0_1_2" style="mask-type:luminance" maskUnits="userSpaceOnUse" x="0" y="0" width="117" height="50">
<path d="M116.667 0H0V50H116.667V0Z" fill="white"/>
</mask>
<g mask="url(#mask0_1_2)">
<path d="M108.078 7.31567C102.355 2.43856 95.2159 0 86.6628 0C78.1097 0 70.957 2.4537 65.2044 7.3611C59.4461 12.2701 56.5669 18.1497 56.5669 25C56.5669 31.914 59.4106 37.8112 65.0979 42.6915C70.7852 47.5718 77.9034 50.0103 86.4526 50.0072C94.9999 50.0072 102.174 47.5535 107.975 42.6461C113.775 37.7387 116.675 31.859 116.673 25.0072C116.669 18.0883 113.804 12.1912 108.078 7.31567ZM101.891 38.2519C97.9118 41.8253 92.8358 43.6119 86.6628 43.6119C80.6434 43.6119 75.5886 41.8062 71.4982 38.1945C67.4079 34.5829 65.3638 30.1847 65.3657 25C65.3657 19.7547 67.3359 15.3255 71.2766 11.7122C75.2172 8.09904 80.2721 6.29403 86.4411 6.29722C92.4624 6.29722 97.5355 8.11817 101.661 11.7601C105.786 15.402 107.849 19.8152 107.851 25C107.855 30.2485 105.868 34.6658 101.891 38.2519Z" fill="white" fill-opacity="0.7"/>
<path d="M29.8828 6.29722C35.7017 6.29722 40.625 8.01377 44.6732 11.411C45.8159 9.95808 47.1274 8.60167 48.5888 7.3611C49.0725 6.94989 49.5792 6.58172 50.0831 6.20397C44.6097 2.08472 37.9618 0 30.1075 0C21.5525 0 14.3959 2.4537 8.6375 7.3611C2.87916 12.2685 0 18.1482 0 25C0 31.914 2.84366 37.8112 8.53097 42.6915C14.2183 47.5718 21.3355 50.0103 29.8828 50.0072C37.7141 50.0072 44.3795 47.9224 49.9046 43.8032C49.4238 43.4398 48.9372 43.086 48.465 42.6915C47.055 41.4872 45.7872 40.1734 44.6788 38.7682C40.8006 41.9886 35.9464 43.6191 30.0959 43.6191C24.0765 43.6191 19.0217 41.8133 14.9313 38.2017C10.841 34.5901 8.80065 30.1895 8.81025 25C8.81025 19.7547 10.7796 15.3262 14.7182 11.7147C18.657 8.10302 23.7119 6.29722 29.8828 6.29722Z" fill="white" fill-opacity="0.7"/>
<path d="M84.9843 21.8057C84.871 20.5732 84.6788 19.3467 84.4084 18.1311C84.2933 17.653 84.4085 17.3852 85.0793 17.4426C86.7489 17.5824 88.4311 17.5824 90.1006 17.4426C90.6476 17.3972 90.8319 17.5477 90.7138 18.0307C90.3712 19.4388 90.2417 20.8709 90.0603 22.2981C90.0027 22.7476 90.1409 22.915 90.7196 22.8839C92.419 22.796 94.1108 22.6276 95.7869 22.3795C96.6075 22.2576 96.6795 22.3364 96.6133 23.0082C96.4679 24.3531 96.4679 25.7061 96.6133 27.051C96.6651 27.5052 96.5614 27.6965 95.9569 27.5985C94.2807 27.3506 92.5888 27.1838 90.8895 27.0988C90.0891 27.0462 89.9912 27.1227 90.0661 27.7945C90.2273 29.2027 90.3799 30.6108 90.7024 31.9998C90.806 32.4445 90.6073 32.5879 90.0891 32.5449C88.3942 32.3955 86.6849 32.3955 84.9901 32.5449C84.2675 32.6142 84.3077 32.2867 84.3941 31.8827C84.6977 30.4915 84.8996 29.0864 84.9988 27.675C85.0333 27.1251 84.8145 27.0246 84.204 27.0749C82.5111 27.2183 80.8124 27.314 79.1396 27.5889C78.6098 27.675 78.4054 27.522 78.463 27.094C78.6473 25.6868 78.6473 24.2671 78.463 22.86C78.3853 22.2766 78.8085 22.2934 79.2894 22.3652C80.8873 22.6042 82.4996 22.7524 84.1206 22.8743C84.9037 22.9342 85.1571 22.7572 84.9843 22.1356C84.9726 22.0258 84.9726 21.9154 84.9843 21.8057Z" fill="#ED1C24"/>
</g>
</g>
<defs>
<clipPath id="clip0_1_2">
<rect width="116.667" height="50" fill="white"/>
</clipPath>
</defs>
</svg>
