<svg width="512" height="60" viewBox="0 0 512 60" fill="none" xmlns="http://www.w3.org/2000/svg">
<g clip-path="url(#clip0_402_2370)">
<path d="M31.3145 59.9716H32.1505C38.313 59.9616 44.3262 58.0941 49.389 54.6179C54.4518 51.1417 58.3239 46.2218 60.4894 40.5137C49.7312 45.3367 39.8689 51.9143 31.3145 59.9716Z" fill="url(#paint0_linear_402_2370)"/>
<path d="M44.7191 2.70536C37.7632 -0.434532 29.8648 -0.857467 22.607 1.52132C15.3492 3.90011 9.26831 8.90485 5.58301 15.5325C19.4054 14.075 32.751 9.70087 44.7191 2.70536Z" fill="url(#paint1_linear_402_2370)"/>
<path d="M10.9813 55.1075C1.51613 55.6122 0 49.0654 0 46.9206C0 44.5093 0.949355 39.9112 7.84989 36.757C13.7727 34.1075 64.8254 16.4159 53.1922 7.5C58.4916 9.49065 57.6131 14.8738 53.0931 19.4299C47.9107 24.3235 42.2801 28.7303 36.2739 32.5935C29.5292 37.4579 17.0034 44.6636 13.6735 47.0467C11.038 48.9112 6.46128 52.1916 10.9813 55.1075Z" fill="url(#paint2_linear_402_2370)"/>
<path d="M55.2607 21.5327C49.9751 26.5694 44.215 31.0946 38.0589 35.0467C33.9214 38.0327 27.7294 41.8317 22.7417 44.8598C19.5252 46.8364 16.748 48.5467 15.5011 49.4439C14.8339 49.8812 14.2205 50.394 13.6732 50.9719C12.1146 52.57 13.2907 53.4392 13.2907 53.4392C16.9283 56.2966 21.1793 58.2915 25.7173 59.271C35.721 48.771 48.3885 40.8785 62.0337 35.0046C63.1584 28.5516 62.1079 21.9117 59.0439 16.1074C58.1438 18.1378 56.8596 19.9793 55.2607 21.5327Z" fill="url(#paint3_linear_402_2370)"/>
<path d="M6.51773 34.0924C7.67962 33.5037 10.0601 32.5644 13.6025 31.1345C20.3896 28.4289 30.6058 24.3494 39.0225 20.0317C51.7751 13.4569 51.775 10.8494 51.8742 10.4429C52.007 9.65491 51.9476 8.84695 51.7012 8.08621C51.4547 7.32547 51.0283 6.63392 50.4573 6.06907C50.0464 5.76066 49.6213 5.46627 49.1962 5.17188C35.2109 13.4289 19.7237 19.1906 3.52797 20.1298C2.4144 23.2843 1.84441 26.6015 1.8418 29.9429C1.84295 32.3036 2.12353 34.6561 2.6778 36.9522C3.78157 35.7871 5.08068 34.8196 6.51773 34.0924Z" fill="url(#paint4_linear_402_2370)"/>
<path d="M76.3027 35.2146V3.84074H87.0149C88.7958 3.77875 90.5655 4.14431 92.1726 4.90616C93.4828 5.54956 94.5649 6.57121 95.2757 7.83606C95.9854 9.12521 96.3466 10.5739 96.3242 12.0417C96.3576 13.2027 96.1301 14.3566 95.6583 15.4202C95.2443 16.3048 94.6224 17.0787 93.8446 17.6772C93.0796 18.2506 92.2082 18.6698 91.2799 18.9108V19.1632C92.3512 19.244 93.38 19.6124 94.2555 20.2286C95.2628 20.9101 96.0812 21.8307 96.6359 22.9062C97.2777 24.1752 97.594 25.581 97.557 26.9996C97.575 28.4687 97.2089 29.9174 96.4942 31.2052C95.7255 32.4868 94.5782 33.5044 93.2069 34.1211C91.4258 34.9033 89.4861 35.2679 87.5391 35.1865L76.3027 35.2146ZM79.1366 18.0136H87.1991C88.3437 18.0417 89.4763 17.7761 90.4864 17.2426C91.4066 16.7573 92.1683 16.0232 92.6827 15.1258C93.234 14.1949 93.5227 13.1346 93.5187 12.0557C93.5455 11.3001 93.4132 10.5473 93.1302 9.84504C92.8473 9.14276 92.4198 8.50636 91.875 7.97625C90.5158 6.84045 88.7609 6.2768 86.9865 6.40616H79.2075L79.1366 18.0136ZM79.1366 32.6491H87.525C89.4751 32.8115 91.4147 32.2353 92.9519 31.037C93.5237 30.5278 93.977 29.9018 94.2804 29.2023C94.5837 28.5028 94.7299 27.7465 94.7089 26.9856C94.7242 25.844 94.4255 24.7198 93.8446 23.7333C93.255 22.7513 92.4015 21.9505 91.3791 21.4202C90.2318 20.8215 88.9492 20.5224 87.6525 20.551H79.1508L79.1366 32.6491Z" fill="#F5B335"/>
<path d="M107.447 3.83984V35.2137H104.613V3.83984H107.447Z" fill="#F5B335"/>
<path d="M141.879 19.5284C141.945 22.4608 141.34 25.3699 140.108 28.0378C139.049 30.3192 137.365 32.2617 135.248 33.6452C133.113 34.9318 130.662 35.6123 128.163 35.6123C125.664 35.6123 123.213 34.9318 121.078 33.6452C118.946 32.2709 117.251 30.3265 116.19 28.0378C114.96 25.3645 114.36 22.4504 114.433 19.5144C114.362 16.5831 114.963 13.674 116.19 11.005C117.238 8.72086 118.918 6.77678 121.036 5.39757C123.167 4.10192 125.619 3.41602 128.12 3.41602C130.622 3.41602 133.074 4.10192 135.205 5.39757C137.327 6.77594 139.012 8.71988 140.065 11.005C141.314 13.6738 141.934 16.5881 141.879 19.5284ZM139.045 19.5284C139.113 17.0482 138.63 14.5834 137.628 12.3088C136.803 10.438 135.456 8.83824 133.746 7.69663C132.072 6.66082 130.137 6.11155 128.163 6.11155C126.189 6.11155 124.254 6.66082 122.58 7.69663C120.869 8.83534 119.518 10.4293 118.684 12.2948C117.674 14.5718 117.189 17.043 117.267 19.5284C117.195 22.0089 117.679 24.4743 118.684 26.748C119.518 28.6097 120.863 30.2026 122.566 31.3462C124.246 32.4397 126.223 33.0019 128.234 32.9583C130.242 33.0016 132.218 32.4447 133.902 31.3602C135.613 30.2215 136.963 28.6275 137.798 26.7621C138.746 24.4706 139.177 22.0017 139.059 19.5284H139.045Z" fill="#F5B335"/>
<path d="M166.094 11.6766C166.038 10.8494 165.799 10.0445 165.395 9.31806C164.992 8.59162 164.432 7.96124 163.756 7.471C162.24 6.39792 160.405 5.85533 158.542 5.92895C157.205 5.90437 155.877 6.15748 154.645 6.67194C153.596 7.1191 152.686 7.83535 152.01 8.74671C151.377 9.62552 151.044 10.6816 151.061 11.7607C151.027 12.5495 151.218 13.3316 151.613 14.0177C151.965 14.648 152.448 15.1974 153.03 15.6299C153.67 16.0822 154.36 16.463 155.085 16.7654C155.82 17.0856 156.578 17.3527 157.352 17.5645L160.696 18.5177C161.73 18.7991 162.743 19.1504 163.728 19.5691C164.74 19.982 165.692 20.524 166.562 21.1813C167.4 21.8294 168.094 22.6404 168.602 23.5645C169.137 24.6054 169.4 25.7619 169.367 26.9289C169.388 28.5294 168.93 30.1001 168.05 31.443C167.114 32.8328 165.803 33.9353 164.266 34.6252C162.417 35.4525 160.401 35.855 158.372 35.8028C156.428 35.8501 154.495 35.4869 152.704 34.7374C151.206 34.1041 149.909 33.0821 148.949 31.7794C148.031 30.4992 147.501 28.9871 147.419 27.4196H150.395C150.459 28.569 150.891 29.6685 151.627 30.5598C152.386 31.4405 153.362 32.1118 154.461 32.5084C157.083 33.4427 159.958 33.4028 162.552 32.3962C163.71 31.9328 164.718 31.1673 165.471 30.1813C166.183 29.2292 166.556 28.0709 166.534 26.8869C166.566 25.9269 166.271 24.9841 165.698 24.2093C165.072 23.4305 164.271 22.8065 163.36 22.3869C162.248 21.8526 161.091 21.4164 159.902 21.0832L156.105 19.9897C153.958 19.4341 151.973 18.3873 150.31 16.9336C149.632 16.2968 149.099 15.5253 148.745 14.67C148.391 13.8147 148.224 12.8948 148.255 11.971C148.237 10.3739 148.734 8.81271 149.672 7.51306C150.622 6.20825 151.902 5.17363 153.384 4.51306C155.04 3.77525 156.84 3.40673 158.655 3.43362C160.463 3.40107 162.254 3.76994 163.898 4.51306C165.34 5.16742 166.586 6.182 167.511 7.45699C168.39 8.6914 168.882 10.1537 168.928 11.6626L166.094 11.6766Z" fill="#F5B335"/>
<path d="M201.207 13.6404H198.302C198.087 12.5898 197.689 11.5842 197.126 10.6684C195.977 8.80324 194.209 7.39093 192.124 6.67309C191.004 6.2874 189.825 6.09765 188.639 6.11234C186.702 6.08713 184.801 6.62319 183.169 7.65439C181.451 8.77623 180.082 10.3489 179.216 12.1964C178.195 14.5046 177.71 17.0102 177.799 19.5282C177.706 22.0557 178.19 24.5713 179.216 26.888C180.079 28.7341 181.449 30.3031 183.169 31.4161C184.805 32.4391 186.704 32.9745 188.639 32.9581C189.825 32.9683 191.005 32.7738 192.124 32.3834C193.153 32.0191 194.112 31.4834 194.958 30.7992C195.8 30.1305 196.515 29.3188 197.069 28.4021C197.63 27.4801 198.028 26.4703 198.246 25.4161H201.207C200.97 26.8274 200.491 28.1882 199.79 29.4394C198.366 31.9576 196.072 33.8837 193.329 34.8647C191.835 35.4008 190.256 35.6667 188.667 35.6497C186.16 35.6941 183.696 35.0066 181.582 33.6731C179.467 32.2873 177.784 30.3454 176.722 28.0656C175.492 25.3878 174.891 22.4688 174.965 19.5282C174.891 16.5876 175.492 13.6687 176.722 10.9908C177.778 8.70733 179.462 6.76404 181.582 5.38337C183.692 4.04026 186.158 3.34742 188.667 3.39271C190.255 3.37803 191.832 3.639 193.329 4.16374C194.709 4.65983 195.986 5.40094 197.098 6.35066C198.181 7.27602 199.092 8.38142 199.79 9.61701C200.493 10.8674 200.972 12.2285 201.207 13.6404Z" fill="#F5B335"/>
<path d="M210.87 3.83984V35.2137H208.036V3.83984H210.87Z" fill="#F5B335"/>
<path d="M219.301 35.2137V3.83984H237.721V6.40526H222.191V18.223H236.729V20.8025H222.191V32.6483H238.047V35.2137H219.301Z" fill="#F5B335"/>
<path d="M269.886 3.83984V35.2137H267.052L248.334 8.94265H248.079V35.2137H245.245V3.83984H248.079L266.896 30.1529H267.137V3.83984H269.886Z" fill="#F5B335"/>
<path d="M303.227 13.6399H300.393C300.178 12.5894 299.78 11.5838 299.217 10.668C298.655 9.75683 297.941 8.94632 297.106 8.27079C296.259 7.58395 295.301 7.04363 294.272 6.67266C293.151 6.28944 291.972 6.09976 290.786 6.11191C288.845 6.08396 286.939 6.62013 285.303 7.65397C283.585 8.77581 282.216 10.3485 281.349 12.196C280.328 14.5041 279.844 17.0097 279.932 19.5278C279.84 22.0553 280.324 24.5709 281.349 26.8876C282.212 28.7337 283.582 30.3027 285.303 31.4156C286.943 32.4405 288.847 32.9759 290.786 32.9577C291.973 32.9653 293.152 32.7709 294.272 32.3829C295.3 32.017 296.258 31.4814 297.106 30.7988C297.948 30.1301 298.663 29.3183 299.217 28.4016C299.778 27.4797 300.176 26.4699 300.393 25.4156H303.227C302.99 26.827 302.511 28.1877 301.81 29.439C300.387 31.953 298.099 33.8782 295.363 34.8642C293.869 35.3981 292.29 35.6639 290.701 35.6493C288.195 35.6896 285.732 35.0024 283.617 33.6727C281.501 32.2869 279.818 30.345 278.756 28.0652C277.532 25.3856 276.931 22.4679 276.999 19.5278C276.931 16.5877 277.532 13.67 278.756 10.9904C279.812 8.70691 281.497 6.76361 283.617 5.38294C285.729 4.04447 288.193 3.35203 290.701 3.39229C292.289 3.37991 293.866 3.64081 295.363 4.16331C296.69 4.67882 297.914 5.42411 298.976 6.36425C300.058 7.28542 300.969 8.38599 301.668 9.61658C302.421 10.8576 302.948 12.2192 303.227 13.6399Z" fill="#F5B335"/>
<path d="M309.972 35.2137V3.83984H328.392V6.40526H312.876V18.223H327.4V20.8025H312.876V32.6483H328.732V35.2137H309.972Z" fill="#F5B335"/>
<path d="M351.219 3.83984V35.2137H344.517V3.83984H351.219Z" fill="#F5B335"/>
<path d="M383.285 3.83984V35.2137H377.489L363.688 15.4193H363.461V35.2137H356.745V3.83984H362.64L376.327 23.5782H376.611V3.83984H383.285Z" fill="#F5B335"/>
<path d="M415.35 3.83984V35.2137H409.498L395.754 15.4193H395.513V35.2137H388.811V3.83984H394.691L408.393 23.5782H408.662V3.83984H415.35Z" fill="#F5B335"/>
<path d="M450.023 19.527C450.115 22.5537 449.443 25.5553 448.068 28.2606C446.858 30.5579 445.009 32.4648 442.74 33.7559C440.41 34.9977 437.805 35.6477 435.159 35.6477C432.513 35.6477 429.908 34.9977 427.579 33.7559C425.31 32.4573 423.462 30.5463 422.251 28.2466C420.878 25.5455 420.206 22.549 420.295 19.527C420.204 16.5002 420.876 13.4986 422.251 10.7933C423.454 8.49655 425.298 6.58941 427.564 5.298C429.894 4.05628 432.499 3.40625 435.145 3.40625C437.791 3.40625 440.396 4.05628 442.726 5.298C444.995 6.58917 446.844 8.49603 448.053 10.7933C449.433 13.4974 450.11 16.4991 450.023 19.527ZM443.222 19.527C443.278 17.6106 442.941 15.7028 442.23 13.9195C441.654 12.5124 440.667 11.3069 439.396 10.4569C438.116 9.68406 436.645 9.2752 435.145 9.2752C433.645 9.2752 432.174 9.68406 430.894 10.4569C429.622 11.3056 428.635 12.5115 428.06 13.9195C427.344 15.7017 427.001 17.6096 427.054 19.527C426.998 21.4445 427.341 23.3531 428.06 25.1344C428.635 26.5424 429.622 27.7483 430.894 28.5971C432.174 29.3699 433.645 29.7787 435.145 29.7787C436.645 29.7787 438.116 29.3699 439.396 28.5971C440.667 27.747 441.654 26.5416 442.23 25.1344C442.942 23.3514 443.28 21.4434 443.222 19.527Z" fill="#F5B335"/>
<path d="M458.936 3.83984L466.601 27.6716H466.885L474.579 3.83984H482.003L471.079 35.2137H462.435L451.482 3.83984H458.936Z" fill="#F5B335"/>
<path d="M487.076 35.2137H479.892L490.83 3.83984H499.474L510.413 35.2137H503.229L495.28 11.0034H495.039L487.076 35.2137ZM486.622 22.8912H503.625V28.0361H486.622V22.8912Z" fill="#F5B335"/>
<path d="M81.1915 48.6309H81.9142V53.8178C81.9174 54.3107 81.7852 54.7953 81.5316 55.2196C81.2827 55.6416 80.9195 55.9864 80.483 56.215C79.9941 56.4547 79.4559 56.5794 78.9102 56.5794C78.3646 56.5794 77.8263 56.4547 77.3374 56.215C76.901 55.9864 76.5378 55.6416 76.2889 55.2196C76.0353 54.7953 75.9031 54.3107 75.9063 53.8178V48.6309H76.629V53.7757C76.6252 54.1629 76.7228 54.5444 76.9123 54.8832C77.1019 55.2062 77.376 55.4726 77.7058 55.6542C78.0801 55.8382 78.4923 55.934 78.9102 55.934C79.3282 55.934 79.7404 55.8382 80.1146 55.6542C80.4445 55.4726 80.7186 55.2062 80.9081 54.8832C81.0976 54.5444 81.1953 54.1629 81.1915 53.7757V48.6309Z" fill="#F5B335"/>
<path d="M91.7472 48.6309V56.4673H91.0387L86.3486 49.9066V56.4673H85.626V48.6309H86.3203L91.0245 55.2056V48.6309H91.7472Z" fill="#F5B335"/>
<path d="M96.126 48.6309V56.4673H95.4033V48.6309H96.126Z" fill="#F5B335"/>
<path d="M99.7958 48.6309L102.275 55.5421L104.854 48.6309H105.619L102.786 56.4673H102.02L99.1865 48.6309H99.7958Z" fill="#F5B335"/>
<path d="M108.481 56.4673V48.6309H113.087V49.2617H109.204V52.2196H112.846V52.8645H109.204V55.8224H113.157V56.4673H108.481Z" fill="#F5B335"/>
<path d="M116.502 56.4676V48.6311H119.024C119.514 48.6123 120 48.7135 120.441 48.9255C120.806 49.1098 121.107 49.3978 121.305 49.7526C121.497 50.1309 121.594 50.5491 121.589 50.9722C121.596 51.391 121.498 51.8051 121.305 52.1779C121.107 52.5327 120.806 52.8207 120.441 53.005C119.999 53.2096 119.512 53.3012 119.024 53.2713H116.899V52.6124H119.024C119.379 52.6219 119.732 52.555 120.058 52.4162C120.318 52.2864 120.531 52.0808 120.668 51.8274C120.816 51.5566 120.889 51.252 120.88 50.9442C120.887 50.6322 120.814 50.3236 120.668 50.047C120.533 49.7884 120.32 49.5777 120.058 49.4442C119.731 49.2934 119.371 49.2213 119.01 49.2339H117.225V56.4395L116.502 56.4676ZM120.002 52.9349L121.957 56.4676H121.121L119.18 52.9349H120.002Z" fill="#F5B335"/>
<path d="M129.239 50.5793C129.225 50.3748 129.166 50.176 129.065 49.9968C128.965 49.8176 128.826 49.6623 128.658 49.5419C128.271 49.2797 127.81 49.1471 127.341 49.1634C127.01 49.1547 126.681 49.2169 126.377 49.3456C126.113 49.4579 125.884 49.6368 125.711 49.8643C125.558 50.0874 125.479 50.3519 125.484 50.6213C125.481 50.8066 125.525 50.9898 125.612 51.154C125.699 51.3175 125.826 51.4571 125.98 51.5606C126.137 51.6756 126.309 51.7699 126.49 51.8409C126.675 51.9232 126.864 51.9935 127.057 52.0512L127.893 52.2895C128.154 52.3546 128.41 52.4389 128.658 52.5419C128.902 52.6553 129.135 52.7914 129.353 52.9484C129.555 53.1164 129.723 53.321 129.849 53.5512C129.987 53.81 130.055 54.0997 130.047 54.3923C130.048 54.7892 129.935 55.1782 129.721 55.5138C129.484 55.8607 129.156 56.137 128.772 56.3129C128.327 56.5114 127.843 56.6118 127.355 56.6073C126.869 56.6156 126.387 56.5249 125.938 56.3409C125.564 56.1814 125.241 55.9247 125.003 55.5979C124.772 55.2775 124.639 54.8978 124.62 54.5045H125.357C125.377 54.7916 125.486 55.0657 125.669 55.2895C125.855 55.5143 126.1 55.684 126.377 55.7802C126.685 55.8962 127.012 55.9533 127.341 55.9484C127.7 55.9536 128.057 55.8869 128.389 55.7521C128.681 55.6398 128.935 55.4507 129.126 55.2054C129.297 54.9632 129.386 54.6737 129.381 54.3783C129.394 54.1383 129.324 53.9012 129.183 53.7054C129.028 53.5125 128.829 53.3587 128.602 53.2568C128.324 53.1208 128.035 53.0082 127.737 52.9204L126.788 52.654C126.261 52.5105 125.776 52.2463 125.371 51.883C125.203 51.7247 125.07 51.5329 124.982 51.3202C124.895 51.1076 124.853 50.879 124.861 50.6493C124.854 50.2496 124.972 49.8576 125.201 49.5279C125.435 49.2085 125.747 48.953 126.108 48.7849C126.521 48.5987 126.972 48.5076 127.426 48.5185C127.875 48.5073 128.321 48.5984 128.729 48.7849C129.089 48.948 129.401 49.1988 129.636 49.5138C129.858 49.8266 129.981 50.1973 129.99 50.5793H129.239Z" fill="#F5B335"/>
<path d="M133.349 56.4673H132.598L135.432 48.6309H136.211L139.045 56.4673H138.28L135.8 49.5561L133.349 56.4673ZM133.901 53.4673H137.84V54.1122H133.901V53.4673Z" fill="#F5B335"/>
<path d="M142.049 56.4673V48.6309H142.771V55.8224H146.555V56.4673H142.049Z" fill="#F5B335"/>
<path d="M158.698 50.5783C158.682 50.3728 158.621 50.1732 158.518 49.9939C158.415 49.8146 158.273 49.6599 158.103 49.541C157.722 49.2771 157.264 49.1441 156.8 49.1624C156.464 49.154 156.131 49.2161 155.822 49.3447C155.562 49.4574 155.337 49.6364 155.17 49.8634C155.013 50.0852 154.929 50.3496 154.929 50.6204C154.924 50.8077 154.973 50.9926 155.071 51.1531C155.158 51.3166 155.285 51.4562 155.439 51.5596C155.593 51.6804 155.765 51.7751 155.949 51.84C156.133 51.9246 156.322 51.9949 156.516 52.0503L157.352 52.2886C157.609 52.3537 157.86 52.4381 158.103 52.541C158.35 52.6481 158.584 52.7846 158.798 52.9475C159.008 53.1112 159.182 53.3165 159.308 53.5503C159.446 53.809 159.514 54.0988 159.506 54.3914C159.509 54.7905 159.39 55.1813 159.166 55.5129C158.938 55.8623 158.613 56.1397 158.231 56.312C157.786 56.5104 157.302 56.6109 156.814 56.6064C156.328 56.6116 155.847 56.521 155.397 56.34C155.023 56.1805 154.7 55.9237 154.462 55.597C154.231 55.2765 154.098 54.8969 154.079 54.5036H154.83C154.85 54.7907 154.959 55.0648 155.142 55.2886C155.323 55.5129 155.563 55.6828 155.836 55.7793C156.488 56.0263 157.21 56.0263 157.862 55.7793C158.154 55.6669 158.409 55.4779 158.599 55.2325C158.77 54.9903 158.859 54.7008 158.854 54.4054C158.863 54.1638 158.788 53.9265 158.642 53.7325C158.491 53.5349 158.291 53.3802 158.061 53.2839C157.784 53.1455 157.494 53.0329 157.196 52.9475L156.247 52.6811C155.718 52.5427 155.232 52.2779 154.83 51.9101C154.662 51.7518 154.529 51.56 154.441 51.3474C154.353 51.1347 154.312 50.9061 154.32 50.6765C154.313 50.2767 154.431 49.8847 154.66 49.555C154.9 49.2355 155.216 48.9802 155.581 48.812C156 48.6269 156.455 48.536 156.913 48.5456C157.362 48.5359 157.808 48.6269 158.217 48.812C158.576 48.9751 158.888 49.2259 159.123 49.541C159.345 49.8537 159.469 50.2244 159.478 50.6064L158.698 50.5783Z" fill="#F5B335"/>
<path d="M168.971 51.0699H168.234C168.176 50.8102 168.08 50.5601 167.951 50.3269C167.806 50.1021 167.624 49.9031 167.412 49.7382C167.199 49.56 166.954 49.4222 166.69 49.3316C166.321 49.2063 165.929 49.164 165.541 49.2077C165.154 49.2513 164.782 49.3799 164.451 49.584C164.02 49.8596 163.68 50.2544 163.473 50.7195C163.207 51.2897 163.08 51.9142 163.105 52.5419C163.081 53.1786 163.207 53.8122 163.473 54.3924C163.684 54.851 164.023 55.2402 164.451 55.5139C164.872 55.7843 165.366 55.9213 165.868 55.9064C166.161 55.9043 166.453 55.857 166.732 55.7662C166.996 55.6756 167.241 55.5378 167.455 55.3597C167.666 55.1948 167.848 54.9957 167.993 54.7709C168.123 54.5329 168.218 54.2781 168.277 54.0139H169.013C168.944 54.3672 168.82 54.7077 168.645 55.0232C168.475 55.3362 168.244 55.6126 167.965 55.8363C167.692 56.0765 167.374 56.2621 167.03 56.383C166.657 56.5151 166.264 56.5816 165.868 56.5793C165.24 56.5907 164.622 56.4148 164.097 56.0746C163.562 55.7338 163.139 55.2468 162.878 54.6727C162.598 54.0063 162.454 53.2916 162.454 52.5699C162.454 51.8482 162.598 51.1336 162.878 50.4671C163.145 49.8968 163.567 49.4114 164.097 49.0653C164.626 48.7354 165.242 48.5649 165.868 48.5746C166.264 48.5723 166.657 48.6388 167.03 48.7709C167.374 48.8917 167.692 49.0774 167.965 49.3176C168.244 49.5413 168.475 49.8177 168.645 50.1307C168.798 50.427 168.907 50.7432 168.971 51.0699Z" fill="#F5B335"/>
<path d="M172.216 56.4673V48.6309H172.938V52.2196H177.444V48.6309H178.167V56.4673H177.444V52.8645H172.938V56.4673H172.216Z" fill="#F5B335"/>
<path d="M188.327 52.5423C188.343 53.2776 188.188 54.0068 187.873 54.6731C187.62 55.2476 187.201 55.7352 186.669 56.075C186.136 56.4044 185.519 56.5791 184.891 56.5791C184.262 56.5791 183.646 56.4044 183.112 56.075C182.58 55.7352 182.161 55.2476 181.908 54.6731C181.626 54.0072 181.48 53.2924 181.48 52.5703C181.48 51.8483 181.626 51.1334 181.908 50.4675C182.169 49.8982 182.587 49.4126 183.112 49.0657C183.649 48.7454 184.264 48.5762 184.891 48.5762C185.517 48.5762 186.132 48.7454 186.669 49.0657C187.195 49.4126 187.612 49.8982 187.873 50.4675C188.178 51.1172 188.333 51.826 188.327 52.5423ZM187.618 52.5423C187.631 51.926 187.511 51.314 187.264 50.7479C187.052 50.2787 186.714 49.8762 186.286 49.5843C185.862 49.3189 185.371 49.178 184.869 49.178C184.368 49.178 183.876 49.3189 183.452 49.5843C183.027 49.8724 182.689 50.2698 182.475 50.7339C182.223 51.3034 182.102 51.921 182.12 52.5423C182.102 53.1636 182.223 53.7812 182.475 54.3507C182.685 54.8171 183.024 55.2155 183.452 55.5002C183.873 55.774 184.366 55.9199 184.869 55.9199C185.373 55.9199 185.866 55.774 186.286 55.5002C186.715 55.2155 187.054 54.8171 187.264 54.3507C187.516 53.7812 187.637 53.1636 187.618 52.5423Z" fill="#F5B335"/>
<path d="M198.118 52.5408C198.139 53.2751 197.988 54.0042 197.678 54.6717C197.42 55.2471 196.996 55.7346 196.46 56.0735C195.929 56.4033 195.315 56.5782 194.689 56.5782C194.062 56.5782 193.448 56.4033 192.918 56.0735C192.381 55.7346 191.957 55.2471 191.699 54.6717C191.417 54.0058 191.271 53.2909 191.271 52.5689C191.271 51.8468 191.417 51.132 191.699 50.4661C191.97 49.8985 192.391 49.4141 192.918 49.0642C193.452 48.7437 194.064 48.5742 194.689 48.5742C195.313 48.5742 195.926 48.7437 196.46 49.0642C196.99 49.4103 197.412 49.8958 197.678 50.4661C197.979 51.1169 198.129 51.8256 198.118 52.5408ZM197.409 52.5408C197.429 51.9239 197.308 51.3105 197.055 50.7464C196.855 50.2742 196.52 49.8699 196.091 49.5829C195.668 49.3175 195.176 49.1766 194.675 49.1766C194.173 49.1766 193.681 49.3175 193.258 49.5829C192.832 49.8709 192.494 50.2684 192.28 50.7324C192.028 51.3019 191.907 51.9195 191.926 52.5408C191.907 53.1621 192.028 53.7797 192.28 54.3492C192.49 54.8116 192.823 55.2088 193.243 55.4988C193.665 55.7708 194.157 55.9157 194.66 55.9157C195.164 55.9157 195.656 55.7708 196.077 55.4988C196.506 55.214 196.845 54.8156 197.055 54.3492C197.307 53.7797 197.428 53.1621 197.409 52.5408Z" fill="#F5B335"/>
<path d="M201.419 56.4673V48.6309H202.142V55.8224H205.925V56.4673H201.419Z" fill="#F5B335"/>
<path d="M220.222 52.5419C220.236 53.2755 220.086 54.0032 219.783 54.6727C219.52 55.2451 219.097 55.7314 218.564 56.0746C218.039 56.4148 217.421 56.5907 216.793 56.5793C216.161 56.5909 215.539 56.4151 215.008 56.0746C214.476 55.7348 214.057 55.2472 213.803 54.6727C213.521 54.0068 213.376 53.292 213.376 52.5699C213.376 51.8479 213.521 51.133 213.803 50.4671C214.065 49.8978 214.482 49.4122 215.008 49.0653C215.544 48.7372 216.163 48.567 216.793 48.5746C217.419 48.5649 218.035 48.7354 218.564 49.0653C219.091 49.4152 219.512 49.8996 219.783 50.4671C220.077 51.1199 220.227 51.8273 220.222 52.5419ZM219.514 52.5419C219.534 51.925 219.413 51.3116 219.16 50.7475C218.948 50.2783 218.609 49.8758 218.182 49.584C217.758 49.3185 217.267 49.1776 216.765 49.1776C216.263 49.1776 215.772 49.3185 215.348 49.584C214.923 49.869 214.589 50.2677 214.384 50.7335C214.128 51.3019 214.002 51.9195 214.016 52.5419C214.003 53.1627 214.124 53.7792 214.37 54.3503C214.581 54.8167 214.919 55.2151 215.348 55.4998C215.769 55.7736 216.261 55.9195 216.765 55.9195C217.268 55.9195 217.761 55.7736 218.182 55.4998C218.61 55.2151 218.949 54.8167 219.16 54.3503C219.411 53.7808 219.532 53.1632 219.514 52.5419Z" fill="#F5B335"/>
<path d="M223.523 56.4673V48.6309H228.129V49.2617H224.274V52.2196H227.774V52.8645H224.274V56.4673H223.523Z" fill="#F5B335"/>
<path d="M236.078 56.4679V48.6314H238.629C239.12 48.6108 239.608 48.7171 240.046 48.9398C240.409 49.1403 240.705 49.4427 240.896 49.809C241.097 50.1893 241.199 50.6133 241.193 51.0426C241.199 51.4702 241.102 51.893 240.91 52.2763C240.718 52.6461 240.416 52.9493 240.046 53.1454C239.613 53.3822 239.122 53.494 238.629 53.4679H236.631V52.823H238.629C238.987 52.8364 239.343 52.7592 239.663 52.5987C239.929 52.4579 240.142 52.2369 240.272 51.9679C240.413 51.6797 240.481 51.3623 240.471 51.0426C240.481 50.7274 240.413 50.4146 240.272 50.1314C240.142 49.8624 239.929 49.6414 239.663 49.5006C239.34 49.3335 238.979 49.2514 238.614 49.2623H236.801V56.4679H236.078Z" fill="#F5B335"/>
<path d="M244.438 56.4673V48.6309H245.132V52.2196H249.638V48.6309H250.36V56.4673H249.638V52.8645H245.132V56.4673H244.438Z" fill="#F5B335"/>
<path d="M254.059 56.4673H253.294L256.128 48.6309H256.893L259.727 56.4673H258.962L256.482 49.5561L254.059 56.4673ZM254.598 53.4673H258.537V54.1122H254.598V53.4673Z" fill="#F5B335"/>
<path d="M262.745 56.466V48.6296H265.31C265.8 48.609 266.287 48.7102 266.727 48.924C267.092 49.1082 267.393 49.3962 267.591 49.7511C267.783 50.1294 267.88 50.5476 267.874 50.9707C267.881 51.3895 267.784 51.8035 267.591 52.1763C267.395 52.5276 267.099 52.8149 266.741 53.0034C266.3 53.2138 265.813 53.3149 265.324 53.2978H263.142V52.6389H265.296C265.651 52.6502 266.004 52.5832 266.33 52.4426C266.595 52.3152 266.812 52.1094 266.953 51.8539C267.09 51.5795 267.158 51.2766 267.152 50.9707C267.159 50.6587 267.085 50.35 266.939 50.0735C266.804 49.8149 266.591 49.6042 266.33 49.4707C266.007 49.3215 265.652 49.2495 265.296 49.2604H263.468V56.466H262.745ZM266.245 52.9333L268.2 56.466H267.364L265.423 52.9333H266.245Z" fill="#F5B335"/>
<path d="M271.176 48.6309H272.054L274.888 55.458H274.959L277.793 48.6309H278.629V56.4673H277.949V50.1449L275.271 56.4673H274.605L271.941 50.1449V56.4673H271.261L271.176 48.6309Z" fill="#F5B335"/>
<path d="M282.341 56.4673H281.576L284.41 48.6309H285.189L288.023 56.4673H287.272L284.778 49.5561L282.341 56.4673ZM282.894 53.4673H286.819V54.1122H282.894V53.4673Z" fill="#F5B335"/>
<path d="M296.879 51.0699H296.142C296.09 50.8083 295.995 50.5572 295.859 50.3269C295.714 50.1021 295.532 49.9031 295.32 49.7382C295.107 49.56 294.862 49.4222 294.598 49.3316C294.229 49.2063 293.837 49.164 293.45 49.2077C293.062 49.2513 292.69 49.3799 292.359 49.584C291.928 49.8596 291.588 50.2544 291.381 50.7195C291.115 51.2897 290.989 51.9142 291.013 52.5419C290.989 53.1786 291.115 53.8122 291.381 54.3924C291.592 54.851 291.931 55.2402 292.359 55.5139C292.78 55.7843 293.274 55.9213 293.776 55.9064C294.07 55.9043 294.361 55.857 294.64 55.7662C294.904 55.6756 295.149 55.5378 295.363 55.3597C295.575 55.1948 295.757 54.9957 295.901 54.7709C296.037 54.5356 296.133 54.2799 296.185 54.0139H296.922C296.853 54.3672 296.728 54.7077 296.553 55.0232C296.383 55.3362 296.152 55.6126 295.873 55.8363C295.6 56.0765 295.282 56.2621 294.938 56.383C294.565 56.5151 294.172 56.5816 293.776 56.5793C293.148 56.5907 292.531 56.4148 292.005 56.0746C291.47 55.7338 291.047 55.2468 290.786 54.6727C290.506 54.0063 290.362 53.2916 290.362 52.5699C290.362 51.8482 290.506 51.1336 290.786 50.4671C291.053 49.8968 291.475 49.4114 292.005 49.0653C292.535 48.7354 293.15 48.5649 293.776 48.5746C294.172 48.5723 294.565 48.6388 294.938 48.7709C295.282 48.8917 295.6 49.0774 295.873 49.3176C296.152 49.5413 296.383 49.8177 296.553 50.1307C296.706 50.427 296.816 50.7432 296.879 51.0699Z" fill="#F5B335"/>
<path d="M306.627 52.5408C306.648 53.2751 306.498 54.0042 306.188 54.6717C305.925 55.244 305.502 55.7303 304.97 56.0735C304.439 56.4033 303.825 56.5782 303.198 56.5782C302.572 56.5782 301.958 56.4033 301.427 56.0735C300.891 55.7346 300.467 55.2471 300.209 54.6717C299.927 54.0058 299.781 53.2909 299.781 52.5689C299.781 51.8468 299.927 51.132 300.209 50.4661C300.475 49.8958 300.897 49.4103 301.427 49.0642C301.961 48.7437 302.574 48.5742 303.198 48.5742C303.823 48.5742 304.436 48.7437 304.97 49.0642C305.496 49.4141 305.917 49.8985 306.188 50.4661C306.488 51.1169 306.638 51.8256 306.627 52.5408ZM305.919 52.5408C305.939 51.9239 305.818 51.3105 305.565 50.7464C305.353 50.2773 305.015 49.8748 304.587 49.5829C304.167 49.3116 303.672 49.1746 303.17 49.1904C302.669 49.1772 302.175 49.314 301.753 49.5829C301.333 49.8728 301 50.2701 300.79 50.7324C300.533 51.3008 300.407 51.9185 300.421 52.5408C300.407 53.1632 300.533 53.7808 300.79 54.3492C300.99 54.8176 301.325 55.2173 301.753 55.4988C302.175 55.7708 302.667 55.9157 303.17 55.9157C303.673 55.9157 304.166 55.7708 304.587 55.4988C305.015 55.2173 305.35 54.8176 305.551 54.3492C305.807 53.7808 305.933 53.1632 305.919 52.5408Z" fill="#F5B335"/>
<path d="M309.56 48.6309L312.04 55.5421H312.111L314.562 48.6309H315.327L312.494 56.4673H311.728L308.895 48.6309H309.56Z" fill="#F5B335"/>
<path d="M318.983 48.6309V56.4673H318.261V48.6309H318.983Z" fill="#F5B335"/>
<path d="M328.123 51.0706C328.055 50.8143 327.95 50.5689 327.811 50.3417C327.668 50.1157 327.492 49.9124 327.287 49.7389C327.077 49.5629 326.837 49.4253 326.579 49.3323C326.292 49.2337 325.99 49.1862 325.686 49.1921C325.184 49.1781 324.69 49.315 324.269 49.5847C323.852 49.8776 323.519 50.2741 323.305 50.7342C323.054 51.3037 322.933 51.9213 322.951 52.5426C322.938 53.1635 323.059 53.7799 323.305 54.351C323.516 54.8174 323.855 55.2158 324.283 55.5006C324.706 55.7682 325.198 55.9094 325.7 55.9071C326.151 55.9137 326.596 55.8024 326.99 55.5847C327.367 55.367 327.672 55.0456 327.868 54.6594C328.086 54.2244 328.193 53.743 328.18 53.2576L328.407 53.3277H325.899V52.6828H328.902V53.2716C328.923 53.8767 328.781 54.4764 328.492 55.0099C328.241 55.4864 327.851 55.8771 327.372 56.1314C326.869 56.4049 326.303 56.5449 325.728 56.5379C325.086 56.5535 324.455 56.3776 323.915 56.0333C323.375 55.6982 322.95 55.2096 322.696 54.6314C322.398 53.9607 322.253 53.2331 322.271 52.5006C322.265 51.9402 322.347 51.3823 322.512 50.8463C322.658 50.378 322.899 49.944 323.22 49.5706C323.513 49.2227 323.881 48.9448 324.297 48.7576C324.743 48.5635 325.227 48.4678 325.714 48.4772C326.12 48.4739 326.522 48.5403 326.905 48.6735C327.253 48.8009 327.575 48.991 327.854 49.2342C328.131 49.4602 328.361 49.7361 328.534 50.0473C328.711 50.3521 328.835 50.6837 328.902 51.0286L328.123 51.0706Z" fill="#F5B335"/>
<path d="M332.982 48.6309V56.4673H332.26V48.6309H332.982Z" fill="#F5B335"/>
<path d="M336.652 56.4673V48.6309H337.375V55.8224H341.158V56.4673H336.652Z" fill="#F5B335"/>
<path d="M344.842 56.4673H344.077L346.911 48.6309H347.676L350.51 56.4673H349.745L347.265 49.5561L344.842 56.4673ZM345.381 53.4673H349.32V54.1122H345.381V53.4673Z" fill="#F5B335"/>
<path d="M359.707 48.6309V56.4673H358.998L354.322 49.9066H354.237V56.4673H353.515V48.6309H354.223L358.913 55.2056H358.984V48.6309H359.707Z" fill="#F5B335"/>
<path d="M369.568 51.0699H368.845C368.788 50.8077 368.688 50.5566 368.548 50.3269C368.408 50.1024 368.231 49.9032 368.024 49.7382C367.81 49.56 367.565 49.4222 367.301 49.3316C366.932 49.2063 366.54 49.164 366.153 49.2077C365.765 49.2513 365.393 49.3799 365.062 49.584C364.63 49.8629 364.287 50.2564 364.07 50.7195C363.812 51.2922 363.686 51.9148 363.702 52.5419C363.685 53.1781 363.811 53.8101 364.07 54.3924C364.293 54.8479 364.635 55.2354 365.062 55.5139C365.482 55.786 365.977 55.9231 366.479 55.9064C366.773 55.9043 367.064 55.857 367.343 55.7662C367.607 55.6756 367.852 55.5378 368.066 55.3597C368.274 55.1946 368.451 54.9954 368.59 54.7709C368.731 54.5363 368.831 54.2806 368.888 54.0139H369.611C369.553 54.3681 369.433 54.7097 369.256 55.0232C369.077 55.3301 368.847 55.605 368.576 55.8363C368.303 56.0765 367.985 56.2621 367.641 56.383C367.268 56.5151 366.875 56.5816 366.479 56.5793C365.851 56.5907 365.234 56.4148 364.708 56.0746C364.173 55.7338 363.75 55.2468 363.489 54.6727C363.209 54.0063 363.065 53.2916 363.065 52.5699C363.065 51.8482 363.209 51.1336 363.489 50.4671C363.756 49.8968 364.178 49.4114 364.708 49.0653C365.238 48.7354 365.853 48.5649 366.479 48.5746C366.875 48.5723 367.268 48.6388 367.641 48.7709C367.985 48.8917 368.303 49.0774 368.576 49.3176C368.847 49.5489 369.077 49.8238 369.256 50.1307C369.41 50.4254 369.515 50.7425 369.568 51.0699Z" fill="#F5B335"/>
<path d="M372.827 56.4673V48.6309H377.432V49.2617H373.55V52.2196H377.177V52.8645H373.55V55.8224H377.503V56.4673H372.827Z" fill="#F5B335"/>
<path d="M387.436 56.5801C386.995 56.5862 386.558 56.4902 386.161 56.2997C385.812 56.1239 385.518 55.8574 385.311 55.5287C385.11 55.1988 385.007 54.8201 385.013 54.4352C385.005 54.1533 385.069 53.8738 385.198 53.6221C385.328 53.3674 385.506 53.1391 385.722 52.9492C385.988 52.7047 386.272 52.4798 386.572 52.2763L387.72 51.4212C387.956 51.2618 388.166 51.068 388.343 50.8464C388.491 50.6482 388.566 50.4058 388.556 50.1595C388.556 50.029 388.529 49.8997 388.478 49.7794C388.427 49.659 388.352 49.55 388.258 49.4586C388.159 49.3529 388.038 49.2694 387.904 49.2138C387.769 49.1582 387.624 49.1317 387.479 49.1362C387.268 49.1358 387.062 49.1941 386.884 49.3044C386.712 49.413 386.571 49.5624 386.473 49.739C386.372 49.9042 386.319 50.0929 386.317 50.2857C386.324 50.4714 386.372 50.6533 386.459 50.8184C386.569 51.0204 386.697 51.2127 386.841 51.3932L387.365 52.038L390.993 56.4679H390.157L386.997 52.6408L386.289 51.7717C386.101 51.5444 385.935 51.3003 385.793 51.0427C385.678 50.8017 385.62 50.5381 385.623 50.2717C385.613 49.9621 385.692 49.6561 385.849 49.3885C386.007 49.1251 386.232 48.9075 386.501 48.7577C386.8 48.6079 387.13 48.531 387.465 48.5334C387.795 48.5293 388.121 48.6064 388.414 48.7577C388.67 48.8972 388.885 49.1001 389.037 49.3464C389.189 49.5908 389.268 49.8727 389.264 50.1595C389.273 50.4924 389.179 50.82 388.995 51.0988C388.788 51.394 388.534 51.6543 388.244 51.8698L386.827 52.9352C386.504 53.1487 386.229 53.4254 386.019 53.7483C385.886 53.9389 385.808 54.1618 385.793 54.3932C385.793 54.6618 385.872 54.9245 386.019 55.1502C386.162 55.3873 386.368 55.5812 386.615 55.7109C386.889 55.8556 387.196 55.928 387.507 55.9212C387.825 55.9212 388.139 55.8543 388.428 55.7249C388.726 55.5954 388.996 55.4097 389.222 55.1782C389.454 54.9214 389.641 54.6275 389.774 54.3091C389.924 53.9531 390.005 53.5729 390.015 53.1876H390.695C390.691 53.5489 390.633 53.9077 390.525 54.253C390.434 54.5105 390.31 54.7554 390.157 54.982C390.047 55.1379 389.929 55.2877 389.803 55.4306L389.718 55.5427L389.633 55.6689C389.368 55.9538 389.037 56.1704 388.669 56.2997C388.283 56.4783 387.863 56.5738 387.436 56.5801Z" fill="#F5B335"/>
<path d="M398.389 48.6309H399.225L402.059 55.458H402.129L404.963 48.6309H405.799V56.4673H405.247V50.1449L402.413 56.4673H401.761L399.083 50.1449H399.012V56.4673H398.332L398.389 48.6309Z" fill="#F5B335"/>
<path d="M409.498 56.4673V48.6309H414.103V49.2617H410.221V52.2196H413.862V52.8645H410.221V55.8224H414.174V56.4673H409.498Z" fill="#F5B335"/>
<path d="M419.884 56.4668H417.561V48.6304H420.026C420.703 48.6118 421.373 48.7715 421.967 49.093C422.518 49.4194 422.949 49.9103 423.2 50.4948C423.511 51.1469 423.662 51.8628 423.639 52.5836C423.655 53.3129 423.505 54.0363 423.2 54.7004C422.926 55.2875 422.475 55.7769 421.911 56.1023C421.278 56.3932 420.58 56.5187 419.884 56.4668ZM418.283 55.8219H419.842C420.438 55.8435 421.03 55.7081 421.556 55.4294C422.012 55.1658 422.373 54.7691 422.591 54.2939C423.044 53.1639 423.044 51.9052 422.591 50.7752C422.385 50.3092 422.038 49.9175 421.599 49.6537C421.105 49.3831 420.548 49.2476 419.984 49.2612H418.283V55.8219Z" fill="#F5B335"/>
<path d="M427.664 48.6309V56.4673H426.927V48.6309H427.664Z" fill="#F5B335"/>
<path d="M437.525 51.0689H436.788C436.743 50.8056 436.647 50.5534 436.505 50.3259C436.361 50.1046 436.184 49.9061 435.981 49.7371C435.767 49.559 435.522 49.4212 435.258 49.3306C434.976 49.233 434.678 49.1855 434.38 49.1904C433.877 49.1727 433.382 49.3099 432.963 49.5829C432.527 49.8577 432.182 50.2524 431.971 50.7184C431.704 51.2886 431.578 51.9131 431.602 52.5409C431.578 53.1776 431.704 53.8111 431.971 54.3913C432.187 54.8509 432.531 55.24 432.963 55.5128C433.382 55.7858 433.877 55.923 434.38 55.9053C434.678 55.9033 434.974 55.856 435.258 55.7652C435.522 55.6746 435.767 55.5368 435.981 55.3586C436.184 55.1896 436.361 54.9911 436.505 54.7698C436.647 54.5374 436.743 54.2805 436.788 54.0128H437.525C437.462 54.3678 437.338 54.7094 437.157 55.0222C436.812 55.6714 436.237 56.1709 435.541 56.424C435.169 56.5562 434.775 56.6226 434.38 56.6203C433.751 56.6317 433.134 56.4558 432.608 56.1156C432.077 55.7707 431.655 55.2849 431.39 54.7138C431.11 54.0473 430.966 53.3327 430.966 52.611C430.966 51.8892 431.11 51.1746 431.39 50.5081C431.661 49.9406 432.082 49.4562 432.608 49.1063C433.138 48.7764 433.754 48.6059 434.38 48.6156C434.775 48.6133 435.169 48.6798 435.541 48.8119C436.237 49.065 436.812 49.5646 437.157 50.2138C437.322 50.4792 437.446 50.7674 437.525 51.0689Z" fill="#F5B335"/>
<path d="M440.784 56.4673H440.033L442.867 48.6309H443.646L446.48 56.4673H445.729L443.236 49.5561L440.784 56.4673ZM441.337 53.4673H445.262V54.1122H441.337V53.4673Z" fill="#F5B335"/>
<path d="M449.484 56.4673V48.6309H450.207V55.8224H453.976V56.4673H449.484Z" fill="#F5B335"/>
<path d="M461.783 56.4673H461.032L463.866 48.6309H464.759L467.593 56.4673H466.828L464.348 49.5561L461.783 56.4673ZM462.336 53.4673H466.275V54.1122H462.336V53.4673Z" fill="#F5B335"/>
<path d="M470.427 56.4673V48.6309H475.018V49.2617H471.149V52.2196H474.678V52.8645H471.178V56.4673H470.427Z" fill="#F5B335"/>
<path d="M478.418 56.4673V48.6309H483.009V49.2617H479.141V52.2196H482.655V52.8645H479.141V56.4673H478.418Z" fill="#F5B335"/>
<path d="M485.39 56.4673H484.597L487.431 48.6309H488.196L491.03 56.4673H490.264L487.785 49.5561L485.39 56.4673ZM485.929 53.4673H489.868V54.1122H485.929V53.4673Z" fill="#F5B335"/>
<path d="M494.798 48.6309V56.4673H494.075V48.6309H494.798Z" fill="#F5B335"/>
<path d="M498.454 56.4676V48.6311H501.019C501.508 48.6123 501.995 48.7135 502.436 48.9255C502.801 49.1098 503.102 49.3978 503.3 49.7526C503.492 50.1309 503.589 50.5491 503.583 50.9722C503.59 51.391 503.493 51.8051 503.3 52.1779C503.104 52.5291 502.808 52.8164 502.45 53.005C502.009 53.2154 501.522 53.3164 501.033 53.2993H498.851V52.6405H501.005C501.36 52.65 501.713 52.583 502.039 52.4442C502.301 52.3131 502.518 52.1082 502.662 51.8554C502.799 51.581 502.867 51.2781 502.861 50.9722C502.868 50.6602 502.794 50.3516 502.648 50.075C502.513 49.8164 502.3 49.6057 502.039 49.4722C501.711 49.3214 501.352 49.2494 500.99 49.262H499.177V56.4676H498.454ZM501.954 52.9349L503.909 56.4676H503.017L501.075 52.9349H501.954Z" fill="#F5B335"/>
<path d="M511.192 50.5793C511.178 50.3748 511.119 50.176 511.018 49.9968C510.918 49.8176 510.779 49.6623 510.612 49.5419C510.23 49.2799 509.772 49.1471 509.308 49.1634C508.973 49.1549 508.639 49.217 508.33 49.3456C508.066 49.4579 507.837 49.6368 507.664 49.8643C507.511 50.0874 507.432 50.3519 507.438 50.6213C507.434 50.8066 507.478 50.9898 507.565 51.154C507.652 51.3175 507.779 51.4571 507.934 51.5606C508.09 51.6756 508.262 51.7699 508.444 51.8409C508.628 51.9232 508.817 51.9935 509.01 52.0512L509.846 52.2895C510.107 52.3546 510.363 52.4389 510.612 52.5419C510.855 52.6553 511.088 52.7914 511.306 52.9484C511.512 53.1126 511.681 53.318 511.802 53.5512C511.947 53.8075 512.016 54.0991 512 54.3923C512.001 54.7892 511.888 55.1782 511.674 55.5138C511.437 55.8607 511.109 56.137 510.725 56.3129C510.28 56.5114 509.796 56.6118 509.308 56.6073C508.822 56.6156 508.34 56.5249 507.891 56.3409C507.517 56.1814 507.194 55.9247 506.956 55.5979C506.725 55.2775 506.592 54.8978 506.573 54.5045H507.268C507.288 54.7916 507.396 55.0657 507.579 55.2895C507.765 55.5143 508.011 55.684 508.288 55.7802C508.595 55.8962 508.922 55.9533 509.251 55.9484C509.611 55.9536 509.967 55.8869 510.3 55.7521C510.591 55.6398 510.846 55.4507 511.037 55.2054C511.213 54.9649 511.307 54.6753 511.306 54.3783C511.314 54.1367 511.239 53.8994 511.093 53.7054C510.938 53.5125 510.739 53.3587 510.512 53.2568C510.234 53.1208 509.945 53.0082 509.648 52.9204L508.699 52.654C508.172 52.5105 507.686 52.2463 507.282 51.883C507.113 51.7247 506.981 51.5329 506.893 51.3202C506.805 51.1076 506.764 50.879 506.772 50.6493C506.764 50.2496 506.883 49.8576 507.112 49.5279C507.354 49.2048 507.676 48.949 508.047 48.7849C508.46 48.5987 508.911 48.5076 509.365 48.5185C509.814 48.5073 510.26 48.5984 510.668 48.7849C511.028 48.948 511.34 49.1988 511.575 49.5138C511.797 49.8266 511.92 50.1973 511.929 50.5793H511.192Z" fill="#F5B335"/>
</g>
<defs>
<linearGradient id="paint0_linear_402_2370" x1="34.6585" y1="63.294" x2="58.8393" y2="38.8531" gradientUnits="userSpaceOnUse">
<stop offset="0.3" stop-color="#F5B335"/>
<stop offset="0.47" stop-color="#F5EA61"/>
<stop offset="1" stop-color="#F5EA61"/>
</linearGradient>
<linearGradient id="paint1_linear_402_2370" x1="11.7042" y1="21.5885" x2="37.4831" y2="-4.46764" gradientUnits="userSpaceOnUse">
<stop offset="0.3" stop-color="#F5B335"/>
<stop offset="0.47" stop-color="#F5EA61"/>
<stop offset="1" stop-color="#F5EA61"/>
</linearGradient>
<linearGradient id="paint2_linear_402_2370" x1="3.69823" y1="53.7757" x2="51.7517" y2="5.21951" gradientUnits="userSpaceOnUse">
<stop offset="0.3" stop-color="#F5B335"/>
<stop offset="0.47" stop-color="#F5EA61"/>
<stop offset="1" stop-color="#F5EA61"/>
</linearGradient>
<linearGradient id="paint3_linear_402_2370" x1="20.2762" y1="60.4065" x2="61.5871" y2="18.6654" gradientUnits="userSpaceOnUse">
<stop offset="0.3" stop-color="#F5B335"/>
<stop offset="0.47" stop-color="#F5EA61"/>
<stop offset="1" stop-color="#F5EA61"/>
</linearGradient>
<linearGradient id="paint4_linear_402_2370" x1="4.43481" y1="38.7466" x2="43.5165" y2="-0.769627" gradientUnits="userSpaceOnUse">
<stop offset="0.3" stop-color="#F5B335"/>
<stop offset="0.47" stop-color="#F5EA61"/>
<stop offset="1" stop-color="#F5EA61"/>
</linearGradient>
<clipPath id="clip0_402_2370">
<rect width="512" height="60" fill="white"/>
</clipPath>
</defs>
</svg>
