<svg width="154" height="46" viewBox="0 0 154 46" fill="none" xmlns="http://www.w3.org/2000/svg">
<path d="M46.4993 20.5727H32.4576L44.6177 13.8161L42.2063 9.79465L30.0446 16.5513L37.0639 4.84914L32.8861 2.52793L25.8653 14.2271V0.716797H21.0393V14.2286L14.0184 2.52793L9.8391 4.84914L16.8584 16.5483L4.6998 9.79465L2.28682 13.8161L14.447 20.5727H0.405273V25.2166H14.4454L2.28682 31.9733L4.69827 35.9947L16.86 29.2381L9.8391 40.9402L14.0169 43.2615L21.0393 31.5608V45.0711H25.8653V31.271L33.0151 43.1875L36.9333 41.0112L29.7819 29.0917L42.2032 35.9933L44.6162 31.9718L32.4576 25.2152H46.4977V20.5727H46.4993ZM23.4523 29.2071C22.5908 29.2071 21.7377 29.0439 20.9418 28.7267C20.1458 28.4094 19.4226 27.9444 18.8134 27.3581C18.2041 26.7718 17.7209 26.0757 17.3911 25.3096C17.0613 24.5436 16.8915 23.7225 16.8914 22.8932C16.8913 22.064 17.0609 21.2428 17.3905 20.4767C17.7201 19.7105 18.2032 19.0143 18.8123 18.4279C19.4214 17.8415 20.1445 17.3763 20.9404 17.0589C21.7362 16.7414 22.5893 16.578 23.4507 16.5779C25.1906 16.5777 26.8592 17.2428 28.0896 18.4269C29.32 19.6109 30.0114 21.217 30.0116 22.8917C30.0118 24.5665 29.3208 26.1727 28.0907 27.357C26.8606 28.5414 25.1921 29.2069 23.4523 29.2071Z" fill="white"/>
<path d="M58.9393 39.1205V6.67383H65.1262V39.1205H58.9393ZM118.278 17.0705H124.185V19.7613C125.442 17.6101 128.374 16.4436 130.885 16.4436C134.003 16.4436 136.514 17.7447 137.677 20.1176C139.489 17.4268 141.91 16.4436 144.934 16.4436C149.167 16.4436 153.213 18.9082 153.213 24.8236V39.1205H147.214V26.0345C147.214 23.6586 146.003 21.8652 143.165 21.8652C140.512 21.8652 138.93 23.8389 138.93 26.2149V39.122H132.793V26.0345C132.793 23.6586 131.536 21.8652 128.744 21.8652C126.045 21.8652 124.463 23.7946 124.463 26.2149V39.122H118.278V17.0705ZM79.1079 39.7592C72.1378 39.7592 67.0906 34.7812 67.0906 28.0955C67.0906 21.5163 72.1224 16.4214 79.1079 16.4214C86.1273 16.4214 91.1253 21.5636 91.1253 28.0955C91.1253 34.7338 86.075 39.7592 79.1079 39.7592ZM79.1079 21.8179C77.3791 21.8202 75.7218 22.4827 74.4997 23.6598C73.2776 24.837 72.5906 26.4328 72.5894 28.097C72.5906 29.7612 73.2776 31.3569 74.4997 32.5341C75.7218 33.7113 77.3791 34.3737 79.1079 34.3761C80.8366 34.3733 82.4935 33.7107 83.7152 32.5336C84.937 31.3564 85.6238 29.7609 85.625 28.097C85.6238 26.433 84.937 24.8375 83.7152 23.6604C82.4935 22.4832 80.8366 21.8206 79.1079 21.8179ZM104.339 39.7592C97.3689 39.7592 92.3218 34.7812 92.3218 28.0955C92.3218 21.5163 97.3535 16.4214 104.339 16.4214C111.358 16.4214 116.356 21.5636 116.356 28.0955C116.356 34.7338 111.303 39.7592 104.339 39.7592ZM104.339 21.7425C102.59 21.7452 100.914 22.4154 99.678 23.6061C98.4419 24.7968 97.7468 26.4107 97.7452 28.094C97.7468 29.7773 98.4419 31.3912 99.678 32.5819C100.914 33.7726 102.59 34.4428 104.339 34.4455C106.088 34.4428 107.764 33.7726 109 32.5819C110.236 31.3912 110.931 29.7773 110.933 28.094C110.931 26.4107 110.236 24.7968 109 23.6061C107.764 22.4154 106.088 21.7452 104.339 21.7425Z" fill="white"/>
</svg>
