<svg width="41" height="41" viewBox="0 0 41 41" fill="none" xmlns="http://www.w3.org/2000/svg">
<path d="M34.4283 18.7823C34.381 18.1766 34.3015 17.5739 34.19 16.9766C33.5978 14.1227 32.1136 11.531 29.9518 9.57593C27.79 7.6209 25.0626 6.40384 22.1637 6.10063C19.8312 5.84906 17.4731 6.19957 15.3146 7.11869C13.1561 8.03782 11.2693 9.49487 9.83416 11.3508C8.39906 13.2066 7.46361 15.3994 7.11714 17.7197C6.77066 20.04 7.02472 22.4104 7.85506 24.6046C7.92635 24.7891 8.01521 24.9717 8.10506 25.1553C8.29341 25.4723 8.41287 25.8253 8.45564 26.1915C8.42399 26.5821 8.31582 26.9627 8.13728 27.3116C8.05721 27.501 7.9781 27.6915 7.91463 27.8809C7.78474 28.2706 7.65355 28.6599 7.52107 29.0489C7.19392 30.0108 6.85607 31.005 6.56307 31.9972C6.49822 32.2134 6.48236 32.4414 6.51666 32.6645C6.55095 32.8877 6.63453 33.1004 6.76132 33.2872C6.89231 33.4799 7.06455 33.6411 7.26555 33.759C7.46656 33.8769 7.69128 33.9485 7.92343 33.9688C7.9703 33.9727 8.0162 33.9747 8.06307 33.9747C8.36634 33.9626 8.66615 33.9057 8.95272 33.8057C9.78085 33.5489 10.6083 33.2885 11.4351 33.0245C12.4322 32.7081 13.4293 32.3917 14.4283 32.085C14.5904 32.0381 14.7632 32.0443 14.9215 32.1026C16.9921 33.0801 19.2774 33.5143 21.5622 33.3643C23.847 33.2143 26.056 32.485 27.981 31.2452C32.106 28.6846 34.2994 24.7335 34.5006 19.503L34.5016 19.4835L34.4986 19.4629C34.4732 19.251 34.4517 19.0225 34.4283 18.7823ZM31.1744 20.2149C31.1149 22.1367 30.504 24.0009 29.4146 25.5852C28.3251 27.1695 26.8031 28.4071 25.0299 29.1505C23.6221 29.8266 22.0761 30.1654 20.5145 30.14C18.953 30.1146 17.4188 29.7256 16.0338 29.004C15.6315 28.7948 15.1863 28.6815 14.733 28.6729C14.4195 28.6754 14.1088 28.7326 13.815 28.8419C13.0718 29.1075 12.3023 29.3439 11.5572 29.5724C11.2672 29.6613 10.9761 29.7511 10.6861 29.8419L10.9136 29.1642C11.1919 28.3292 11.4634 27.5196 11.7496 26.7159C11.8644 26.4184 11.9106 26.0987 11.8845 25.7808C11.8585 25.4628 11.7609 25.1549 11.5992 24.88C10.6017 23.2223 10.1037 21.312 10.1651 19.3784C10.2264 17.4447 10.8444 15.5698 11.9449 13.9786C12.7194 12.7338 13.7629 11.6782 14.9987 10.8894C16.2345 10.1005 17.6313 9.59848 19.0865 9.42004C20.8635 9.11005 22.691 9.27672 24.3826 9.90305C26.0743 10.5294 27.5696 11.593 28.7164 12.9855C29.5977 13.959 30.2705 15.1026 30.6932 16.3459C31.1159 17.5892 31.2797 18.9059 31.1744 20.2149Z" fill="#F5B335"/>
<path d="M26.8113 21.8311C26.0223 21.4541 25.2322 21.0804 24.4412 20.71C24.2145 20.5917 23.9517 20.5624 23.7045 20.628C23.4573 20.6936 23.2435 20.8493 23.1053 21.0645C22.9949 21.2119 22.8777 21.3526 22.7606 21.4942C22.6199 21.6641 22.4793 21.834 22.3484 22.0127C22.3292 22.0432 22.304 22.0695 22.2742 22.0899C22.2732 22.0948 22.2264 22.0957 22.1092 22.0469C20.5382 21.4111 19.2302 20.2598 18.4002 18.7822C18.617 18.5478 18.8192 18.2978 19.0145 18.0449C19.1822 17.8398 19.2871 17.5906 19.3165 17.3272C19.346 17.0639 19.2987 16.7977 19.1805 16.5605C18.9041 15.9502 18.6473 15.3301 18.4031 14.7051C18.3359 14.4604 18.2039 14.2383 18.021 14.0623C17.8381 13.8863 17.6112 13.7629 17.3641 13.7051L17.3162 13.4102L16.743 13.6299C16.6492 13.666 16.5506 13.6953 16.452 13.7256C16.1513 13.7986 15.8671 13.9274 15.6141 14.1055C14.9988 14.5953 14.5701 15.2812 14.3992 16.0488C14.1421 17.1593 14.3311 18.3263 14.9256 19.2988C15.7244 20.8592 16.8429 22.2337 18.2084 23.333C19.5738 24.4322 21.1555 25.2315 22.8504 25.6787C23.2228 25.7763 23.606 25.8269 23.991 25.8291C24.3906 25.8297 24.7879 25.7684 25.1688 25.6475C25.7718 25.49 26.3096 25.1458 26.7052 24.6641C27.1007 24.1825 27.3338 23.588 27.3709 22.9658C27.4185 22.7413 27.3892 22.5074 27.2877 22.3015C27.1862 22.0957 27.0184 21.93 26.8113 21.8311Z" fill="#F5B335"/>
<path d="M36.5398 0.0655403C36.4777 0.0492417 36.4171 0.0273036 36.359 0H4.6405C3.87512 0.130649 3.14581 0.420943 2.5 0.852C1.98895 1.2082 1.55475 1.66352 1.2232 2.19089C0.891658 2.71826 0.669545 3.30692 0.57007 3.92186C0.552111 3.9964 0.528691 4.06951 0.5 4.14061L0.5 35.8587C0.63727 36.6812 0.963305 37.4606 1.45251 38.1358C1.87199 38.6949 2.412 39.1523 3.03246 39.4741C3.65292 39.7959 4.33788 39.9738 5.03651 39.9946C5.14051 39.9997 5.24476 39.9992 5.34889 39.9992C15.4489 40.0005 25.5489 40.0002 35.6491 39.9985C36.6522 40.0358 37.6404 39.7476 38.4662 39.1769C39.292 38.6061 39.9109 37.7836 40.2306 36.832C40.4005 36.3137 40.4876 35.7718 40.4887 35.2263C40.4999 25.0742 40.5028 14.9222 40.4973 4.7703C40.5213 3.6393 40.1329 2.53821 39.4047 1.6725C38.6765 0.806792 37.6582 0.235611 36.5398 0.0655403ZM37.3745 35.0481C37.4108 35.2956 37.3889 35.5482 37.3105 35.7857C37.2321 36.0233 37.0993 36.2393 36.9228 36.4166C36.7463 36.5938 36.5309 36.7275 36.2936 36.8069C36.0564 36.8863 35.8039 36.9093 35.5563 36.874C32.8221 36.8742 30.0879 36.8744 27.3536 36.8744H26.922L22.037 36.8576C21.9049 36.8633 21.7787 36.8736 21.6525 36.8736C16.2491 36.8745 10.8458 36.8746 5.44248 36.874C5.19479 36.9092 4.94231 36.8862 4.70509 36.8067C4.46788 36.7272 4.25249 36.5935 4.07604 36.4161C3.89958 36.2388 3.76694 36.0227 3.68866 35.7851C3.61038 35.5475 3.58862 35.2949 3.6251 35.0474C3.62486 25.022 3.62486 14.9966 3.6251 4.97142C3.58596 4.72083 3.60639 4.46455 3.68473 4.22333C3.76306 3.9821 3.89711 3.76272 4.07601 3.58294C4.25491 3.40316 4.47363 3.26804 4.71447 3.18852C4.95531 3.109 5.21148 3.08732 5.46226 3.12523C15.4876 3.12474 25.5129 3.12474 35.5381 3.12523C35.7889 3.0874 36.0451 3.10917 36.2859 3.18878C36.5267 3.26839 36.7454 3.4036 36.9242 3.58347C37.1031 3.76333 37.237 3.98279 37.3152 4.22407C37.3935 4.46534 37.4138 4.72165 37.3745 4.97223C37.3749 14.9975 37.3749 25.0228 37.3745 35.0481Z" fill="#F5B335"/>
</svg>
