<svg width="120" height="120" viewBox="0 0 120 120" fill="none" xmlns="http://www.w3.org/2000/svg">
<path d="M66.3368 41.8779C62.0291 41.3265 53.3929 41.547 53.3101 46.8406C53.2066 53.4575 68.3011 54.8015 67.6808 60.7979C67.0605 66.7944 55.1704 67.9317 55.1704 71.3435C55.1704 74.7552 67.7848 77.5467 66.3368 81.889C65.7729 83.0939 64.1086 85.8104 61.9619 87.0371" stroke="#F1B434" stroke-width="2"/>
<path d="M60.1893 22.6621H50.2965V39.2565L35.2977 31.2784L24.7666 50.1067L38.808 58.4039L24.7666 67.3394L35.2977 86.4868L50.2965 77.8704V95.1031H60.1893" stroke="#F1B434" stroke-width="2"/>
<path d="M9.12891 19.1514C30.3187 18.3855 51.9978 7.13108 60.1886 1.59961C69.7772 7.85582 93.3375 20.1259 110.871 19.1568L104.263 94.0473C102.464 97.7383 97.1041 104.73 85.6502 110.102C75.4204 114.899 64.4832 117.293 60.5077 118.399C57.2101 117.441 48.0619 115.527 35.6161 110.102C23.9193 105.003 17.6389 97.0175 16.1496 93.188L9.12891 19.1514Z" stroke="#F1B434" stroke-width="2"/>
<path d="M60.1779 22.6621H70.0707V39.2565L85.0695 31.2784L95.6006 50.1067L81.5592 58.4039L95.6006 67.3394L85.0695 86.4868L70.0707 77.8704V95.1031H60.1779" stroke="#F1B434" stroke-width="2"/>
<line x1="61" y1="31.1582" x2="61" y2="87.777" stroke="#F1B434" stroke-width="2"/>
</svg>
