<svg width="40" height="40" viewBox="0 0 40 40" fill="none" xmlns="http://www.w3.org/2000/svg">
<path d="M0 35.8587V4.14055C0.0286789 4.06944 0.0521094 3.99633 0.0700958 3.92179C0.288799 2.63113 0.949771 1.61982 2.00002 0.852073C2.64056 0.38383 3.38074 0.167622 4.14059 0H35.8591C35.9172 0.0272448 35.9777 0.0491756 36.0398 0.0655241C38.3911 0.471423 39.9959 2.36111 39.9973 4.77015C40.0028 14.9222 39.9999 25.0742 39.9887 35.2262C39.9877 35.7717 39.9006 36.3137 39.7306 36.832C39.0763 38.7939 37.3066 39.9981 35.1491 39.9984C25.049 40.0003 14.9489 40.0005 4.84887 39.9991C4.74476 39.9991 4.64049 39.9997 4.53657 39.9945C3.0593 39.9202 1.86462 39.3006 0.952527 38.1358C0.423998 37.4642 0.176265 36.6768 0 35.8587ZM26.422 36.8743H26.8537C29.5879 36.8743 32.3221 36.8742 35.0563 36.8741C36.2713 36.8737 36.8744 36.268 36.8745 35.048C36.8749 25.0227 36.8749 14.9975 36.8745 4.97221C36.8745 3.72451 36.2789 3.1252 35.0381 3.12515C25.0129 3.12479 14.9876 3.12479 4.96235 3.12515C3.72121 3.1252 3.12518 3.72437 3.12515 4.97141C3.12484 14.9967 3.12487 25.0219 3.12521 35.0472C3.12527 36.2679 3.72798 36.8739 4.9426 36.8741C10.3459 36.8747 15.7492 36.8746 21.1524 36.8736C21.2787 36.8736 21.405 36.8633 21.537 36.8575V24.1213H16.8969V19.2859H21.5634C21.5634 19.102 21.5629 18.9603 21.5635 18.8186C21.5678 17.738 21.5366 16.6559 21.5836 15.5772C21.6551 14.0442 22.2183 12.5751 23.19 11.3872C24.1617 10.1994 25.4901 9.35618 26.9785 8.98236C28.595 8.57584 30.2432 8.80031 31.878 8.76265C31.8971 8.76221 31.917 8.79297 31.9319 8.80531V13.5935C31.7851 13.5935 31.6576 13.5934 31.5302 13.5935C30.6058 13.5939 29.6811 13.58 28.757 13.5984C27.5331 13.6228 26.5528 14.396 26.4618 15.5667C26.3667 16.7915 26.4406 18.0293 26.4406 19.3016H32.0301C31.7609 20.9323 31.4988 22.5203 31.2303 24.1473H26.422V36.8743Z" fill="#F5B335"/>
</svg>
