<svg width="40" height="40" viewBox="0 0 40 40" fill="none" xmlns="http://www.w3.org/2000/svg">
<path d="M40 4.06231V35.9358C39.9682 36.0178 39.9412 36.1015 39.9191 36.1866C39.4714 38.3846 37.5971 39.9899 35.3917 39.9922C25.1343 40.0027 14.8769 40.0026 4.61943 39.992C2.10296 39.9891 0.0100998 37.8941 0.00745169 35.3809C-0.0033562 25.1234 -0.00240737 14.8658 0.0102985 4.60833C0.0123177 3.11443 0.673179 1.9065 1.83992 0.972661C2.49581 0.4477 3.27184 0.207192 4.06445 0H35.9377C36.0198 0.0312709 36.1036 0.0581416 36.1886 0.0804975C37.5703 0.371864 38.6558 1.1055 39.3446 2.33612C39.6419 2.86737 39.7862 3.4843 40 4.06231ZM36.8752 19.9904C36.8752 14.9788 36.8751 9.96718 36.875 4.95557C36.875 3.72818 36.279 3.12499 35.0662 3.12497C25.0171 3.12477 14.9679 3.12479 4.9187 3.12501C3.73193 3.12504 3.12718 3.73539 3.12715 4.93303C3.1269 14.9823 3.12692 25.0315 3.12719 35.0808C3.12723 36.2669 3.73894 36.8731 4.93522 36.8731C14.9844 36.8734 25.0336 36.8733 35.0828 36.8731C36.2685 36.873 36.8749 36.2609 36.875 35.0643C36.8754 30.0396 36.8755 25.015 36.8752 19.9904Z" fill="#F5B335"/>
<path d="M32.9551 33.0264H27.5781C27.5781 32.8761 27.5781 32.7259 27.5781 32.5758C27.5768 29.6727 27.5832 26.7697 27.5675 23.8667C27.5625 23.3075 27.5128 22.7495 27.419 22.1982C27.1132 20.3682 25.8925 19.506 24.0645 19.797C22.5799 20.0334 21.7142 20.8836 21.4224 22.4711C21.3134 23.0856 21.2583 23.7085 21.2578 24.3327C21.2406 27.0794 21.2503 29.8263 21.2503 32.5731C21.2503 32.7143 21.2503 32.8555 21.2503 33.0207H15.9581V15.4198H21.2454V17.6456C21.8909 16.7312 22.6872 16.0373 23.6991 15.6324C25.814 14.7861 27.9341 14.8578 29.985 15.8128C31.462 16.5006 32.2298 17.8104 32.5563 19.346C32.7874 20.3868 32.917 21.4476 32.9434 22.5134C32.9932 25.9365 32.9659 29.3606 32.9678 32.7844C32.9678 32.8592 32.9601 32.9341 32.9551 33.0264Z" fill="#F5B335"/>
<path d="M7.04995 33.0166V15.4107H12.4708V33.0166H7.04995Z" fill="#F5B335"/>
<path d="M9.83959 12.9667C9.20632 12.9658 8.58755 12.7772 8.06151 12.4246C7.53548 12.072 7.12581 11.5713 6.88431 10.9859C6.64282 10.4005 6.58034 9.75662 6.70478 9.1357C6.82923 8.51478 7.135 7.9447 7.58343 7.49756C8.03187 7.05042 8.60283 6.7463 9.22411 6.62366C9.84538 6.50101 10.4891 6.56536 11.0738 6.80855C11.6585 7.05175 12.158 7.46287 12.509 7.98993C12.8601 8.51699 13.0469 9.13631 13.046 9.76958C13.0427 10.6181 12.7035 11.4308 12.1026 12.0299C11.5018 12.6291 10.6881 12.9659 9.83959 12.9667Z" fill="#F5B335"/>
</svg>
