<svg width="39" height="40" viewBox="0 0 39 40" fill="none" xmlns="http://www.w3.org/2000/svg">
<path fill-rule="evenodd" clip-rule="evenodd" d="M3.06928 4.9475C3.4291 3.60643 4.38632 2.92683 5.07 2.92683H33.93C34.6137 2.92683 35.5709 3.60643 35.9307 4.9475L19.5 20.9088L3.06928 4.9475ZM2.925 8.98981V33.9024C2.925 36.0043 4.2126 37.0732 5.07 37.0732H33.93C34.7874 37.0732 36.075 36.0043 36.075 33.9024V8.98981L20.5452 24.0759C19.9631 24.6414 19.0369 24.6414 18.4548 24.0759L2.925 8.98981ZM5.07 0C1.95915 0 0 3.10189 0 6.09756V33.9024C0 36.8981 1.95915 40 5.07 40H33.93C37.0409 40 39 36.8981 39 33.9024V6.09756C39 3.10189 37.0409 0 33.93 0H5.07Z" fill="#F5B335"/>
</svg>
