<svg width="41" height="41" viewBox="0 0 41 41" fill="none" xmlns="http://www.w3.org/2000/svg">
<path d="M40.4194 15.1818C40.3033 12.9776 39.8506 10.7992 39.0745 8.71055C38.5467 7.19683 37.6635 5.80788 36.4872 4.64169C35.3109 3.47551 33.8702 2.56052 32.2666 1.96127C29.5656 0.975002 26.7184 0.366872 23.8205 0.157237L21.9368 0.00195312L18.867 0.00482882L18.6613 0.0287986C18.5193 0.0460448 18.3763 0.0642633 18.2332 0.0719294C15.3835 0.183104 12.5677 0.683872 9.87894 1.5577C7.2744 2.29336 5.01447 3.81074 3.46159 5.86646C2.40356 7.39047 1.65006 9.07549 1.2365 10.8424C0.66344 13.4772 0.423441 16.1639 0.521256 18.8493C0.496047 20.9104 0.740382 22.9669 1.24903 24.9745C2.46233 29.4817 5.10507 32.4197 9.31303 33.9822C9.32033 34.1787 9.3099 34.3761 9.3005 34.5736C9.28188 34.8407 9.28049 35.1086 9.29632 35.3759L9.33391 35.9098C9.35463 36.6062 9.45154 37.2989 9.62316 37.9775C9.73463 38.3773 9.9445 38.7484 10.2367 39.0622C10.5288 39.3759 10.8955 39.624 11.3084 39.7872C11.6742 39.929 12.0672 40.002 12.4643 40.002C13.005 39.9991 13.536 39.8701 14.0075 39.6272C14.5107 39.3752 14.9654 39.0491 15.3535 38.6619C16.2034 37.7963 17.0272 36.8856 17.8239 36.0057L18.1476 35.6482C18.1717 35.6113 18.2069 35.5816 18.2489 35.5627C18.291 35.5439 18.3381 35.5366 18.3846 35.5418H18.3951L19.6449 35.5523C20.9898 35.5667 22.3816 35.5792 23.7526 35.5245C26.0758 35.4331 28.3696 35.0131 30.5532 34.2794C33.0852 33.535 35.3276 32.1323 37.0086 30.2413C38.6895 28.3504 39.7369 26.0523 40.0237 23.6259C40.4714 20.8312 40.604 18.0015 40.4194 15.1818ZM36.461 23.8597C36.1459 26.0149 35.0201 28.0012 33.2784 29.475C31.9571 30.4907 30.3798 31.1867 28.6904 31.4995C25.0992 32.3323 21.3814 32.607 17.6913 32.3124C17.3565 32.2896 17.021 32.347 16.7176 32.4789C16.4141 32.6108 16.1532 32.8127 15.9601 33.0648C15.1373 33.9668 14.3104 34.8657 13.4792 35.7613L12.812 36.4831C12.8089 36.4447 12.8068 36.4054 12.8068 36.3661C12.7985 35.3347 12.7984 34.3033 12.8183 33.2728C12.8423 31.998 12.5155 31.5676 11.2312 31.1784C9.63334 30.7105 8.19669 29.8669 7.06394 28.7315C5.93119 27.5961 5.14177 26.2084 4.77413 24.7061C4.19844 22.7123 3.93475 20.6535 3.99101 18.5915C3.90096 16.1303 4.13729 13.6682 4.69477 11.2594C5.00835 10.0276 5.53276 8.84925 6.24847 7.76828C7.2886 6.33214 8.81408 5.24966 10.5901 4.68746C12.7957 3.89609 15.1214 3.4224 17.4846 3.28316C18.5371 3.20359 19.5607 3.16397 20.5555 3.16429C22.8851 3.15297 25.208 3.39396 27.4761 3.88226C28.631 4.14162 29.7652 4.47343 30.8706 4.87534C32.0173 5.28116 33.05 5.91835 33.8924 6.73981C34.7348 7.56126 35.3653 8.546 35.7374 9.62124C36.4374 11.4441 36.844 13.351 36.9445 15.2816C37.1495 18.1485 36.9872 21.0276 36.461 23.8597Z" fill="#F5B335"/>
<path d="M26.5298 19.7084C25.9678 19.4193 25.3187 19.3053 24.6801 19.3836C24.0414 19.4619 23.4477 19.7282 22.988 20.1427C22.745 20.3496 22.5192 20.573 22.3125 20.8108L22.1391 20.9996C21.8219 21.367 21.413 21.6588 20.9471 21.8505C20.4811 22.0422 19.9717 22.1281 19.4619 22.101C18.6932 22.0318 17.965 21.7519 17.3719 21.2977C16.7788 20.8435 16.3483 20.236 16.1363 19.5541C15.9317 19.0509 15.8981 18.5025 16.0399 17.9814C16.1818 17.4603 16.4924 16.991 16.9309 16.6353C17.0844 16.5011 17.2442 16.3736 17.4039 16.2461C17.5918 16.0966 17.7788 15.9461 17.9563 15.7889C18.5224 15.3582 18.9037 14.7571 19.0322 14.0925C19.1607 13.4279 19.0281 12.743 18.6579 12.1597C17.8356 10.6869 16.8063 9.3195 15.5965 8.09254C15.2647 7.73097 14.8287 7.4625 14.3384 7.31789C13.8481 7.17328 13.3233 7.15838 12.8242 7.2749C11.8038 7.49611 10.8601 7.94856 10.0792 8.5909C9.29834 9.23324 8.70528 10.045 8.35421 10.952C8.23686 11.2354 8.1508 11.5289 8.09735 11.8281C8.06915 11.9585 8.04096 12.0926 8.00546 12.2278L7.98145 12.3198L8.00859 12.4119C8.04096 12.5202 8.07019 12.6323 8.09947 12.7445C8.16434 13.0279 8.25481 13.3059 8.36992 13.5756C8.64349 14.167 8.93271 14.7517 9.22298 15.3355C9.4057 15.7046 9.58843 16.0727 9.76698 16.4427C11.4666 20.2234 14.3012 23.4832 17.9406 25.8424C20.0274 27.2288 22.2839 28.386 24.6639 29.2903C25.2365 29.5191 25.8505 29.6482 26.4745 29.6709C26.7628 29.672 27.0497 29.6332 27.3255 29.5558C28.4016 29.2801 29.3769 28.7434 30.149 28.0021C30.921 27.2608 31.4613 26.3422 31.713 25.3429C31.8668 24.8989 31.8847 24.4245 31.7647 23.9718C31.6446 23.519 31.3912 23.1053 31.0322 22.7759C29.7091 21.5502 28.191 20.5159 26.5298 19.7084ZM15.4273 13.6522C15.3219 13.7337 15.2133 13.8113 15.1057 13.888C14.971 13.9839 14.8373 14.0788 14.71 14.1814C14.1187 14.6406 13.6206 15.1923 13.2387 15.8109L13.1594 15.6528C12.8889 15.115 12.6185 14.5763 12.3554 14.0366C12.2625 13.8459 12.1768 13.6513 12.0912 13.4576C11.9565 13.1499 11.8208 12.8432 11.6589 12.548C11.5907 12.4345 11.5588 12.3056 11.5669 12.1762C11.575 12.0467 11.6229 11.9221 11.7049 11.8166C12.0888 11.2592 12.6168 10.7975 13.2419 10.4727C14.1133 11.4014 14.8713 12.4149 15.5025 13.495C15.5265 13.5362 15.5411 13.5631 15.4273 13.6522ZM26.8712 26.3043C26.7698 26.3783 26.6483 26.4253 26.5198 26.4403C26.3913 26.4553 26.2608 26.4378 26.1424 26.3896C24.8651 25.9377 23.6326 25.3855 22.4586 24.739L22.4994 24.7227C23.486 24.3399 24.3248 23.6941 24.9072 22.8688C24.9615 22.7922 25.0366 22.6858 25.0909 22.6206C25.1745 22.6638 25.2914 22.7375 25.3384 22.7672C25.9994 23.1842 26.6394 23.6271 27.2795 24.069C27.6301 24.2999 27.9616 24.5543 28.2714 24.8301C27.9341 25.4136 27.455 25.9181 26.8712 26.3043Z" fill="#F5B335"/>
<path d="M22.6616 6.54119C21.6702 6.36209 20.6617 6.27442 19.6513 6.27951H19.6398C19.4427 6.27804 19.2473 6.31369 19.0657 6.38426C18.8841 6.45483 18.7203 6.55882 18.5842 6.6898C18.4227 6.85337 18.2991 7.04539 18.221 7.25418C18.143 7.46298 18.112 7.68417 18.13 7.90431C18.1353 8.30124 18.3062 8.68117 18.6075 8.96593C18.9087 9.25069 19.3174 9.41861 19.7495 9.43514L20.0481 9.46102C20.8677 9.51064 21.6817 9.62091 22.482 9.79076C23.6359 10.0073 24.7186 10.4691 25.643 11.1391C26.5674 11.8092 27.3079 12.6688 27.8051 13.649C28.5036 15.075 28.7633 16.6493 28.5558 18.2012C28.5184 18.4137 28.5296 18.6311 28.5887 18.8394C28.6478 19.0478 28.7535 19.2425 28.8991 19.4113C29.0446 19.5801 29.2268 19.7192 29.4342 19.8198C29.6415 19.9204 29.8694 19.9803 30.1033 19.9957C30.1813 20.0033 30.2597 20.0071 30.3382 20.0072C30.7649 20.0159 31.1782 19.8707 31.4896 19.6027C31.801 19.3348 31.9855 18.9655 32.0036 18.5741C32.0433 18.2414 32.0663 17.9059 32.084 17.6529L32.1018 17.3931C32.1662 15.1761 31.5207 12.9904 30.2453 11.1068C29.3856 9.91261 28.2697 8.89182 26.9658 8.10682C25.6619 7.32182 24.1973 6.7891 22.6616 6.54119Z" fill="#F5B335"/>
<path d="M21.1217 14.691C21.6409 14.7508 22.1244 14.9652 22.498 15.3015C22.8716 15.6378 23.1148 16.0773 23.1902 16.5526C23.2126 16.658 23.2433 16.7618 23.2821 16.8632C23.389 17.1632 23.5977 17.4239 23.8776 17.6073C24.1575 17.7906 24.494 17.8869 24.8379 17.8821C25.0063 17.8816 25.174 17.8616 25.337 17.8227C25.7542 17.7431 26.1211 17.5171 26.3594 17.1929C26.5978 16.8686 26.6887 16.4717 26.6129 16.0867C26.5299 15.6194 26.3887 15.1624 26.1921 14.7246C25.8069 13.8805 25.1885 13.1432 24.398 12.5856C23.6075 12.028 22.6722 11.6694 21.6845 11.545L21.6208 11.5402H21.6136C21.3341 11.531 21.0558 11.5768 20.7973 11.6747C20.5388 11.7726 20.3062 11.9203 20.1152 12.1077C19.9568 12.2725 19.8391 12.4668 19.7703 12.6772C19.7014 12.8877 19.683 13.1094 19.7163 13.327C19.745 13.6677 19.9002 13.9891 20.156 14.2374C20.4118 14.4857 20.7527 14.6458 21.1217 14.691Z" fill="#F5B335"/>
</svg>
