<svg width="255" height="50" viewBox="0 0 255 50" fill="none" xmlns="http://www.w3.org/2000/svg">
<path d="M66.9648 16.8438L57.4766 39.6582H64.9392L66.4318 35.7137H74.6407L76.1333 39.6582H83.7026L74.1077 16.8438H66.9648ZM68.4574 30.0634L70.5896 24.3064L72.7218 30.0634H68.4574Z" fill="#F1F0E7"/>
<path d="M102.038 27.7179C104.064 26.6519 105.023 24.9461 105.023 22.8139C105.023 19.4024 102.252 16.8438 96.2814 16.8438H84.7676V39.6582H96.9211C102.891 39.6582 106.09 37.3128 106.09 33.3683C106.09 30.5964 104.597 28.6774 102.038 27.7179ZM91.9104 22.1742H95.3219C96.9211 22.1742 97.6674 22.7073 97.6674 23.88C97.6674 24.9461 96.9211 25.5858 95.3219 25.5858H91.9104V22.1742ZM96.2814 34.2211H91.9104V30.5964H96.2814C97.8806 30.5964 98.7335 31.2361 98.7335 32.4088C98.7335 33.5815 97.9872 34.2211 96.2814 34.2211Z" fill="#F1F0E7"/>
<path d="M116.859 25.5859H109.076V30.8098H116.859V25.5859Z" fill="#F1F0E7"/>
<path d="M137.966 27.7179C139.992 26.6519 140.951 24.9461 140.951 22.8139C140.951 19.4024 138.179 16.8438 132.209 16.8438H120.695V39.6582H132.849C138.819 39.6582 142.017 37.3128 142.017 33.3683C142.017 30.5964 140.525 28.6774 137.966 27.7179ZM127.838 22.1742H131.25C132.849 22.1742 133.595 22.7073 133.595 23.88C133.595 24.9461 132.849 25.5858 131.25 25.5858H127.838V22.1742ZM132.209 34.2211H127.838V30.5964H132.209C133.808 30.5964 134.661 31.2361 134.661 32.4088C134.661 33.5815 133.808 34.2211 132.209 34.2211Z" fill="#F1F0E7"/>
<path d="M151.826 16.8438H144.576V24.0932L151.826 21.428V16.8438Z" fill="#F1F0E7"/>
<path d="M144.576 39.5512H151.826V23.4531L144.576 26.1184V39.5512Z" fill="#F1F0E7"/>
<path d="M166.751 16.3125C159.715 16.3125 154.598 21.3232 154.598 28.2528C154.598 35.1824 159.715 40.1931 166.751 40.1931C173.787 40.1931 178.905 35.1824 178.905 28.2528C178.905 21.3232 173.787 16.3125 166.751 16.3125ZM166.751 33.9031C164.086 33.9031 161.954 31.7709 161.954 28.2528C161.954 24.7347 164.086 22.6025 166.751 22.6025C169.416 22.6025 171.549 24.7347 171.549 28.2528C171.549 31.7709 169.416 33.9031 166.751 33.9031Z" fill="#F1F0E7"/>
<path d="M166.751 16.3125C159.715 16.3125 154.598 21.3232 154.598 28.2528C154.598 35.1824 159.715 40.1931 166.751 40.1931C173.787 40.1931 178.905 35.1824 178.905 28.2528C178.905 21.3232 173.787 16.3125 166.751 16.3125ZM166.751 33.9031C164.086 33.9031 161.954 31.7709 161.954 28.2528C161.954 24.7347 164.086 22.6025 166.751 22.6025C169.416 22.6025 171.549 24.7347 171.549 28.2528C171.549 31.7709 169.416 33.9031 166.751 33.9031Z" fill="#F1F0E7"/>
<path d="M179.65 22.7073H185.94V39.5516H193.296V22.7073H199.586V16.8438H179.65V22.7073Z" fill="#F1F0E7"/>
<path d="M209.929 16.8438H202.68V24.0932L209.929 21.428V16.8438Z" fill="#F1F0E7"/>
<path d="M202.68 39.5512H209.929V23.4531L202.68 26.1184V39.5512Z" fill="#F1F0E7"/>
<path d="M225.067 22.4931C226.986 22.4931 228.479 23.4526 229.758 25.1583L234.342 20.7873C232.21 17.9089 228.905 16.2031 224.641 16.2031C217.711 16.2031 212.594 21.1072 212.594 28.1434C212.594 35.1797 217.711 40.0837 224.641 40.0837C228.905 40.0837 232.21 38.4846 234.342 35.4995L229.758 31.1285C228.479 32.8343 226.986 33.7937 225.067 33.7937C222.082 33.7937 219.95 31.5549 219.95 28.1434C219.95 24.7319 221.975 22.4931 225.067 22.4931Z" fill="#F1F0E7"/>
<path d="M242.978 23.562C242.978 22.8157 243.618 22.176 245.75 22.176C247.669 22.176 249.695 22.7091 251.72 23.8818L253.959 18.3381C251.72 16.9522 248.735 16.3125 245.857 16.3125C239.14 16.3125 235.835 19.724 235.835 23.9884C235.835 32.5172 247.776 30.1718 247.776 33.0502C247.776 33.7965 247.029 34.3296 245.004 34.3296C242.658 34.3296 239.887 33.4767 237.861 32.1974L235.516 37.7411C237.648 39.127 241.273 40.0865 244.897 40.0865C251.614 40.0865 254.919 36.5684 254.919 32.4106C254.919 23.9884 242.978 26.3338 242.978 23.562Z" fill="#F1F0E7"/>
<path d="M50.4398 24.9467C50.4398 38.806 39.2458 50 25.3865 50C11.5272 50 0.226562 38.9126 0.226562 24.9467C0.333172 11.194 11.5272 0 25.4931 0C39.2458 0 50.4398 11.194 50.4398 24.9467Z" fill="#F1F0E7"/>
<path d="M25.4935 44.8815C14.5127 44.8815 5.66406 36.0329 5.66406 25.0521C5.66406 14.0713 14.5127 5.22266 25.4935 5.22266C36.4743 5.22266 45.3229 14.0713 45.3229 25.0521C45.3229 36.0329 36.2611 44.8815 25.4935 44.8815Z" fill="#151515"/>
<path d="M25.4937 5.86249C36.048 5.86249 44.5768 14.4979 44.5768 24.9456C44.5768 35.5 35.9414 44.0288 25.4937 44.0288C14.9393 44.0288 6.41051 35.3934 6.41051 24.9456C6.3039 14.4979 14.8327 5.86249 25.4937 5.86249ZM25.4937 4.47656C14.0864 4.47656 4.91797 13.645 4.91797 24.9456C4.91797 36.2463 14.0864 45.4147 25.3871 45.4147C36.6877 45.4147 45.8561 36.2463 45.8561 24.9456C45.9627 13.7516 36.7943 4.47656 25.4937 4.47656Z" fill="#F1F0E7"/>
<path d="M30.8242 21.3224C29.1184 21.3224 27.9457 21.962 26.773 23.0281V15.5654L25.1738 14.9258L23.5747 15.5654V21.8554C22.7218 21.5356 21.6557 21.2158 20.3764 21.2158C18.1376 21.2158 16.2186 21.7488 14.7261 22.8149L15.8988 25.1603C16.8583 24.3074 18.4574 23.7744 19.95 23.7744C22.1888 23.7744 23.2549 24.8405 23.2549 26.6529V26.8661H19.8433C15.7922 26.8661 14.4062 28.5718 14.4062 30.8106C14.4062 33.1561 16.3252 34.8618 19.4169 34.8618C21.3359 34.8618 22.8284 34.2222 23.5747 33.0494V34.6486H23.7879H26.5598H26.6664V32.9428C27.7325 34.1155 29.0118 34.7552 30.8242 34.7552C34.7687 34.7552 37.5406 32.09 37.5406 27.9322C37.5406 23.7744 34.5555 21.3224 30.8242 21.3224ZM23.3615 30.5974C22.8284 31.9834 21.5491 32.623 19.95 32.623C18.3508 32.623 17.3913 31.8767 17.3913 30.8106C17.3913 29.8512 18.031 29.1049 20.0566 29.1049H23.2549V30.5974H23.3615ZM30.3977 32.1966C28.1589 32.1966 26.773 30.5974 26.773 28.0388C26.773 25.4802 28.2655 23.881 30.3977 23.881C32.5299 23.881 34.3423 25.4802 34.3423 28.0388C34.3423 30.5974 32.6365 32.1966 30.3977 32.1966Z" fill="#F1F0E7"/>
<path d="M25.1741 13.4343L33.5963 16.4194L25.1741 10.4492L16.752 16.4194L25.1741 13.4343Z" fill="#F1F0E7"/>
</svg>
