<svg width="79" height="50" viewBox="0 0 79 50" fill="none" xmlns="http://www.w3.org/2000/svg">
<path d="M42.8455 42.4779C35.4663 44.2625 27.6895 43.2932 20.9741 39.752C14.917 36.6961 10.0318 31.7347 7.06991 25.6311C2.96965 17.3104 2.65462 8.74324 5.6738 0C3.62093 2.87267 2.10503 6.09323 1.19938 9.5059C-0.170469 14.4698 -0.321584 19.691 0.758883 24.7259C1.83935 29.7607 4.11946 34.4602 7.40539 38.425C10.6913 42.3897 14.8859 45.5025 19.6327 47.4988C24.3795 49.495 29.538 50.3157 34.67 49.891C47.7633 48.8216 57.625 39.8817 61.3227 30.4035C56.5669 36.5927 50.4643 40.7265 42.8455 42.4779Z" fill="#F1F0E7"/>
<path d="M37.1502 16.8347C37.2514 16.8437 37.3533 16.8429 37.4544 16.8325C37.9569 16.7427 38.0646 16.9622 38.0603 17.4422C38.0396 19.7461 38.0431 22.0502 38.0706 24.3545C38.0813 25.3638 38.1109 25.3621 37.1169 25.393C36.9453 25.3983 36.7317 25.3249 36.7221 25.6347C36.7131 25.9215 36.8584 25.9709 37.0983 25.9699C38.3844 25.9644 39.6706 25.9645 40.9567 25.9704C41.1895 25.9716 41.2901 25.9031 41.2892 25.6527C41.2883 25.4009 41.1512 25.399 40.9655 25.3887C39.9623 25.3326 39.9625 25.329 39.9625 24.3373C39.9625 23.2699 39.9665 22.2025 39.9604 21.1352C39.9517 20.7626 39.983 20.3901 40.0534 20.024C40.3042 18.83 40.7704 17.7486 41.8395 17.0666C43.1775 16.2129 44.3756 16.859 44.4203 18.4261C44.4275 18.6801 44.4293 18.9343 44.4294 19.1884C44.4301 20.9504 44.4303 22.7124 44.4298 24.4744C44.4298 25.3552 44.4299 25.3587 43.5463 25.3891C43.3478 25.3959 43.1855 25.3824 43.1882 25.6696C43.1907 25.9381 43.3231 25.9828 43.5376 25.9678C43.5881 25.9642 43.6391 25.9675 43.6898 25.9675C44.8406 25.9675 45.9915 25.9734 47.1421 25.9619C47.3438 25.9598 47.6466 26.0948 47.6642 25.6854C47.6826 25.2594 47.3731 25.4228 47.1729 25.3941C47.0721 25.379 46.9697 25.3789 46.869 25.394C46.4588 25.4597 46.3243 25.3177 46.3294 24.8805C46.3537 22.78 46.3448 20.679 46.3379 18.5781C46.3764 18.1795 46.3075 17.7778 46.1382 17.4149C45.9689 17.0519 45.7055 16.7409 45.3753 16.5143C44.6852 16.1103 43.8813 15.9448 43.0878 16.0434C42.2942 16.142 41.5552 16.4991 40.985 17.0596C40.6136 17.5122 40.2721 17.9884 39.9625 18.4852C39.9625 17.8807 39.9298 17.2739 39.9725 16.6724C40.0085 16.1671 39.9026 16.0007 39.3568 16.1268C38.6231 16.2569 37.8767 16.3013 37.1327 16.2592C36.943 16.2582 36.7179 16.1906 36.7093 16.5292C36.6999 16.8941 36.9372 16.831 37.1502 16.8347Z" fill="#F1F0E7"/>
<path d="M78.1152 24.2879C77.9177 24.2187 77.8075 24.3191 77.7384 24.5125C77.673 24.7042 77.5833 24.8867 77.4717 25.0557C77.4125 25.1698 77.3159 25.2601 77.1981 25.3116C77.0803 25.3632 76.9483 25.3727 76.8243 25.3387C76.5357 25.2575 76.4992 25.0235 76.4932 24.7772C76.4846 24.4215 76.4825 24.0657 76.4782 23.7099C76.4547 21.7789 76.526 19.8472 76.4358 17.9165C76.4439 17.5816 76.3439 17.2529 76.1507 16.9792C75.9575 16.7055 75.6813 16.5012 75.3629 16.3967C74.5778 16.0992 73.7398 15.9666 72.9011 16.0071C72.0624 16.0477 71.2411 16.2605 70.4883 16.6323C70.1685 16.7744 69.8885 16.9928 69.6728 17.2684C69.4571 17.5439 69.3123 17.8681 69.2511 18.2127C69.1995 18.4635 69.2335 18.7244 69.3477 18.9537C69.4619 19.1829 69.6498 19.3671 69.8811 19.4769C70.1032 19.5647 70.3488 19.5726 70.5761 19.4995C70.8034 19.4263 70.9983 19.2765 71.1275 19.0757C71.253 18.8431 71.2907 18.573 71.2339 18.3149C71.177 18.0567 71.0294 17.8275 70.8178 17.6691C70.4526 17.3582 70.4608 17.1518 70.8955 16.9228C71.5858 16.5902 72.356 16.4594 73.1174 16.5453C73.3138 16.5406 73.509 16.5769 73.6906 16.6518C73.8722 16.7267 74.0362 16.8386 74.1722 16.9803C74.3082 17.1221 74.4132 17.2906 74.4805 17.4751C74.5478 17.6597 74.576 17.8562 74.5632 18.0522C74.5807 18.6787 74.5509 19.3066 74.5737 19.9327C74.5855 20.2553 74.4582 20.3194 74.1628 20.335C73.538 20.3606 72.9153 20.4231 72.2978 20.5223C71.1156 20.7271 69.9837 21.0841 69.1591 22.0278C68.8133 22.3941 68.577 22.8501 68.4772 23.3439C68.3774 23.8377 68.4181 24.3496 68.5945 24.8215C68.925 25.7778 69.7178 26.1075 70.645 26.2274C71.3595 26.339 72.0905 26.2717 72.7726 26.0316C73.4547 25.7914 74.0666 25.3859 74.5536 24.8513C74.776 25.5134 75.0466 26.0453 75.7298 26.2146C75.9941 26.2758 76.2681 26.283 76.5353 26.2359C76.8025 26.1887 77.0575 26.0882 77.285 25.9402C77.5124 25.7923 77.7077 25.6 77.8592 25.3749C78.0106 25.1497 78.1151 24.8963 78.1663 24.6299C78.191 24.5146 78.3187 24.3592 78.1152 24.2879ZM73.4513 25.0048C73.0841 25.2194 72.6655 25.3304 72.2402 25.3257C71.8148 25.3211 71.3988 25.201 71.0364 24.9783C69.9948 24.3219 70.0083 22.5325 71.0358 21.7209C71.681 21.2503 72.4474 20.9741 73.2445 20.9252C74.5656 20.7793 74.5671 20.7931 74.5734 22.1122C74.5736 22.1629 74.5734 22.2136 74.5734 22.2644H74.5751C74.5751 22.5687 74.5711 22.8731 74.5759 23.1773C74.5986 23.5605 74.5028 23.9414 74.3016 24.2683C74.1005 24.5952 73.8036 24.8523 73.4513 25.0048Z" fill="#F1F0E7"/>
<path d="M17.8301 26.1587C18.3248 26.273 18.8347 26.3062 19.34 26.2572C20.4219 26.1608 21.4271 25.6584 22.1535 24.8509C22.2416 25.067 22.303 25.2406 22.3814 25.406C22.5057 25.6869 22.7144 25.922 22.9785 26.0788C23.2426 26.2356 23.5489 26.3062 23.855 26.2809C24.2894 26.2588 24.7054 26.0986 25.0425 25.8237C25.3796 25.5488 25.6202 25.1735 25.7293 24.7524C25.7671 24.6084 25.9631 24.387 25.6854 24.2862C25.4307 24.1937 25.3944 24.4295 25.3258 24.5994C25.2539 24.8263 25.1272 25.032 24.957 25.1983C24.8872 25.2729 24.7968 25.3251 24.6972 25.348C24.5977 25.3709 24.4936 25.3636 24.3982 25.3271C24.3108 25.293 24.2361 25.2326 24.1844 25.1543C24.1327 25.076 24.1066 24.9836 24.1096 24.8899C24.095 24.6196 24.0899 24.3485 24.0897 24.0778C24.0879 22.1816 24.096 20.2855 24.0855 18.3894C24.0779 17.0039 23.4994 16.3536 22.1239 16.1404C21.9903 16.1196 21.8575 16.0898 21.7232 16.0789C20.4628 15.9766 19.2126 15.9877 18.0765 16.643C17.3569 17.058 16.8124 17.6199 16.8766 18.544C16.8658 18.7754 16.9412 19.0026 17.0882 19.1817C17.2352 19.3607 17.4435 19.4789 17.6726 19.5133C17.8786 19.5709 18.0982 19.5554 18.2942 19.4695C18.4901 19.3835 18.6502 19.2324 18.7474 19.0418C18.8598 18.8221 18.8948 18.5708 18.8466 18.3287C18.7984 18.0867 18.67 17.8679 18.482 17.708C18.0582 17.341 18.089 17.0897 18.6233 16.8586C19.3582 16.5407 20.1694 16.4428 20.9588 16.5768C21.3101 16.614 21.6332 16.7867 21.8594 17.0581C22.0856 17.3296 22.1971 17.6784 22.1705 18.0308C22.1832 18.6738 22.1594 19.3178 22.1799 19.9605C22.1896 20.2613 22.0689 20.3174 21.7968 20.3337C21.1558 20.3618 20.5168 20.4259 19.883 20.5257C18.7323 20.6617 17.6565 21.1662 16.8161 21.9639C15.7257 23.0809 15.5677 25.6591 17.8301 26.1587ZM18.4217 21.9538C19.0406 21.3655 19.8432 21.0083 20.6946 20.9423C22.1801 20.6949 22.1819 20.7055 22.1819 22.2007V22.2515H22.1793C22.1793 22.5735 22.1738 22.8955 22.1803 23.2173C22.2022 23.611 22.0978 24.0013 21.8822 24.3314C21.6666 24.6615 21.3512 24.914 20.9819 25.0522C20.6076 25.2573 20.1831 25.3529 19.757 25.3282C19.3308 25.3036 18.9202 25.1596 18.572 24.9127C17.7161 24.2824 17.6519 22.7898 18.4217 21.9538Z" fill="#F1F0E7"/>
<path d="M52.8496 26.2521C53.9076 26.301 54.9496 25.9799 55.7966 25.344C56.3551 24.8849 56.817 24.3197 57.1556 23.681C57.4942 23.0423 57.7028 22.3427 57.7692 21.6229C57.8356 20.903 57.7586 20.1771 57.5427 19.4872C57.3267 18.7973 56.9761 18.1571 56.5111 17.6036C56.062 17.0831 55.5003 16.6718 54.8684 16.4009C54.2366 16.1301 53.5513 16.0069 52.8647 16.0406C52.1781 16.0744 51.5082 16.2642 50.906 16.5957C50.3037 16.9271 49.785 17.3916 49.3892 17.9536C48.743 18.8819 48.3941 19.9847 48.3887 21.1158C48.3834 22.2469 48.7219 23.3529 49.3593 24.2873C49.7444 24.8673 50.2616 25.3477 50.8683 25.6892C51.4749 26.0307 52.1539 26.2236 52.8496 26.2521ZM50.866 18.27C50.9394 17.7852 51.1849 17.3431 51.5576 17.0246C51.9303 16.7061 52.4053 16.5325 52.8955 16.5356C54.4382 16.4746 55.3038 17.3167 55.4826 19.0781C55.5632 19.7118 55.5965 20.3507 55.5821 20.9893C55.6153 21.9241 55.5473 22.8597 55.3794 23.7798C55.0524 25.3281 53.9193 26.0588 52.4282 25.6982C52.0362 25.6085 51.6797 25.4042 51.4041 25.1113C51.1286 24.8183 50.9465 24.45 50.881 24.0532C50.4516 22.1499 50.4465 20.1754 50.866 18.27Z" fill="#F1F0E7"/>
<path d="M31.6555 26.2802C33.7095 26.1748 35.133 25.1126 35.6171 23.3172C35.6503 23.1939 35.8122 23.0176 35.5565 22.9509C35.3698 22.9023 35.1789 22.9079 35.1298 23.1663C35.1177 23.2156 35.1014 23.2638 35.0813 23.3105C34.9013 23.8149 34.6144 24.2745 34.2404 24.6578C33.8663 25.0411 33.4139 25.3391 32.914 25.5314C31.0354 26.3017 29.318 25.3268 28.9803 23.3328C28.8886 22.5086 28.8471 21.6795 28.8563 20.8502C28.84 20.5008 28.94 20.3807 29.3037 20.3894C30.3015 20.4132 31.3002 20.3976 32.2986 20.3976C33.3308 20.3975 34.3631 20.3897 35.3951 20.4025C35.6853 20.4061 35.7589 20.3312 35.7354 20.0251C35.4636 16.4743 31.9447 15.3732 29.6492 16.3965C27.5645 17.3258 26.6984 19.1108 26.5732 21.2749C26.5501 21.945 26.6663 22.6126 26.9146 23.2355C27.1628 23.8583 27.5377 24.4229 28.0154 24.8934C28.4931 25.3639 29.0633 25.7301 29.6899 25.9688C30.3165 26.2075 30.9858 26.3135 31.6555 26.2802ZM28.8899 19.4145C28.9642 18.6531 29.0442 17.8995 29.6032 17.2949C29.9344 16.927 30.37 16.6691 30.8517 16.5554C31.3334 16.4417 31.8383 16.4778 32.299 16.6587C33.0867 16.9489 33.5267 17.6778 33.5517 18.7337C33.5737 19.6632 33.5737 19.6632 32.6243 19.6632C32.1504 19.6632 31.6766 19.6631 31.2028 19.663C30.5428 19.6628 29.8828 19.6628 29.2228 19.6628C29.0504 19.6627 28.864 19.6803 28.8899 19.4145Z" fill="#F1F0E7"/>
<path d="M67.6108 16.2545C66.6806 16.2625 65.7503 16.2607 64.82 16.2565C64.5786 16.2554 64.555 16.3996 64.5508 16.5887C64.5462 16.7954 64.6507 16.8477 64.8331 16.8448C65.2166 16.8388 65.6002 16.843 66.0451 16.843C65.2158 19.1994 64.4092 21.4915 63.5676 23.8831C63.4846 23.6629 63.4401 23.5546 63.4026 23.4441C62.7673 21.5717 62.133 19.6989 61.4996 17.8258C61.3977 17.5235 61.1569 17.1252 61.2655 16.931C61.3987 16.6928 61.8488 16.8677 62.1606 16.8481C62.3543 16.836 62.4807 16.8139 62.4798 16.5722C62.4789 16.3242 62.3713 16.253 62.1404 16.2542C60.8888 16.2604 59.6372 16.2603 58.3855 16.2539C58.1461 16.2526 58.0555 16.3416 58.0547 16.5808C58.0539 16.829 58.1944 16.8543 58.3826 16.8436C58.4332 16.846 58.484 16.8455 58.5346 16.8422C59.0685 16.7495 59.311 16.9615 59.4892 17.4981C60.4109 20.2725 61.3891 23.028 62.3414 25.7923C62.4397 26.0778 62.5168 26.2949 62.9111 26.2885C63.2775 26.2825 63.4011 26.1288 63.5094 25.8222C64.4492 23.1609 65.4157 20.509 66.3417 17.843C66.5642 17.2027 66.7352 16.6146 67.6094 16.8382C67.7937 16.8854 67.8814 16.7766 67.8785 16.5784C67.8757 16.3871 67.8566 16.2523 67.6108 16.2545Z" fill="#F1F0E7"/>
</svg>
