<svg width="137" height="50" viewBox="0 0 137 50" fill="none" xmlns="http://www.w3.org/2000/svg">
<g cclipPath="url(#clip0_1179_18159)">
<path fill-rule="evenodd" clip-rule="evenodd" d="M121.361 29.0584C127.203 29.0584 134.042 27.3227 136.512 22.2969H127.203C126.472 23.7562 123.826 24.5832 121.361 24.5832C114.064 24.5832 113.519 21.0143 113.242 19.4662H136.873V18.462C136.873 8.77188 127.476 6.85466 120.727 6.85466C105.671 6.85466 104.21 14.9867 104.21 17.4554C104.21 26.1365 111.693 29.0584 121.361 29.0584ZM120.544 11.4202C123.46 11.4202 127.021 12.4268 127.567 15.8089H113.519C114.064 13.0694 116.345 11.4202 120.544 11.4202ZM134.868 0.0935692H106.584V3.65771H134.868V0.0935692ZM19.0945 15.3534L10.9724 16.1757C5.22661 16.6308 0.935547 18.7351 0.935547 22.8455C0.935547 27.2315 6.2293 29.0584 11.4249 29.0584C17.5463 29.0584 20.4633 27.3232 22.4687 25.9546C22.7391 27.1408 22.8325 27.5056 23.3784 28.5098H33.051V27.5963C31.9573 27.4144 31.1367 26.8681 31.1367 24.3105V12.8847C31.1367 7.77239 22.2847 6.85466 17.3594 6.85466C10.3335 6.85466 3.03672 7.77239 2.03167 14.1672H10.7893C10.9724 12.9759 11.7944 11.2382 16.2633 11.2382C18.6349 11.2382 22.2842 11.4202 22.2842 13.7069C22.2842 14.8978 20.4633 15.2622 19.0945 15.3534ZM22.2842 20.9231C22.2842 23.4854 18.1814 25.0364 14.1636 25.0364C12.4295 25.0364 9.9697 24.4896 9.9697 22.4812C9.9697 20.1949 12.7947 19.7393 16.084 19.3726C19.8221 19.0111 21.3754 18.6392 22.2842 18.1841V20.9231ZM79.032 16.3628C79.032 13.1602 82.133 11.5137 86.1466 11.5137C91.8924 11.5137 92.0755 14.1672 92.0755 15.6289V28.5093H101.112V13.8865C101.112 9.2298 95.8173 6.85466 89.1575 6.85466C84.2299 6.85466 80.4037 8.40753 79.2141 10.1428H79.032V0H70.0002V28.5093H79.032V16.3628ZM50.563 29.058C63.1564 29.058 65.8964 22.9368 66.1682 20.7435H57.0425C57.0425 21.7478 55.4934 24.4896 50.9296 24.4896C44.0858 24.4896 43.9084 19.9217 43.9084 17.6373C43.9084 14.9862 45.4571 11.5137 51.1151 11.5137C55.3113 11.3342 56.6783 13.5245 57.135 14.8978H66.2588C65.4364 8.31396 56.4961 6.85466 51.1151 6.85466C39.5296 6.85466 34.6044 11.6985 34.6044 18.5532C34.6044 22.9368 37.6148 29.058 50.563 29.058Z" fill="#F1F0E7"/>
<path d="M2.83146 39.6786V40.5755C3.66004 39.7854 4.23382 39.542 4.96708 39.542C5.82728 39.542 6.6082 39.9824 7.07062 40.7735C7.99451 39.8912 8.58386 39.542 9.42896 39.542C10.9748 39.542 11.8194 40.515 11.8194 42.2475V46.5039H10.417V42.3387C10.417 41.2593 9.85882 40.6969 8.9354 40.6969C8.39276 40.6969 7.75575 41.0466 7.32542 41.5485V46.5039H5.92307V42.4147C5.92307 41.5027 5.69988 40.6818 4.50467 40.6818C3.83557 40.6818 3.30945 41.0164 2.83146 41.5485V46.5039H1.42911V39.6786H2.83146ZM17.5916 43.1293C16.3803 43.5243 15.3286 43.9194 15.3286 44.7256C15.3286 45.288 15.7589 45.6831 16.3487 45.6831C16.7946 45.6831 17.2089 45.4704 17.5916 45.1207V43.1293ZM20.0297 46.1088C19.3762 46.5195 19.1053 46.6405 18.6594 46.6405C18.038 46.6405 17.703 46.4278 17.5756 45.9411C16.9541 46.4127 16.3006 46.6405 15.6475 46.6405C14.5958 46.6405 13.8946 45.8503 13.8946 44.9685C13.8946 43.6156 15.1851 43.2049 16.3327 42.8103L17.5916 42.3845V42.0201C17.5916 41.1686 17.1613 40.8184 16.3006 40.8184C15.5201 40.8184 14.7232 41.1681 14.038 41.9436V40.4692C14.5958 39.8458 15.3767 39.542 16.412 39.542C17.8624 39.542 19.01 40.2414 19.01 41.7914V45.3026C19.01 45.5611 19.1053 45.6528 19.2808 45.6528C19.4243 45.6528 19.7112 45.5158 20.0297 45.288V46.1088ZM23.3143 46.5039H21.8959V39.6786H23.3143V46.5039ZM23.4417 37.5959C23.4417 38.0222 23.0595 38.4017 22.597 38.4017C22.0554 38.4017 21.7685 37.93 21.7685 37.5964C21.7685 37.216 22.1191 36.8058 22.597 36.8058C23.075 36.8058 23.4417 37.1701 23.4417 37.5959ZM30.1359 41.4422C29.3389 40.9706 28.7335 40.7125 28.0644 40.7125C27.3949 40.7125 27.1556 41.0622 27.1556 41.3203C27.1556 41.7612 27.6497 42.0046 28.7014 42.5669C29.7216 43.0986 30.4865 43.798 30.4865 44.71C30.4865 45.3489 29.9769 46.6405 28.0319 46.6405C27.0282 46.6405 26.3591 46.3522 25.6419 46.0176V44.5588C26.6616 45.2275 27.5388 45.4548 27.921 45.4548C28.3669 45.4548 29.0044 45.2119 29.0044 44.7563C29.0044 44.2701 28.5745 44.0418 27.905 43.6921C26.7253 43.0683 25.6896 42.4611 25.6896 41.3207C25.6896 40.318 26.5979 39.5425 27.9687 39.5425C29.036 39.5425 29.8013 39.9375 30.1359 40.1048V41.4422ZM40.5932 46.6405H40.1147L36.8801 39.6786H38.4255L40.3539 43.8741L42.2178 39.6786H43.748L40.5932 46.6405ZM46.8896 46.5039H45.4712V39.6786H46.8896V46.5039ZM47.017 37.5959C47.017 38.0222 46.6343 38.4017 46.1724 38.4017C45.6302 38.4017 45.3438 37.93 45.3438 37.5964C45.3438 37.216 45.6944 36.8058 46.1724 36.8058C46.6504 36.8058 47.017 37.1701 47.017 37.5959ZM54.3322 41.0164C54.0614 40.8794 53.6791 40.6969 53.0096 40.6969C51.8144 40.6969 50.6994 41.4266 50.6994 43.1449C50.6994 44.2998 51.209 44.8924 51.7507 45.1505C52.1329 45.3334 52.5 45.3631 53.2488 45.3631H54.3322V41.0164ZM55.7666 46.5039H52.7387C49.934 46.5039 49.2645 44.2998 49.2645 42.9776C49.2645 40.7579 50.9858 39.542 52.7859 39.542C53.5041 39.542 54.0458 39.7093 54.3322 39.8161V36.1366H55.7666V46.5039ZM61.5058 43.1293C60.2941 43.5243 59.2423 43.9194 59.2423 44.7256C59.2423 45.288 59.6731 45.6831 60.2625 45.6831C60.7089 45.6831 61.1231 45.4704 61.5058 45.1207V43.1293ZM63.9434 46.1088C63.2904 46.5195 63.02 46.6405 62.5732 46.6405C61.9517 46.6405 61.6172 46.4278 61.4898 45.9411C60.8679 46.4127 60.2148 46.6405 59.5613 46.6405C58.5091 46.6405 57.8084 45.8503 57.8084 44.9685C57.8084 43.6156 59.0994 43.2049 60.2469 42.8103L61.5058 42.3845V42.0201C61.5058 41.1686 61.075 40.8184 60.2148 40.8184C59.4339 40.8184 58.6369 41.1681 57.9523 41.9436V40.4692C58.5091 39.8458 59.29 39.542 60.3257 39.542C61.7767 39.542 62.9238 40.2414 62.9238 41.7914V45.3026C62.9238 45.5611 63.02 45.6528 63.1946 45.6528C63.3376 45.6528 63.6249 45.5158 63.9434 45.288V46.1088ZM72.2014 40.9408V45.1358C72.6285 45.3436 73.0968 45.4525 73.5717 45.4543C74.8306 45.4543 75.8191 44.5583 75.8191 43.0986C75.8191 40.9408 73.9067 40.9408 73.2055 40.9408H72.2014ZM73.2376 39.6786C73.3168 39.6786 74.815 39.6786 75.7875 40.256C77.0624 41.0315 77.2691 42.4147 77.2691 43.0986C77.2691 45.0904 75.8507 46.6405 73.716 46.6405C72.9828 46.6405 72.5364 46.4581 72.2014 46.3366V50H70.7514V39.6786H73.2376ZM82.6266 43.1293C81.4148 43.5243 80.3626 43.9194 80.3626 44.7256C80.3626 45.288 80.7939 45.6831 81.3828 45.6831C81.8291 45.6831 82.2434 45.4704 82.6266 45.1207V43.1293ZM85.0642 46.1088C84.4111 46.5195 84.1403 46.6405 83.6934 46.6405C83.0725 46.6405 82.737 46.4278 82.6101 45.9411C81.9886 46.4127 81.3356 46.6405 80.6816 46.6405C79.6298 46.6405 78.9291 45.8503 78.9291 44.9685C78.9291 43.6156 80.2192 43.2049 81.3677 42.8103L82.6266 42.3845V42.0201C82.6266 41.1686 82.1953 40.8184 81.3356 40.8184C80.5547 40.8184 79.7577 41.1681 79.0726 41.9436V40.4692C79.6298 39.8458 80.4107 39.542 81.4469 39.542C82.8969 39.542 84.0445 40.2414 84.0445 41.7914V45.3026C84.0445 45.5611 84.1403 45.6528 84.3149 45.6528C84.4583 45.6528 84.7452 45.5158 85.0642 45.288V46.1088ZM88.2535 39.6786V41.2447C88.7154 40.5604 89.3845 39.542 90.3886 39.542C90.5962 39.542 91.2332 39.5576 92.0623 40.317L91.313 41.5032C91.1374 41.3354 90.5 40.834 89.9427 40.834C89.4166 40.834 88.2535 41.3812 88.2535 42.9317V46.5039H86.8346V39.6786H88.2535ZM96.8606 43.1293C95.6489 43.5243 94.5971 43.9194 94.5971 44.7256C94.5971 45.288 95.0279 45.6831 95.6168 45.6831C96.0636 45.6831 96.4774 45.4704 96.8606 45.1207V43.1293ZM99.2987 46.1088C98.6456 46.5195 98.3743 46.6405 97.9279 46.6405C97.307 46.6405 96.9715 46.4278 96.8445 45.9411C96.2226 46.4127 95.5696 46.6405 94.9161 46.6405C93.8638 46.6405 93.1631 45.8503 93.1631 44.9685C93.1631 43.6156 94.4541 43.2049 95.6017 42.8103L96.8606 42.3845V42.0201C96.8606 41.1686 96.4298 40.8184 95.5696 40.8184C94.7891 40.8184 93.9917 41.1681 93.3066 41.9436V40.4692C93.8643 39.8458 94.6448 39.542 95.6809 39.542C97.1314 39.542 98.279 40.2414 98.279 41.7914V45.3026C98.279 45.5611 98.3743 45.6528 98.5494 45.6528C98.6928 45.6528 98.9797 45.5158 99.2987 45.288V46.1088ZM108.959 46.6405H108.481L105.246 39.6786H106.792L108.719 43.8741L110.584 39.6786H112.114L108.959 46.6405ZM114.507 43.0986C114.507 44.8164 115.845 45.4246 116.897 45.4246C118.299 45.4246 119.254 44.4671 119.254 43.0839C119.254 41.3656 117.853 40.7579 116.833 40.7579C115.557 40.7579 114.507 41.5944 114.507 43.0986ZM120.705 43.1142C120.705 45.5465 118.633 46.6405 116.865 46.6405C114.57 46.6405 113.056 45.029 113.056 43.0839C113.056 41.1686 114.522 39.542 116.913 39.542C119.047 39.542 120.705 40.955 120.705 43.1142ZM128.134 41.4578C127.735 41.2139 127.066 40.8033 126.142 40.8033C124.66 40.8033 123.958 42.0046 123.958 43.0839C123.958 44.2238 124.66 45.3636 126.412 45.3636C127.161 45.3636 127.767 45.1358 128.293 44.9076V46.2449C127.974 46.3517 127.225 46.6405 126.205 46.6405C123.735 46.6405 122.525 44.9988 122.525 43.1293C122.525 41.472 123.512 39.542 126.062 39.542C126.987 39.542 127.576 39.7854 128.134 40.0131V41.4578ZM135.228 42.3992C135.212 42.1265 135.1 40.7121 133.49 40.7121C133.044 40.7121 132.502 40.8798 132.121 41.29C131.737 41.6851 131.674 42.0958 131.626 42.3996L135.228 42.3992ZM135.722 38.8123H134.845L133.459 37.5052L132.136 38.8123H131.291L132.741 36.5171H134.224L135.722 38.8123ZM136.502 45.8348C136.009 46.1391 135.196 46.6405 133.697 46.6405C132.949 46.6405 132.088 46.5337 131.228 45.6831C130.288 44.7559 130.159 43.7072 130.159 43.0532C130.159 40.9252 131.562 39.542 133.506 39.542C135.18 39.542 136.311 40.6818 136.55 42.1865C136.63 42.6425 136.63 42.9469 136.63 43.2049H131.594C131.642 44.2238 132.343 45.3489 133.905 45.3489C134.829 45.3489 135.738 45.0441 136.502 44.5125V45.8348Z" fill="#F1F0E7"/>
</g>
<defs>
<clipPath id="clip0_1179_18159">
<rect width="135.938" height="50" fill="white" transform="translate(0.935547)"/>
</clipPath>
</defs>
</svg>
