<svg width="120" height="120" viewBox="0 0 120 120" fill="none" xmlns="http://www.w3.org/2000/svg">
<path d="M37.472 72.977C29.7248 72.9732 22.2185 70.2834 16.232 65.3658C10.2455 60.4483 6.14913 53.6073 4.64084 46.0083C3.13255 38.4092 4.30561 30.5223 7.96019 23.6912C11.6148 16.86 17.5247 11.5073 24.6833 8.54495C31.8418 5.58256 39.806 5.19376 47.219 7.44482C54.632 9.69588 61.0353 14.4475 65.3378 20.8902C69.6404 27.3329 71.5761 35.068 70.8151 42.7779C70.0541 50.4877 66.6436 57.6951 61.1646 63.1724C58.0596 66.2917 54.3669 68.7644 50.3002 70.4474C46.2334 72.1303 41.8733 72.9901 37.472 72.977ZM37.472 8.22774C30.2373 8.23186 23.2278 10.7442 17.6377 15.3367C12.0475 19.9293 8.22258 26.3179 6.81445 33.4142C5.40631 40.5106 6.5021 47.8757 9.91514 54.2547C13.3282 60.6338 18.8473 65.6322 25.5323 68.3984C32.2173 71.1646 39.6546 71.5275 46.5771 69.4253C53.4997 67.323 59.4792 62.8857 63.4971 56.8693C67.515 50.8528 69.3226 43.6294 68.6121 36.4297C67.9015 29.23 64.7167 22.4993 59.6003 17.3843C56.7001 14.4712 53.2512 12.1621 49.453 10.5904C45.6547 9.01868 41.5826 8.21565 37.472 8.22774Z" fill="#F5B335"/>
<path d="M37.4729 64.9948C31.5712 64.9926 25.8528 62.9442 21.292 59.1986C16.7312 55.4529 13.6102 50.2418 12.4607 44.4531C11.3113 38.6644 12.2045 32.6562 14.9882 27.4522C17.7719 22.2482 22.2739 18.1704 27.7271 15.9135C33.1803 13.6567 39.2473 13.3604 44.8944 15.0752C50.5415 16.79 55.4194 20.4097 58.6969 25.3177C61.9745 30.2257 63.4488 36.1183 62.8689 41.9915C62.2889 47.8647 59.6905 53.3551 55.5164 57.5273C53.1516 59.9026 50.3393 61.7857 47.2423 63.0674C44.1452 64.3492 40.8248 65.0042 37.4729 64.9948ZM37.4729 16.2022C32.0826 16.2038 26.8595 18.0743 22.6935 21.495C18.5276 24.9157 15.6766 29.675 14.6262 34.9621C13.5758 40.2491 14.391 45.7368 16.9329 50.4902C19.4749 55.2436 23.5863 58.9687 28.5667 61.0306C33.5472 63.0926 39.0884 63.364 44.2465 61.7986C49.4046 60.2331 53.8603 56.9277 56.8546 52.4454C59.8489 47.9632 61.1964 42.5814 60.6677 37.217C60.139 31.8526 57.7666 26.8375 53.9549 23.026C51.7951 20.8556 49.2263 19.135 46.3972 17.9637C43.5681 16.7924 40.5349 16.1937 37.4729 16.2022Z" fill="#F5B335"/>
<path d="M104.442 114.517C103.375 114.521 102.318 114.313 101.333 113.906C100.347 113.498 99.4521 112.899 98.6996 112.144L70.1187 83.5814C69.9112 83.3738 69.7947 83.0923 69.7947 82.7989C69.7947 82.5054 69.9112 82.2239 70.1187 82.0164L80.031 72.1168C80.1336 72.0141 80.2554 71.9327 80.3895 71.8771C80.5236 71.8216 80.6673 71.793 80.8124 71.793C80.9575 71.793 81.1013 71.8216 81.2353 71.8771C81.3694 71.9327 81.4912 72.0141 81.5938 72.1168L110.178 100.679C111.312 101.813 112.085 103.258 112.398 104.831C112.711 106.404 112.55 108.034 111.936 109.516C111.322 110.997 110.282 112.263 108.948 113.154C107.614 114.044 106.045 114.518 104.442 114.517ZM72.465 82.8006L100.265 110.58C101.371 111.685 102.87 112.305 104.433 112.306C105.996 112.306 107.495 111.686 108.601 110.581C109.707 109.477 110.33 107.979 110.332 106.416C110.334 104.853 109.716 103.353 108.613 102.246L80.8132 74.4632L72.465 82.8006Z" fill="#F5B335"/>
<path d="M72.8691 81.936C72.7238 81.9361 72.58 81.9076 72.4458 81.852C72.3116 81.7964 72.1896 81.7148 72.087 81.612L56.4128 65.9606C56.3018 65.8488 56.2159 65.7146 56.1607 65.567C56.1056 65.4194 56.0825 65.2617 56.0931 65.1045C56.1036 64.9472 56.1474 64.7941 56.2218 64.6551C56.2961 64.5161 56.3991 64.3946 56.524 64.2986C58.6935 62.6347 60.6359 60.694 62.3017 58.526C62.3974 58.4009 62.5187 58.2977 62.6574 58.2232C62.7962 58.1488 62.9493 58.1048 63.1064 58.0943C63.2635 58.0837 63.4211 58.1069 63.5686 58.1621C63.7161 58.2174 63.85 58.3034 63.9616 58.4146L79.6301 74.0774C79.8375 74.285 79.9541 74.5665 79.9541 74.8599C79.9541 75.1534 79.8375 75.4349 79.6301 75.6424L73.6513 81.612C73.4438 81.8194 73.1624 81.936 72.8691 81.936ZM58.8548 65.2699L72.8691 79.2663L77.2823 74.8596L63.2736 60.8561C62.6072 61.6575 61.902 62.4318 61.1655 63.1668C60.4291 63.9032 59.654 64.607 58.8548 65.2699Z" fill="#F5B335"/>
<path d="M37.4739 51.5847C35.0831 51.5834 32.7463 50.8732 30.7591 49.5439C28.7719 48.2145 27.2236 46.3258 26.3098 44.1165C25.396 41.9072 25.1579 39.4765 25.6256 37.1319C26.0933 34.7872 27.2457 32.6339 28.9372 30.9442C30.6287 29.2546 32.7832 28.1044 35.1283 27.6392C37.4735 27.174 39.9039 27.4147 42.1122 28.3308C44.3206 29.2469 46.2077 30.7973 47.5349 32.7859C48.8621 34.7745 49.5698 37.112 49.5685 39.5029C49.5629 42.7076 48.2865 45.7794 46.0191 48.0443C43.7518 50.3092 40.6787 51.5824 37.4739 51.5847ZM37.4739 29.6211C35.5212 29.6224 33.6128 30.2026 31.9898 31.2883C30.3667 32.374 29.102 33.9164 28.3554 35.7207C27.6088 37.525 27.4138 39.5101 27.7951 41.4252C28.1764 43.3403 29.1169 45.0993 30.4977 46.48C31.8785 47.8608 33.6376 48.8011 35.5527 49.1823C37.4678 49.5636 39.4529 49.3685 41.2571 48.6217C43.0614 47.875 44.6038 46.6102 45.6894 44.9871C46.775 43.364 47.355 41.4555 47.3562 39.5029C47.3532 36.8829 46.311 34.3711 44.4584 32.5186C42.6057 30.6661 40.0939 29.624 37.4739 29.6211Z" fill="#F5B335"/>
<path d="M37.4751 29.6292C37.1818 29.6289 36.9006 29.5123 36.6932 29.3049C36.4858 29.0975 36.3692 28.8163 36.3689 28.523V22.9167C36.3689 22.6233 36.4854 22.342 36.6929 22.1345C36.9003 21.9271 37.1817 21.8105 37.475 21.8105C37.7684 21.8105 38.0498 21.9271 38.2572 22.1345C38.4647 22.342 38.5812 22.6233 38.5812 22.9167V28.523C38.5812 28.8163 38.4647 29.0976 38.2573 29.3051C38.0498 29.5125 37.7685 29.6291 37.4751 29.6292Z" fill="#F5B335"/>
<path d="M42.9577 31.0929C42.764 31.0932 42.5737 31.0417 42.4067 30.9437C42.2807 30.8712 42.1703 30.7746 42.0818 30.6593C41.9933 30.5441 41.9285 30.4125 41.8909 30.2722C41.8534 30.1318 41.844 29.9854 41.8632 29.8414C41.8824 29.6973 41.9299 29.5585 42.0029 29.4329L44.8116 24.573C44.8842 24.4472 44.981 24.3369 45.0962 24.2484C45.2115 24.1599 45.3431 24.095 45.4835 24.0573C45.6238 24.0197 45.7702 24.01 45.9143 24.029C46.0584 24.0479 46.1973 24.095 46.3232 24.1677C46.4491 24.2403 46.5594 24.337 46.6479 24.4523C46.7364 24.5676 46.8013 24.6992 46.8389 24.8395C46.8766 24.9799 46.8862 25.1263 46.8673 25.2704C46.8483 25.4145 46.8012 25.5534 46.7286 25.6793L43.9167 30.5404C43.82 30.7091 43.6803 30.8491 43.5118 30.9462C43.3433 31.0432 43.1521 31.0938 42.9577 31.0929Z" fill="#F5B335"/>
<path d="M46.9838 35.1066C46.7401 35.1068 46.5031 35.0265 46.3096 34.8783C46.1161 34.73 45.9769 34.5221 45.9137 34.2867C45.8504 34.0513 45.8666 33.8016 45.9597 33.5763C46.0528 33.3511 46.2176 33.1628 46.4286 33.0407L51.2899 30.2375C51.5442 30.0911 51.8462 30.0516 52.1296 30.1278C52.413 30.2041 52.6545 30.3897 52.801 30.644C52.9475 30.8983 52.9869 31.2003 52.9107 31.4837C52.8345 31.7671 52.6488 32.0086 52.3945 32.1551L47.5347 34.9575C47.3677 35.0555 47.1775 35.107 46.9838 35.1066Z" fill="#F5B335"/>
<path d="M54.0688 40.5969H48.4525C48.1592 40.5969 47.8778 40.4804 47.6704 40.273C47.463 40.0655 47.3464 39.7842 47.3464 39.4909C47.3464 39.1975 47.463 38.9162 47.6704 38.7087C47.8778 38.5013 48.1592 38.3848 48.4525 38.3848H54.0688C54.3622 38.3848 54.6435 38.5013 54.851 38.7087C55.0584 38.9162 55.1749 39.1975 55.1749 39.4909C55.1749 39.7842 55.0584 40.0655 54.851 40.273C54.6435 40.4804 54.3622 40.5969 54.0688 40.5969Z" fill="#F5B335"/>
<path d="M51.8417 48.8889C51.6483 48.889 51.4582 48.838 51.2908 48.7411L46.4295 45.9386C46.1752 45.792 45.9896 45.5503 45.9136 45.2668C45.8375 44.9832 45.8771 44.6811 46.0238 44.4268C46.1705 44.1726 46.4122 43.987 46.6957 43.9109C46.9792 43.8348 47.2813 43.8745 47.5356 44.0211L52.3954 46.8243C52.6061 46.9463 52.7706 47.1344 52.8636 47.3593C52.9566 47.5843 52.9728 47.8337 52.9097 48.0688C52.8466 48.3039 52.7078 48.5116 52.5148 48.6599C52.3217 48.8081 52.0851 48.8886 51.8417 48.8889Z" fill="#F5B335"/>
<path d="M45.7701 54.9591C45.5759 54.9592 45.385 54.9082 45.2166 54.8112C45.0483 54.7143 44.9084 54.5748 44.8109 54.4067L42.0022 49.5461C41.9295 49.4204 41.8822 49.2817 41.8631 49.1377C41.844 48.9938 41.8535 48.8475 41.8909 48.7072C41.9283 48.567 41.993 48.4354 42.0813 48.3202C42.1696 48.2049 42.2797 48.1081 42.4054 48.0354C42.531 47.9627 42.6698 47.9154 42.8137 47.8963C42.9576 47.8772 43.1039 47.8867 43.2442 47.9241C43.3845 47.9615 43.516 48.0262 43.6313 48.1145C43.7466 48.2028 43.8433 48.3129 43.9161 48.4386L46.7279 53.2999C46.825 53.468 46.8762 53.6587 46.8762 53.8529C46.8762 54.0471 46.8251 54.2379 46.7281 54.406C46.631 54.5742 46.4914 54.7138 46.3232 54.8109C46.1551 54.908 45.9643 54.9591 45.7701 54.9591Z" fill="#F5B335"/>
<path d="M37.4751 57.1874C37.1819 57.1872 36.9007 57.0706 36.6933 56.8632C36.4859 56.6558 36.3692 56.3746 36.3689 56.0814V50.4636C36.3689 50.1702 36.4854 49.8889 36.6929 49.6814C36.9003 49.474 37.1817 49.3574 37.475 49.3574C37.7684 49.3574 38.0498 49.474 38.2572 49.6814C38.4647 49.8889 38.5812 50.1702 38.5812 50.4636V56.0814C38.5812 56.3747 38.4646 56.656 38.2572 56.8634C38.0498 57.0709 37.7685 57.1874 37.4751 57.1874Z" fill="#F5B335"/>
<path d="M29.175 54.9607C28.9814 54.9602 28.7912 54.9098 28.6227 54.8144C28.497 54.7418 28.3868 54.645 28.2985 54.5298C28.2101 54.4145 28.1454 54.283 28.1078 54.1427C28.0703 54.0024 28.0608 53.8561 28.0799 53.7122C28.0989 53.5682 28.1461 53.4294 28.2188 53.3037L31.0234 48.4402C31.1701 48.186 31.4118 48.0005 31.6952 47.9245C31.9787 47.8485 32.2808 47.8882 32.5349 48.0349C32.7891 48.1816 32.9746 48.4232 33.0506 48.7067C33.1266 48.9902 33.0869 49.2922 32.9402 49.5464L30.1342 54.4083C30.0372 54.5767 29.8974 54.7165 29.729 54.8135C29.5605 54.9106 29.3694 54.9613 29.175 54.9607Z" fill="#F5B335"/>
<path d="M23.1087 48.8875C22.8651 48.8876 22.6282 48.8074 22.4349 48.6592C22.2416 48.5109 22.1026 48.303 22.0395 48.0678C21.9764 47.8325 21.9927 47.5829 22.0859 47.3578C22.1791 47.1328 22.344 46.9448 22.5549 46.823L27.4148 44.0198C27.669 43.874 27.9707 43.8349 28.2536 43.9112C28.5366 43.9875 28.7778 44.173 28.9242 44.4268C29.0707 44.6807 29.1104 44.9823 29.0348 45.2655C28.9592 45.5486 28.7744 45.7902 28.5209 45.9373L23.661 48.7397C23.4929 48.8362 23.3025 48.8871 23.1087 48.8875Z" fill="#F5B335"/>
<path d="M26.494 40.5969H20.8763C20.583 40.5969 20.3017 40.4804 20.0942 40.273C19.8868 40.0655 19.7703 39.7842 19.7703 39.4909C19.7703 39.1975 19.8868 38.9162 20.0942 38.7087C20.3017 38.5013 20.583 38.3848 20.8763 38.3848H26.494C26.7873 38.3848 27.0687 38.5013 27.2761 38.7087C27.4835 38.9162 27.6001 39.1975 27.6001 39.4909C27.6001 39.7842 27.4835 40.0655 27.2761 40.273C27.0687 40.4804 26.7873 40.5969 26.494 40.5969Z" fill="#F5B335"/>
<path d="M27.9638 35.1056C27.7702 35.1061 27.5799 35.0547 27.413 34.9565L22.5532 32.1541C22.2996 32.007 22.1148 31.7654 22.0392 31.4823C21.9636 31.1991 22.0033 30.8975 22.1498 30.6436C22.2962 30.3898 22.5374 30.2043 22.8203 30.128C23.1033 30.0517 23.405 30.0907 23.6592 30.2365L28.5191 33.0397C28.7297 33.162 28.8941 33.3503 28.987 33.5755C29.0798 33.8007 29.0959 34.0501 29.0326 34.2853C28.9694 34.5205 28.8305 34.7283 28.6373 34.8766C28.4441 35.0249 28.2074 35.1054 27.9638 35.1056Z" fill="#F5B335"/>
<path d="M31.9839 31.0926C31.7895 31.0932 31.5984 31.0424 31.43 30.9454C31.2616 30.8484 31.1218 30.7086 31.0248 30.5402L28.2201 25.6775C28.0736 25.4235 28.0341 25.1217 28.1101 24.8385C28.1861 24.5553 28.3715 24.3139 28.6255 24.1674C28.8795 24.0209 29.1813 23.9813 29.4645 24.0573C29.7477 24.1334 29.9891 24.3187 30.1356 24.5728L32.9416 29.4341C33.0386 29.6022 33.0897 29.7929 33.0897 29.987C33.0896 30.181 33.0385 30.3717 32.9415 30.5398C32.8444 30.7079 32.7048 30.8475 32.5367 30.9445C32.3686 31.0415 32.1779 31.0926 31.9839 31.0926Z" fill="#F5B335"/>
<path d="M37.4736 44.6704C36.4507 44.67 35.4509 44.3664 34.6005 43.7978C33.7502 43.2292 33.0875 42.4213 32.6963 41.4761C32.3052 40.531 32.203 39.491 32.4029 38.4878C32.6027 37.4846 33.0956 36.5632 33.8191 35.8401C34.5426 35.117 35.4643 34.6246 36.4676 34.4253C37.4709 34.226 38.5108 34.3287 39.4557 34.7204C40.4007 35.112 41.2083 35.7751 41.7764 36.6258C42.3445 37.4764 42.6476 38.4764 42.6474 39.4994C42.6455 40.8707 42.0997 42.1852 41.1297 43.1546C40.1598 44.1241 38.845 44.6692 37.4736 44.6704ZM37.4736 36.5377C36.8883 36.538 36.3162 36.7118 35.8296 37.0371C35.343 37.3625 34.9638 37.8248 34.7399 38.3657C34.516 38.9065 34.4574 39.5016 34.5717 40.0757C34.6859 40.6498 34.9678 41.1771 35.3817 41.591C35.7956 42.0049 36.3229 42.2868 36.897 42.4011C37.4711 42.5154 38.0662 42.4569 38.607 42.233C39.1479 42.0092 39.6102 41.63 39.9356 41.1434C40.261 40.6568 40.4348 40.0847 40.4351 39.4994C40.4342 38.7142 40.122 37.9614 39.5668 37.4062C39.0116 36.851 38.2588 36.5386 37.4736 36.5377Z" fill="#F5B335"/>
<path d="M104.206 110.619C103.358 110.619 102.53 110.367 101.825 109.896C101.12 109.425 100.571 108.756 100.247 107.972C99.9226 107.189 99.8377 106.328 100.003 105.496C100.168 104.665 100.576 103.901 101.175 103.302C101.775 102.702 102.538 102.294 103.369 102.128C104.201 101.962 105.062 102.046 105.846 102.37C106.629 102.694 107.299 103.243 107.77 103.947C108.242 104.651 108.494 105.48 108.495 106.327C108.494 107.465 108.042 108.555 107.238 109.36C106.434 110.164 105.343 110.617 104.206 110.619ZM104.206 104.258C103.796 104.258 103.394 104.38 103.053 104.608C102.712 104.837 102.446 105.161 102.29 105.54C102.133 105.92 102.092 106.337 102.173 106.74C102.253 107.142 102.451 107.512 102.742 107.801C103.033 108.091 103.403 108.288 103.806 108.368C104.208 108.447 104.625 108.405 105.004 108.247C105.383 108.09 105.707 107.823 105.934 107.481C106.162 107.139 106.282 106.738 106.281 106.327C106.28 105.778 106.06 105.252 105.671 104.864C105.282 104.476 104.755 104.258 104.206 104.258Z" fill="#F5B335"/>
</svg>
