<svg width="120" height="120" viewBox="0 0 120 120" fill="none" xmlns="http://www.w3.org/2000/svg">
<path d="M87.3238 114.203H32.4347C32.3045 114.203 32.1756 114.178 32.0554 114.128C31.9352 114.078 31.8261 114.005 31.7344 113.912L9.29257 91.4768C9.2002 91.3849 9.12696 91.2756 9.07708 91.1552C9.0272 91.0348 9.00166 90.9057 9.00196 90.7754V2.99074C9.00214 2.72804 9.10658 2.47615 9.29234 2.29039C9.4781 2.10463 9.72999 2.00018 9.9927 2H98.228C98.4909 1.99994 98.7431 2.10426 98.9291 2.29003C99.1151 2.47581 99.2198 2.72784 99.2201 2.99074V89.179C99.2201 89.3162 99.1918 89.4518 99.1368 89.5775C99.0818 89.7031 99.0013 89.8159 98.9005 89.9089C98.7997 90.0019 98.6807 90.073 98.5511 90.1177C98.4215 90.1624 98.284 90.1797 98.1473 90.1686C97.7313 90.1347 97.3075 90.1162 96.8877 90.1162C93.4537 90.118 90.1607 91.4819 87.7311 93.9087C85.3014 96.3354 83.9336 99.6268 83.9277 103.061C83.9199 104.815 84.2722 106.552 84.963 108.165C85.6537 109.778 86.6682 111.232 87.9435 112.436C88.104 112.565 88.2207 112.74 88.2774 112.937C88.3341 113.135 88.328 113.345 88.26 113.539C88.192 113.733 88.0653 113.901 87.8976 114.02C87.7299 114.139 87.5294 114.203 87.3238 114.203ZM32.8455 112.219H85.0811C83.3668 110.011 82.3067 107.366 82.0214 104.586C81.7361 101.805 82.2371 99.0004 83.4673 96.4905C84.6975 93.9806 86.6076 91.8665 88.9802 90.3887C91.3527 88.9108 94.0925 88.1287 96.8877 88.1313C97.0029 88.1313 97.1194 88.1332 97.2358 88.1357V3.98476H10.9862V90.3651L32.8455 112.219Z" fill="#F5B335"/>
<path d="M32.4344 114.198C32.1714 114.197 31.9194 114.093 31.7336 113.907C31.5478 113.72 31.4434 113.468 31.4435 113.205V91.3734H9.99238C9.72919 91.3734 9.47677 91.2689 9.29066 91.0828C9.10456 90.8967 9 90.6443 9 90.3811C9 90.1179 9.10456 89.8654 9.29066 89.6793C9.47677 89.4932 9.72919 89.3887 9.99238 89.3887H32.4344C32.5647 89.3885 32.6939 89.4141 32.8144 89.4639C32.9349 89.5137 33.0444 89.5867 33.1366 89.6789C33.2289 89.771 33.3021 89.8804 33.352 90.0008C33.402 90.1213 33.4277 90.2504 33.4277 90.3807V113.205C33.4277 113.336 33.402 113.465 33.352 113.585C33.3021 113.706 33.2289 113.815 33.1366 113.907C33.0444 113.999 32.9349 114.072 32.8144 114.122C32.6939 114.172 32.5648 114.198 32.4344 114.198Z" fill="#F5B335"/>
<path d="M85.3576 51.6913H27.6982C27.435 51.6913 27.1827 51.5867 26.9966 51.4007C26.8106 51.2146 26.7061 50.9623 26.7061 50.6991C26.7061 50.436 26.8106 50.1837 26.9966 49.9976C27.1827 49.8116 27.435 49.707 27.6982 49.707H85.3576C85.6207 49.707 85.873 49.8116 86.0591 49.9976C86.2451 50.1837 86.3497 50.436 86.3497 50.6991C86.3497 50.9623 86.2451 51.2146 86.0591 51.4007C85.873 51.5867 85.6207 51.6913 85.3576 51.6913Z" fill="#F5B335"/>
<path d="M85.3575 42.3083H27.6981C27.435 42.3083 27.1827 42.2038 26.9966 42.0178C26.8106 41.8317 26.7061 41.5794 26.7061 41.3163C26.7061 41.0532 26.8106 40.8008 26.9966 40.6148C27.1827 40.4287 27.435 40.3242 27.6981 40.3242H85.3575C85.6206 40.3242 85.8729 40.4287 86.059 40.6148C86.245 40.8008 86.3495 41.0532 86.3495 41.3163C86.3495 41.5794 86.245 41.8317 86.059 42.0178C85.8729 42.2038 85.6206 42.3083 85.3575 42.3083Z" fill="#F5B335"/>
<path d="M85.3575 32.9021H27.6981C27.435 32.9021 27.1827 32.7976 26.9966 32.6115C26.8106 32.4255 26.7061 32.1731 26.7061 31.91C26.7061 31.6469 26.8106 31.3946 26.9966 31.2085C27.1827 31.0225 27.435 30.918 27.6981 30.918H85.3575C85.6206 30.918 85.8729 31.0225 86.059 31.2085C86.245 31.3946 86.3495 31.6469 86.3495 31.91C86.3495 32.1731 86.245 32.4255 86.059 32.6115C85.8729 32.7976 85.6206 32.9021 85.3575 32.9021Z" fill="#F5B335"/>
<path d="M85.3569 23.5103H27.6975C27.4346 23.5103 27.1824 23.4058 26.9964 23.2199C26.8105 23.0339 26.7061 22.7818 26.7061 22.5188C26.7061 22.2559 26.8105 22.0037 26.9964 21.8177C27.1824 21.6318 27.4346 21.5273 27.6975 21.5273H85.3569C85.6199 21.5273 85.872 21.6318 86.058 21.8177C86.2439 22.0037 86.3484 22.2559 86.3484 22.5188C86.3484 22.7818 86.2439 23.0339 86.058 23.2199C85.872 23.4058 85.6199 23.5103 85.3569 23.5103Z" fill="#F5B335"/>
<path d="M76.2455 87.8322C76.1152 87.8323 75.9861 87.8067 75.8657 87.7568C75.7454 87.707 75.636 87.6339 75.5438 87.5418C75.4517 87.4497 75.3786 87.3403 75.3288 87.2199C75.279 87.0995 75.2534 86.9705 75.2534 86.8402V64.3573C75.2534 64.0942 75.3579 63.8418 75.544 63.6558C75.73 63.4698 75.9824 63.3652 76.2455 63.3652C76.5086 63.3652 76.7609 63.4698 76.947 63.6558C77.133 63.8418 77.2375 64.0942 77.2375 64.3573V86.8402C77.2376 86.9705 77.212 87.0995 77.1621 87.2199C77.1123 87.3403 77.0392 87.4497 76.9471 87.5418C76.855 87.6339 76.7456 87.707 76.6252 87.7568C76.5048 87.8067 76.3758 87.8323 76.2455 87.8322Z" fill="#F5B335"/>
<path d="M87.4934 76.5995H64.9965C64.7334 76.5995 64.481 76.4949 64.295 76.3089C64.1089 76.1228 64.0044 75.8705 64.0044 75.6074C64.0044 75.3442 64.1089 75.0919 64.295 74.9058C64.481 74.7198 64.7334 74.6152 64.9965 74.6152H87.4934C87.7566 74.6152 88.0089 74.7198 88.195 74.9058C88.381 75.0919 88.4855 75.3442 88.4855 75.6074C88.4855 75.8705 88.381 76.1228 88.195 76.3089C88.0089 76.4949 87.7566 76.5995 87.4934 76.5995Z" fill="#F5B335"/>
<path d="M57.0213 69.4829H32.3943C32.1311 69.4829 31.8787 69.3784 31.6925 69.1923C31.5064 69.0061 31.4019 68.7537 31.4019 68.4905C31.4019 68.2273 31.5064 67.9748 31.6925 67.7887C31.8787 67.6026 32.1311 67.498 32.3943 67.498H57.0213C57.2846 67.498 57.537 67.6026 57.7231 67.7887C57.9092 67.9748 58.0138 68.2273 58.0138 68.4905C58.0138 68.7537 57.9092 69.0061 57.7231 69.1923C57.537 69.3784 57.2846 69.4829 57.0213 69.4829Z" fill="#F5B335"/>
<path d="M51.6077 79.8658H32.3943C32.1311 79.8658 31.8787 79.7612 31.6925 79.5751C31.5064 79.3889 31.4019 79.1365 31.4019 78.8733C31.4019 78.6101 31.5064 78.3577 31.6925 78.1715C31.8787 77.9854 32.1311 77.8809 32.3943 77.8809H51.6077C51.8709 77.8809 52.1233 77.9854 52.3094 78.1715C52.4956 78.3577 52.6001 78.6101 52.6001 78.8733C52.6001 79.1365 52.4956 79.3889 52.3094 79.5751C52.1233 79.7612 51.8709 79.8658 51.6077 79.8658Z" fill="#F5B335"/>
<path d="M57.0228 90.2544H40.3645C40.1013 90.2544 39.8489 90.1499 39.6627 89.9637C39.4766 89.7776 39.3721 89.5252 39.3721 89.262C39.3721 88.9988 39.4766 88.7463 39.6627 88.5602C39.8489 88.3741 40.1013 88.2695 40.3645 88.2695H57.0228C57.286 88.2695 57.5384 88.3741 57.7245 88.5602C57.9107 88.7463 58.0152 88.9988 58.0152 89.262C58.0152 89.5252 57.9107 89.7776 57.7245 89.9637C57.5384 90.1499 57.286 90.2544 57.0228 90.2544Z" fill="#F5B335"/>
<path d="M96.8876 118C93.9346 117.999 91.0482 117.121 88.5935 115.48C86.1388 113.838 84.226 111.505 83.0968 108.777C81.9676 106.048 81.6728 103.046 82.2495 100.15C82.8263 97.2535 84.2488 94.5933 86.3372 92.5054C88.4256 90.4176 91.0862 88.9957 93.9825 88.4197C96.8789 87.8436 99.881 88.1393 102.609 89.2692C105.338 90.399 107.67 92.3125 109.311 94.7676C110.952 97.2227 111.828 100.109 111.829 103.062C111.824 107.023 110.248 110.82 107.447 113.62C104.646 116.421 100.848 117.996 96.8876 118ZM96.8876 90.1177C94.3268 90.1194 91.824 90.8804 89.6956 92.3045C87.5673 93.7285 85.909 95.7517 84.9304 98.1182C83.9518 100.485 83.6968 103.088 84.1978 105.6C84.6987 108.111 85.9331 110.417 87.7447 112.227C89.5564 114.037 91.8641 115.269 94.3759 115.768C96.8878 116.266 99.491 116.008 101.857 115.028C104.222 114.047 106.244 112.386 107.665 110.257C109.087 108.127 109.846 105.623 109.845 103.062C109.839 99.6288 108.472 96.3378 106.043 93.9111C103.614 91.4844 100.321 90.1202 96.8876 90.1177Z" fill="#F5B335"/>
<path d="M92.592 110.1C92.3816 110.101 92.1765 110.034 92.007 109.91C91.7943 109.755 91.6519 109.522 91.6111 109.262C91.5703 109.002 91.6344 108.736 91.7894 108.523L100.621 96.4346C100.776 96.222 101.009 96.0798 101.269 96.0392C101.529 95.9986 101.795 96.063 102.007 96.2181C102.22 96.3733 102.362 96.6065 102.403 96.8665C102.443 97.1265 102.379 97.392 102.224 97.6045L93.3935 109.693C93.3013 109.819 93.1807 109.922 93.0414 109.993C92.9022 110.064 92.7482 110.1 92.592 110.1Z" fill="#F5B335"/>
<path d="M101.424 110.099C101.268 110.099 101.114 110.062 100.974 109.991C100.835 109.921 100.714 109.818 100.622 109.692L91.7907 97.603C91.6364 97.3902 91.5727 97.1249 91.6137 96.8653C91.6547 96.6057 91.7969 96.3729 92.0093 96.218C92.2217 96.0631 92.4868 95.9988 92.7465 96.0391C93.0062 96.0794 93.2394 96.2211 93.3948 96.433L102.225 108.522C102.38 108.734 102.445 109 102.404 109.26C102.363 109.52 102.221 109.753 102.009 109.908C101.839 110.033 101.634 110.1 101.424 110.099Z" fill="#F5B335"/>
</svg>
