<svg width="120" height="120" viewBox="0 0 120 120" fill="none" xmlns="http://www.w3.org/2000/svg">
<path fill-rule="evenodd" clip-rule="evenodd" d="M58.0069 41.1946C60.8747 40.5084 64.2427 40.6014 66.4642 40.8858L66.2103 42.8696C64.1241 42.6025 61.0201 42.5301 58.4722 43.1397C57.1981 43.4445 56.1453 43.901 55.4233 44.5156C54.7335 45.1029 54.3262 45.8458 54.3104 46.856C54.2913 48.074 54.9538 49.1378 56.2368 50.1988C57.5304 51.2685 59.287 52.1964 61.1506 53.1642C61.2159 53.1981 61.2814 53.2321 61.347 53.2662C63.0985 54.1752 64.941 55.1314 66.3118 56.2401C67.7421 57.3968 68.8826 58.9026 68.6759 60.9006C68.4843 62.7528 67.4211 64.1652 66.1056 65.2631C64.8 66.3528 63.1564 67.2086 61.6253 67.9417C61.2076 68.1416 60.8015 68.3312 60.4104 68.5138C59.3183 69.0236 58.3428 69.479 57.5559 69.955C57.0299 70.2732 56.6614 70.5594 56.4323 70.8186C56.2122 71.0677 56.1708 71.2329 56.1708 71.3432C56.1708 71.4487 56.2187 71.6455 56.4789 71.9584C56.7384 72.2704 57.1428 72.6168 57.6914 72.9995C58.5672 73.6106 59.6638 74.2176 60.8407 74.8691C61.1511 75.041 61.4671 75.2159 61.7862 75.3948C63.2625 76.2228 64.809 77.1398 65.8904 78.1622C66.9647 79.178 67.8356 80.5566 67.2859 82.2051L67.2675 82.2601L67.243 82.3126C66.9309 82.9794 66.3364 84.022 65.5365 85.0637C64.7423 86.0978 63.6943 87.1989 62.4585 87.9051L61.4662 86.1686C62.377 85.6481 63.2345 84.7776 63.9502 83.8456C64.6352 82.9536 65.143 82.0675 65.404 81.523C65.5519 81.0119 65.3722 80.4248 64.5163 79.6155C63.6397 78.7867 62.3042 77.9784 60.8079 77.1392C60.5183 76.9768 60.2223 76.8131 59.9243 76.6483C58.7363 75.9911 57.5169 75.3165 56.547 74.6398C55.9356 74.2132 55.3659 73.7478 54.9412 73.2372C54.5172 72.7274 54.1708 72.0906 54.1708 71.3432C54.1708 70.6006 54.501 69.9839 54.9336 69.4943C55.3572 69.0149 55.9224 68.6056 56.5208 68.2437C57.4078 67.7072 58.5291 67.1839 59.6539 66.659C60.0255 66.4856 60.3975 66.3121 60.7616 66.1378C62.2805 65.4105 63.7257 64.6443 64.824 63.7277C65.9124 62.8193 66.568 61.8408 66.6866 60.6948C66.79 59.6945 66.2764 58.7836 65.0541 57.7951C63.8437 56.8161 62.1583 55.941 60.3196 54.9863L60.2288 54.9391C58.4092 53.9942 56.4504 52.9707 54.9622 51.74C53.4635 50.5006 52.2779 48.9151 52.3106 46.8247C52.3363 45.188 53.0396 43.9183 54.1269 42.9927C55.1821 42.0944 56.5732 41.5376 58.0069 41.1946Z" fill="#F1B434"/>
<path fill-rule="evenodd" clip-rule="evenodd" d="M49.2968 21.6606H60.1896V23.6606H51.2968V40.9196L35.6928 32.6196L26.1164 49.7411L40.7206 58.3708L26.0952 67.6779L35.6833 85.1107L51.2968 76.1412V94.1016H60.1896V96.1016H49.2968V79.5967L34.9127 87.8598L23.4386 66.9978L36.8961 58.434L23.4175 50.4693L34.9032 29.9343L49.2968 37.5904V21.6606Z" fill="#F1B434"/>
<path fill-rule="evenodd" clip-rule="evenodd" d="M60.1795 0.398438L60.7355 0.761184C65.4797 3.85662 73.709 8.45686 82.9236 12.1589C92.1594 15.8694 102.269 18.6298 110.816 18.1574L111.969 18.0936L105.243 94.3183L105.162 94.4845C103.256 98.3961 97.72 105.545 86.0752 111.006C77.4146 115.067 68.2393 117.428 63.1968 118.725C62.2254 118.975 61.4074 119.186 60.776 119.361L60.5022 119.437L60.2293 119.358C59.6657 119.194 58.9196 119 58.0057 118.763C53.671 117.635 45.5599 115.526 35.217 111.017C23.3268 105.834 16.8222 97.6746 15.218 93.5495L15.1676 93.4199L8.03369 18.1894L9.09319 18.1511C30.0193 17.3947 51.5147 6.25 59.6294 0.769958L60.1795 0.398438ZM60.1974 2.79491C51.6884 8.39772 30.8734 19.0262 10.2241 20.103L17.132 92.95C18.5983 96.5403 24.6467 104.228 36.0161 109.184C46.1931 113.62 54.1201 115.684 58.4801 116.819C59.2808 117.027 59.9611 117.205 60.5131 117.359C61.1305 117.191 61.8821 116.998 62.7464 116.775C67.8153 115.47 76.759 113.166 85.226 109.195C96.3154 103.995 101.512 97.2888 103.284 93.771L109.775 20.1994C101.056 20.4043 91.1073 17.6021 82.178 14.0147C73.1796 10.3995 65.109 5.9425 60.1974 2.79491Z" fill="#F1B434"/>
<path fill-rule="evenodd" clip-rule="evenodd" d="M71.0713 21.6606H60.1784V23.6606H69.0713V40.9196L84.6752 32.6196L94.2517 49.7411L79.6475 58.3708L94.2728 67.6779L84.6848 85.1107L69.0713 76.1412V94.1016H60.1784V96.1016H71.0713V79.5967L85.4553 87.8598L96.9294 66.9978L83.472 58.434L96.9506 50.4693L85.4649 29.9343L71.0713 37.5904V21.6606Z" fill="#F1B434"/>
<path fill-rule="evenodd" clip-rule="evenodd" d="M60.0004 87.777L60.0004 31.1581H62.0004L62.0004 87.777H60.0004Z" fill="#F1B434"/>
</svg>
