<svg width="120" height="120" viewBox="0 0 120 120" fill="none" xmlns="http://www.w3.org/2000/svg">
<path d="M57.7175 28.3504L55.3432 6.19903L1.60547 11.959L11.4545 103.846L65.1923 98.0863L62.686 74.7043" stroke="#F1B434" stroke-width="2"/>
<circle cx="56.9624" cy="51.469" r="18.1526" stroke="#F1B434" stroke-width="2"/>
<circle cx="17.2066" cy="26.4769" r="6.93745" transform="rotate(-6.11798 17.2066 26.4769)" stroke="#F1B434" stroke-width="2"/>
<circle cx="23.6244" cy="86.3539" r="6.93745" transform="rotate(-6.11798 23.6244 86.3539)" stroke="#F1B434" stroke-width="2"/>
<circle cx="20.4146" cy="56.4144" r="6.93745" transform="rotate(-6.11798 20.4146 56.4144)" stroke="#F1B434" stroke-width="2"/>
<circle cx="43.4459" cy="23.6644" r="6.93745" transform="rotate(-6.11798 43.4459 23.6644)" stroke="#F1B434" stroke-width="2"/>
<circle cx="49.8648" cy="83.5414" r="6.93745" transform="rotate(-6.11798 49.8648 83.5414)" stroke="#F1B434" stroke-width="2"/>
<line x1="13.4842" y1="29.2467" x2="19.1155" y2="22.5208" stroke="#F1B434" stroke-width="2"/>
<line x1="19.9022" y1="89.1237" x2="25.5334" y2="82.3977" stroke="#F1B434" stroke-width="2"/>
<line x1="16.693" y1="59.1842" x2="22.3242" y2="52.4583" stroke="#F1B434" stroke-width="2"/>
<line x1="39.7247" y1="26.4342" x2="45.3559" y2="19.7083" stroke="#F1B434" stroke-width="2"/>
<line x1="46.1415" y1="86.3112" x2="51.7727" y2="79.5852" stroke="#F1B434" stroke-width="2"/>
<path d="M56.6316 37.1758V52.7945L69.1266 47.5883" stroke="#F1B434" stroke-width="2"/>
<path d="M65.5303 25.4414L118.394 33.5695L115.743 50.8072L81.6718 45.5685" stroke="#F1B434" stroke-width="2"/>
<path d="M111.578 50.1339L101.789 113.8L59.8218 106.439" stroke="#F1B434" stroke-width="2"/>
<path d="M71.9169 99.3496L97.3754 103.264L104.536 56.6937L88.2264 54.186L80.0717 52.9322" stroke="#F1B434" stroke-width="2"/>
</svg>
