<svg width="47" height="47" viewBox="0 0 47 47" fill="none" xmlns="http://www.w3.org/2000/svg">
<path fill-rule="evenodd" clip-rule="evenodd" d="M43.7904 7.12688C44.181 7.5174 44.181 8.15057 43.7904 8.54109L24.2071 28.1244C23.8166 28.5149 23.1834 28.5149 22.7929 28.1244L16.9179 22.2494C16.5274 21.8589 16.5274 21.2257 16.9179 20.8352C17.3084 20.4447 17.9416 20.4447 18.3321 20.8352L23.5 26.0031L42.3762 7.12688C42.7668 6.73635 43.3999 6.73635 43.7904 7.12688Z" fill="#F5B335"/>
<path fill-rule="evenodd" clip-rule="evenodd" d="M9.79167 6.875C9.01812 6.875 8.27625 7.18229 7.72927 7.72927C7.18229 8.27625 6.875 9.01812 6.875 9.79167V37.2083C6.875 37.9819 7.18229 38.7237 7.72927 39.2707C8.27625 39.8177 9.01812 40.125 9.79167 40.125H37.2083C37.9819 40.125 38.7237 39.8177 39.2707 39.2707C39.8177 38.7237 40.125 37.9819 40.125 37.2083V23.5C40.125 22.9477 40.5727 22.5 41.125 22.5C41.6773 22.5 42.125 22.9477 42.125 23.5V37.2083C42.125 38.5123 41.607 39.7629 40.6849 40.6849C39.7629 41.607 38.5123 42.125 37.2083 42.125H9.79167C8.48769 42.125 7.23711 41.607 6.31506 40.6849C5.393 39.7629 4.875 38.5123 4.875 37.2083V9.79167C4.875 8.48769 5.393 7.23711 6.31506 6.31506C7.23711 5.393 8.48769 4.875 9.79167 4.875H31.3333C31.8856 4.875 32.3333 5.32272 32.3333 5.875C32.3333 6.42728 31.8856 6.875 31.3333 6.875H9.79167Z" fill="#F5B335"/>
</svg>
