<svg width="41" height="41" viewBox="0 0 41 41" fill="none" xmlns="http://www.w3.org/2000/svg">
<path d="M35.4321 9.28053C35.348 8.97329 35.1986 8.68779 34.9942 8.44345C34.7898 8.1991 34.5352 8.00164 34.2477 7.86451C33.9602 7.72737 33.6465 7.65377 33.328 7.64872C33.0095 7.64366 32.6936 7.70727 32.4019 7.83522L9.80513 15.2991C9.01313 15.5618 8.22079 15.8228 7.42813 16.0823C7.11927 16.1698 6.83211 16.3209 6.58507 16.5259C6.33802 16.7309 6.13655 16.9853 5.99356 17.2727C5.86075 17.5398 5.78345 17.831 5.76633 18.1287C5.74921 18.4265 5.79263 18.7246 5.89395 19.0051C6.00858 19.3035 6.18252 19.5756 6.40525 19.8049C6.62799 20.0342 6.89489 20.2159 7.18985 20.3391C9.16641 21.2121 11.1459 22.0774 13.1264 22.9173C13.5746 25.0345 14.0277 27.1503 14.4857 29.2649L14.6068 29.8352C14.7289 30.4221 14.852 31.0091 15.0023 31.5882C15.0476 31.8078 15.1456 32.0131 15.288 32.1863C15.4305 32.3596 15.613 32.4955 15.8197 32.5823C16.0391 32.6573 16.2734 32.6782 16.5026 32.6432C16.7318 32.6082 16.9492 32.5183 17.1361 32.3811C17.2162 32.3284 17.2924 32.2708 17.433 32.1643L18.3832 31.4524C19.4848 30.6282 20.5854 29.804 21.7006 28.9592C23.3725 30.3391 25.0482 31.7138 26.7279 33.0832C27.1615 33.4523 27.7095 33.6597 28.2787 33.6702C28.5133 33.6702 28.7463 33.6312 28.9682 33.5549C29.3432 33.4189 29.6765 33.188 29.9357 32.8847C30.1948 32.5814 30.3709 32.2161 30.4467 31.8245L34.9008 12.843C35.0415 12.2463 35.1889 11.6497 35.3354 11.054L35.5161 10.3147L35.5307 9.57741L35.4653 9.31374L35.4321 9.28053ZM17.4878 23.3157C17.2298 23.5967 17.0377 23.9316 16.9253 24.2962C16.7719 24.7883 16.6284 25.2844 16.4878 25.7805L15.8198 22.679L20.6391 19.9983C19.5854 21.1008 18.535 22.2066 17.4878 23.3157ZM18.6997 27.8508L19.0102 26.76L19.5561 27.2073L18.6997 27.8508ZM27.9643 30.6204L20.2553 24.2991L28.5053 15.6536C28.6378 15.5194 28.7584 15.374 28.8657 15.219C29.0154 14.9904 29.0909 14.7212 29.0819 14.4481C29.073 14.1751 28.9799 13.9114 28.8155 13.6932C28.6511 13.4749 28.4234 13.3127 28.1634 13.2287C27.9033 13.1448 27.6238 13.1431 27.3627 13.2239C27.1898 13.2832 27.0233 13.3597 26.8657 13.4524C22.6625 15.7893 18.4604 18.1262 14.1899 20.4788C12.7426 19.8381 11.2941 19.2011 9.84418 18.5676L9.26509 18.3137L32.6684 10.5842L27.9643 30.6204Z" fill="#F5B335"/>
<path d="M36.5398 0.0655403C36.4777 0.0492623 36.4171 0.0273236 36.359 0H4.6405C3.87511 0.130646 3.14579 0.420962 2.5 0.85206C1.98892 1.20821 1.55469 1.66352 1.22314 2.19089C0.891596 2.71826 0.6695 3.30693 0.570068 3.92188C0.551994 3.99638 0.528579 4.06949 0.5 4.14063V35.8587C0.637228 36.6812 0.963221 37.4606 1.45239 38.1358C1.87189 38.6949 2.41192 39.1523 3.0324 39.4741C3.65287 39.7959 4.33786 39.9738 5.0365 39.9946C5.14038 39.9997 5.24463 39.9992 5.34888 39.9992C15.4487 40.0005 25.5488 40.0002 35.6491 39.9985C36.6521 40.0358 37.6404 39.7476 38.4661 39.1769C39.2919 38.6061 39.9108 37.7836 40.2305 36.832C40.4005 36.3137 40.4876 35.7718 40.4887 35.2263C40.4998 25.0742 40.5026 14.9222 40.4972 4.7703C40.5212 3.63931 40.1329 2.53823 39.4047 1.67252C38.6765 0.806808 37.6582 0.23562 36.5398 0.0655403ZM37.3745 35.0481C37.4108 35.2956 37.3889 35.5482 37.3104 35.7857C37.232 36.0233 37.0993 36.2393 36.9227 36.4165C36.7462 36.5938 36.5308 36.7275 36.2935 36.8069C36.0563 36.8863 35.8038 36.9093 35.5561 36.874C32.822 36.8742 30.0879 36.8744 27.3536 36.8744H26.9219L22.0369 36.8576C21.9049 36.8633 21.7786 36.8736 21.6524 36.8736C16.2492 36.8745 10.8459 36.8746 5.44255 36.874C5.19486 36.9092 4.94238 36.8862 4.70516 36.8067C4.46795 36.7272 4.25255 36.5935 4.0761 36.4161C3.89965 36.2388 3.76701 36.0227 3.68872 35.7851C3.61044 35.5475 3.58868 35.2949 3.62516 35.0474C3.6248 25.022 3.62476 14.9966 3.62504 4.97142C3.58592 4.72083 3.60637 4.46454 3.68473 4.22332C3.76308 3.9821 3.89714 3.76272 4.07605 3.58295C4.25495 3.40317 4.47368 3.26806 4.71452 3.18854C4.95536 3.10902 5.21154 3.08733 5.46232 3.12523C15.4876 3.12474 25.5129 3.12474 35.5381 3.12523C35.7889 3.08742 36.0451 3.1092 36.2859 3.18882C36.5267 3.26844 36.7454 3.40365 36.9242 3.58351C37.1031 3.76337 37.237 3.98282 37.3153 4.22409C37.3935 4.46535 37.4138 4.72165 37.3745 4.97223C37.3748 14.9975 37.3748 25.0228 37.3745 35.0481Z" fill="#F5B335"/>
</svg>
