<svg width="40" height="40" viewBox="0 0 40 40" fill="none" xmlns="http://www.w3.org/2000/svg">
<path d="M9.37901 20.0157C9.37904 17.2816 9.37322 14.5474 9.3807 11.8133C9.38802 9.13465 11.6098 7.8187 13.9721 9.10701C19.0109 11.8549 24.0445 14.6121 29.073 17.3788C31.0019 18.4394 31.4616 20.5133 30.0975 22.0065C29.7914 22.3217 29.4354 22.5842 29.0439 22.7837C24.0142 25.499 18.9796 28.2054 13.9402 30.9029C11.5708 32.1705 9.38633 30.845 9.38031 28.1487C9.37426 25.4377 9.37898 22.7267 9.37901 20.0157ZM25.3036 20.0641L13.6013 13.6597V26.3542C17.505 24.2559 21.3319 22.1989 25.3036 20.0641Z" fill="#F5B335"/>
<path d="M40 4.06231V35.9358C39.9682 36.0178 39.9412 36.1015 39.9191 36.1866C39.4714 38.3846 37.5971 39.9899 35.3917 39.9922C25.1343 40.0027 14.8769 40.0026 4.61942 39.992C2.10295 39.9891 0.0100996 37.8941 0.00745152 35.3809C-0.00335637 25.1234 -0.00240715 14.8659 0.0102987 4.60833C0.0123179 3.11443 0.673179 1.9065 1.83992 0.972662C2.49581 0.447701 3.27183 0.207193 4.06445 0H35.9377C36.0198 0.0312709 36.1036 0.0581414 36.1886 0.0804973C37.5703 0.371864 38.6558 1.1055 39.3446 2.33612C39.6419 2.86737 39.7862 3.4843 40 4.06231ZM36.8752 19.9904C36.8752 14.9788 36.8751 9.96718 36.875 4.95557C36.875 3.72818 36.279 3.12499 35.0662 3.12497C25.0171 3.12478 14.9679 3.12479 4.9187 3.12501C3.73193 3.12504 3.12717 3.73539 3.12715 4.93303C3.1269 14.9823 3.12691 25.0315 3.12719 35.0808C3.12723 36.2669 3.73894 36.8731 4.93522 36.8731C14.9844 36.8734 25.0336 36.8733 35.0828 36.8731C36.2685 36.873 36.8749 36.2609 36.875 35.0643C36.8754 30.0396 36.8755 25.015 36.8752 19.9904Z" fill="#F5B335"/>
</svg>
