<svg width="99" height="50" viewBox="0 0 99 50" fill="none" xmlns="http://www.w3.org/2000/svg">
<g clipPath="url(#clip0_1179_18136)">
<mask id="mask0_1179_18136" style="mask-type:luminance" maskUnits="userSpaceOnUse" x="0" y="0" width="99" height="50">
<path d="M98.0469 0H0.546875V50H98.0469V0Z" fill="white"/>
</mask>
<g mask="url(#mask0_1179_18136)">
<path d="M90.8691 7.31567C86.0857 2.43856 80.1198 0 72.9719 0C65.824 0 59.8463 2.4537 55.0388 7.3611C50.2265 12.2701 47.8203 18.1497 47.8203 25C47.8203 31.914 50.1968 37.8112 54.9498 42.6915C59.7027 47.5718 65.6516 50.0103 72.7962 50.0072C79.9393 50.0072 85.9349 47.5535 90.7824 42.6461C95.6299 37.7387 98.0532 31.8591 98.0516 25.0072C98.0482 18.0883 95.6541 12.1912 90.8691 7.31567ZM85.6982 38.2519C82.3728 41.8252 78.1307 43.6119 72.9719 43.6119C67.9414 43.6119 63.7171 41.8062 60.2986 38.1945C56.8803 34.5829 55.172 30.1847 55.1736 25C55.1736 19.7547 56.8201 15.3255 60.1134 11.7122C63.4066 8.09904 67.6311 6.29403 72.7866 6.29722C77.8187 6.29722 82.0584 8.11817 85.5057 11.7601C88.9532 15.402 90.6774 19.8152 90.6791 25C90.6824 30.2485 89.0216 34.6658 85.6982 38.2519Z" fill="#F1F0E7"/>
<path d="M25.5204 6.29722C30.3833 6.29722 34.4978 8.01377 37.8809 11.411C38.8359 9.95808 39.9319 8.60158 41.1532 7.3611C41.5575 6.94989 41.981 6.58172 42.402 6.20397C37.8279 2.08472 32.2721 0 25.7081 0C18.5586 0 12.5777 2.4537 7.76536 7.3611C2.95303 12.2685 0.546875 18.1482 0.546875 25C0.546875 31.914 2.92336 37.8112 7.67633 42.6915C12.4293 47.5718 18.3773 50.0103 25.5204 50.0072C32.0651 50.0072 37.6355 47.9224 42.2529 43.8032C41.851 43.4398 41.4444 43.086 41.0498 42.6915C39.8714 41.4872 38.8119 40.1734 37.8856 38.7682C34.6445 41.9886 30.5878 43.6191 25.6985 43.6191C20.668 43.6191 16.4435 41.8133 13.0252 38.2017C9.60688 34.5901 7.9017 30.1895 7.90973 25C7.90973 19.7547 9.55554 15.3263 12.8471 11.7147C16.1388 8.10302 20.3632 6.29722 25.5204 6.29722Z" fill="#F1F0E7"/>
<path d="M71.5691 21.8044C71.4745 20.572 71.3138 19.3454 71.0879 18.1298C70.9916 17.6517 71.0879 17.384 71.6485 17.4413C73.0438 17.5811 74.4496 17.5811 75.8449 17.4413C76.302 17.3959 76.456 17.5465 76.3574 18.0295C76.071 19.4375 75.9628 20.8696 75.8112 22.2969C75.763 22.7464 75.8785 22.9137 76.3622 22.8826C77.7824 22.7947 79.1963 22.6263 80.597 22.3782C81.2828 22.2563 81.343 22.3351 81.2876 23.007C81.1661 24.3518 81.1661 25.7048 81.2876 27.0497C81.331 27.504 81.2443 27.6952 80.739 27.5972C79.3383 27.3494 77.9243 27.1825 76.5042 27.0975C75.8353 27.0449 75.7535 27.1215 75.816 27.7932C75.9508 29.2014 76.0783 30.6095 76.3478 31.9985C76.4344 32.4432 76.2684 32.5866 75.8353 32.5436C74.4188 32.3942 72.9904 32.3942 71.574 32.5436C70.97 32.613 71.0037 32.2855 71.0759 31.8814C71.3296 30.4902 71.4984 29.0851 71.5812 27.6737C71.61 27.1238 71.4272 27.0234 70.917 27.0736C69.5022 27.217 68.0826 27.3127 66.6846 27.5876C66.2419 27.6737 66.071 27.5207 66.1192 27.0927C66.2732 25.6855 66.2732 24.2659 66.1192 22.8587C66.0542 22.2754 66.408 22.2921 66.8098 22.3639C68.1452 22.6029 69.4926 22.7511 70.8473 22.873C71.5018 22.9329 71.7135 22.756 71.5691 22.1343C71.5594 22.0245 71.5594 21.9141 71.5691 21.8044Z" fill="#F1F0E7"/>
</g>
</g>
<defs>
<clipPath id="clip0_1179_18136">
<rect width="97.5" height="50" fill="white" transform="translate(0.546875)"/>
</clipPath>
</defs>
</svg>
