<svg width="169" height="51" viewBox="0 0 169 51" fill="none" xmlns="http://www.w3.org/2000/svg">
<path fill-rule="evenodd" clip-rule="evenodd" d="M23.0364 22.3567L23.6765 22.4979L21.3962 29.722H0.873047V28.9966H1.86556C2.32629 29.0395 2.79024 28.9614 3.21148 28.7699C3.63272 28.5784 3.99665 28.2801 4.26712 27.9046C4.54167 27.4873 4.67739 26.5236 4.67425 25.0136V7.74862C4.67425 6.08601 4.49184 5.04661 4.12708 4.63046C3.83668 4.32918 3.48354 4.09551 3.0927 3.94605C2.70185 3.79658 2.28289 3.735 1.86556 3.76564H0.873047V3.04022H12.8749V3.76564C11.8694 3.69049 10.8591 3.82267 9.90677 4.15396C9.41662 4.35731 9.00838 4.7184 8.74664 5.18001C8.54072 5.59713 8.43423 6.59199 8.43423 8.15223V24.9724C8.38267 25.7353 8.48902 26.5006 8.74664 27.2204C8.90967 27.5045 9.16689 27.7226 9.47378 27.837C10.4806 28.0235 11.5061 28.0888 12.5284 28.0317H14.4616C15.9055 28.1041 17.3519 27.9525 18.7493 27.5823C19.6221 27.2431 20.3965 26.6916 21.0026 25.9779C21.867 24.8854 22.5531 23.6633 23.0364 22.3567ZM36.8726 28.996V29.7214H25.511V28.996H26.4523C26.8985 29.0354 27.3478 28.9691 27.7636 28.8026C28.1795 28.6361 28.5504 28.374 28.8461 28.0376C29.1597 27.6157 29.3127 26.6097 29.3127 25.013V7.74804C29.3632 6.8508 29.2778 5.95106 29.0592 5.07939C28.8941 4.71418 28.6096 4.41602 28.2525 4.23396C27.7024 3.92539 27.0824 3.7633 26.4517 3.76327H25.5103V3.03792H36.8721V3.76327H35.9184C35.4772 3.72521 35.0333 3.79225 34.623 3.95883C34.2128 4.12542 33.8478 4.38683 33.5581 4.72167C33.2315 5.1435 33.0715 6.15012 33.0715 7.74625V25.0113C33.0215 25.9085 33.1068 26.8081 33.3245 27.6799C33.4898 28.0496 33.7804 28.3488 34.1452 28.5247C34.6846 28.8348 35.2962 28.9972 35.9184 28.9954L36.8726 28.996ZM55.4349 30.0026C56.4945 31.9816 57.9685 33.7087 59.7562 35.0663C61.3156 36.1532 63.1412 36.7954 65.0376 36.9242V37.5678C63.0751 37.4706 61.1352 37.1052 59.2719 36.4818C57.2254 35.8183 55.2719 34.8964 53.4587 33.7385C51.7492 32.6661 50.1595 31.4137 48.7168 30.0026C47.1285 29.3994 45.6285 28.585 44.2573 27.5816C42.679 26.3243 41.4122 24.7197 40.5556 22.8927C39.6317 20.8272 39.181 18.5814 39.2366 16.3193C39.1791 14.4903 39.4902 12.6684 40.1511 10.9621C40.8122 9.2557 41.8097 7.69965 43.0842 6.38661C44.2775 5.11571 45.7229 4.10794 47.328 3.42767C48.9331 2.7474 50.6625 2.40962 52.4057 2.43602C54.0991 2.4279 55.7752 2.77661 57.3249 3.45942C58.8746 4.14223 60.2631 5.1438 61.3999 6.39896C63.9337 9.04172 65.2007 12.373 65.2011 16.3929C65.2603 19.4746 64.3098 22.4912 62.4948 24.9824C60.767 27.3934 58.2842 29.1591 55.4396 29.9997L55.4349 30.0026ZM52.1691 3.96565C51.0837 3.92758 50.004 4.13802 49.0123 4.58084C48.0206 5.02366 47.1432 5.68716 46.4471 6.52076C44.6268 8.6603 43.7157 11.9312 43.7137 16.3335C43.7137 20.6479 44.6386 23.9699 46.4883 26.2997C47.1533 27.1676 48.0153 27.8649 49.0031 28.3336C49.9909 28.8024 51.0762 29.0292 52.1691 28.9954C53.2958 29.0319 54.4156 28.8075 55.4414 28.3399C56.4671 27.8723 57.3709 27.1741 58.0824 26.2997C59.8371 24.1817 60.7153 21.0497 60.7169 16.9036C60.7994 14.1513 60.3065 11.412 59.2696 8.86114C58.6704 7.3625 57.6432 6.0734 56.3162 5.15466C55.0795 4.36239 53.6377 3.94987 52.1691 3.96802V3.96565ZM95.1098 3.03965V3.76507C94.3306 3.86785 93.5948 4.18311 92.983 4.67636C92.1657 5.52408 91.5401 6.5375 91.1486 7.648L81.9407 30.3244H81.2194L71.3044 7.34623C71.0166 6.58942 70.6575 5.86166 70.2319 5.1729C69.9067 4.76461 69.4939 4.43466 69.024 4.20746C68.4154 3.94626 67.7647 3.79662 67.1032 3.76564V3.04022H77.9189V3.76564C76.6917 3.88331 75.8992 4.09335 75.5315 4.39634C75.3574 4.53451 75.2175 4.71106 75.1227 4.9122C75.028 5.11335 74.9811 5.33362 74.9856 5.5559C75.0983 6.62367 75.403 7.66232 75.8851 8.6217L82.6261 24.2429L88.8883 8.81639C89.3605 7.81629 89.6709 6.74754 89.8078 5.65005C89.7951 5.43929 89.738 5.23359 89.6403 5.04643C89.5425 4.85927 89.4064 4.69491 89.2407 4.56403C88.6852 4.14283 88.0219 3.88708 87.3274 3.82626C87.2615 3.81273 87.1474 3.79274 86.9945 3.76744V3.04202L95.1098 3.03965ZM110.23 2.4366C111.912 2.42865 113.576 2.77566 115.115 3.45489C116.653 4.13412 118.031 5.13033 119.158 6.37842C120.409 7.68733 121.388 9.23176 122.036 10.9221C122.685 12.6124 122.992 14.4148 122.938 16.2246C122.938 20.275 121.669 23.6375 119.131 26.312C117.955 27.5699 116.534 28.5744 114.956 29.264C113.378 29.9536 111.676 30.3138 109.954 30.3227C108.231 30.3315 106.526 29.9886 104.94 29.3152C103.355 28.6418 101.925 27.6519 100.735 26.4062C98.2546 23.7968 97.0146 20.421 97.0154 16.2788C97.0154 12.046 98.447 8.59151 101.31 5.91542C103.711 3.6287 106.916 2.37865 110.232 2.43545L110.23 2.4366ZM109.856 3.8445C108.766 3.80943 107.683 4.03165 106.695 4.49315C105.707 4.95465 104.842 5.64244 104.169 6.5008C102.388 8.70741 101.497 11.9359 101.494 16.1864C101.494 20.54 102.416 23.891 104.259 26.2396C104.916 27.0988 105.768 27.7895 106.744 28.2548C107.72 28.7202 108.792 28.9468 109.873 28.916C111.056 28.936 112.227 28.6817 113.295 28.1732C114.363 27.6646 115.298 26.9156 116.028 25.9849C117.649 24.0262 118.458 20.943 118.456 16.7353C118.456 12.1675 117.564 8.76267 115.781 6.52076C115.074 5.63883 114.168 4.93666 113.138 4.47153C112.108 4.00641 110.982 3.79155 109.853 3.8445H109.856ZM151.563 29.7214H144.463L135.455 17.2489C134.808 17.2748 134.281 17.2879 133.874 17.2883C133.708 17.2883 133.528 17.2807 133.344 17.2748C133.161 17.2689 132.957 17.2612 132.75 17.2489V25.0148C132.75 26.6909 132.93 27.7311 133.297 28.1329C133.579 28.4337 133.925 28.6676 134.309 28.8172C134.693 28.9669 135.106 29.0286 135.517 28.9978H136.551V29.7231H125.186V28.9978H126.179C126.641 29.0397 127.105 28.9602 127.526 28.7673C127.947 28.5744 128.31 28.2748 128.58 27.8982C128.853 27.4964 128.987 26.5297 128.987 25.0154V7.75041C128.987 6.07427 128.807 5.03409 128.44 4.63226C128.149 4.33094 127.797 4.09725 127.406 3.94777C127.015 3.7983 126.596 3.73673 126.179 3.76744H125.186V3.04202H134.842C137.661 3.04202 139.737 3.24796 141.069 3.65979C142.402 4.07193 143.585 4.86721 144.469 5.94658C145.403 7.05294 145.902 8.46236 145.87 9.91009C145.894 11.4843 145.325 13.01 144.275 14.1831C143.209 15.3904 141.569 16.2423 139.333 16.7459L144.82 24.3853C146.073 26.142 147.147 27.3163 148.048 27.8929C149.117 28.5296 150.32 28.9083 151.561 28.9989L151.563 29.7214ZM132.747 15.9975C132.994 15.9975 133.207 15.9975 133.387 16.0051C133.567 16.0128 133.713 16.0175 133.828 16.0175C136.328 16.0175 138.213 15.4684 139.482 14.3702C140.095 13.8563 140.585 13.2108 140.916 12.4817C141.246 11.7526 141.407 10.9585 141.389 10.1584C141.418 9.41271 141.297 8.66878 141.034 7.9706C140.77 7.27243 140.369 6.63422 139.855 6.09366C139.319 5.56765 138.681 5.15747 137.98 4.88865C137.279 4.61982 136.531 4.49811 135.781 4.53107C134.761 4.56215 133.745 4.68322 132.747 4.89288V15.9975Z" fill="#F1F0E7"/>
<path fill-rule="evenodd" clip-rule="evenodd" d="M62.4221 44.5656V43.8596C63.3568 42.8462 64.1684 41.8852 64.8571 40.9768L66.4827 38.8294C66.7799 38.406 67.1351 38.0266 67.5381 37.7023C67.8742 37.4771 68.273 37.3646 68.6772 37.381C68.9043 37.381 69.0189 37.4669 69.0189 37.6434C68.9825 37.8742 68.8848 38.091 68.736 38.2711C68.5297 38.5747 68.2932 38.8567 68.03 39.1125C67.5985 39.5445 67.2166 40.0234 66.8916 40.5403C66.5123 41.1287 66.1005 41.8488 65.6561 42.7007L66.9081 41.7005L68.0753 40.7898C68.353 40.583 68.6512 40.4055 68.9654 40.2602C69.2467 40.1391 69.5493 40.0752 69.8555 40.072C69.9836 40.0565 70.113 40.0894 70.218 40.1644C70.2934 40.2837 70.325 40.4255 70.3074 40.5656C70.3027 41.088 70.1749 41.602 69.9344 42.0659C69.6447 42.6187 69.2842 43.1312 68.8619 43.5908C68.3202 44.1919 67.7466 44.7634 67.1434 45.3028C67.3771 45.3862 67.623 45.4304 67.8712 45.4334C68.6415 45.4334 69.6905 44.8402 71.0181 43.6537V44.3815C70.5247 44.8196 70.0266 45.2475 69.5237 45.6652C69.0912 46.0344 68.6261 46.3636 68.1342 46.6489C67.7743 46.8679 67.3643 46.9912 66.9434 47.0072C66.881 47.0072 66.8122 47.0031 66.7398 46.9972C66.6618 46.9892 66.5845 46.9754 66.5086 46.956C66.3663 46.9371 66.2263 46.9037 66.0909 46.856L65.5979 46.6625L65.1325 46.49L64.7666 46.5724C64.4709 46.5523 64.1862 46.4522 63.9429 46.283C63.6709 46.8181 63.4291 47.368 63.2187 47.9302C62.9457 48.6309 62.7222 49.1799 62.5421 49.5776C62.3506 49.9987 62.1033 50.3921 61.8067 50.7472C61.7151 50.8628 61.5928 50.9503 61.4537 50.9996C61.1643 50.9996 61.0195 50.7431 61.0195 50.23C61.026 49.7497 61.1181 49.2744 61.2914 48.8263C61.4662 48.3526 61.6849 47.8963 61.9444 47.4631C62.1962 47.045 62.4811 46.6136 62.7992 46.1689L63.4558 45.1793C64.5281 43.3359 65.3568 41.775 65.942 40.4968C64.3928 42.3795 63.2212 43.7341 62.4274 44.5609L62.4221 44.5656ZM66.5239 45.0622C67.0718 44.5088 67.5717 43.9099 68.0182 43.2719C68.2774 42.945 68.4465 42.556 68.5089 42.1435C68.516 42.0925 68.5111 42.0406 68.4945 41.9918C68.478 41.9431 68.4503 41.8988 68.4137 41.8626C68.3771 41.8264 68.3326 41.7992 68.2836 41.7832C68.2347 41.7672 68.1827 41.7629 68.1318 41.7705C67.5786 41.8822 67.0778 42.1737 66.7074 42.5995C65.9959 43.2771 65.3643 44.0339 64.8248 44.8551C64.9937 44.8392 65.1778 44.828 65.3867 44.8216C65.5955 44.8151 65.7397 44.8145 65.8244 44.8145C66.0732 44.8453 66.3124 44.93 66.5251 45.0628L66.5239 45.0622ZM78.504 43.7167V44.3556C77.9521 44.9133 77.445 45.4075 76.9784 45.8323C76.634 46.1468 76.2636 46.4316 75.8712 46.6836C75.6289 46.8572 75.3445 46.9624 75.0476 46.9884C74.5232 46.9884 74.2609 46.6775 74.2609 46.0559C74.2917 45.4491 74.4594 44.8572 74.7516 44.3244C75.1641 43.5167 75.6361 42.7407 76.1636 42.0029C75.86 42.1638 75.5736 42.3552 75.3088 42.5741C75.0473 42.7872 74.8057 43.0235 74.5869 43.2802L74.0574 43.8844C73.6815 44.3121 73.2608 44.8156 72.7943 45.4022L71.9765 46.4059C71.9292 46.4706 71.869 46.5246 71.7996 46.5646C71.7302 46.6047 71.6531 46.6298 71.5735 46.6383C71.044 46.6383 70.7833 45.9911 70.7833 44.6968C70.7891 44.223 70.8516 43.7515 70.9693 43.2925C71.2028 42.5637 71.5527 41.8775 72.0053 41.2604C73.191 39.479 74.2018 38.0309 75.0376 36.9162C75.6816 36.0364 76.3739 35.1931 77.1114 34.39C77.6567 33.8205 78.0322 33.5352 78.2334 33.5352C78.4311 33.5432 78.6253 33.5897 78.8052 33.6722C78.944 33.7422 79.0164 33.8281 79.0241 33.9281C78.9748 34.2247 78.8591 34.5062 78.6857 34.7518C78.4575 35.1342 78.058 35.7419 77.4779 36.5756L76.1736 38.4182L75.0216 39.922L73.6285 41.661C73.2104 42.1678 72.7319 42.7169 72.193 43.3084V44.5227C73.0892 43.5253 73.8701 42.7016 74.5357 42.0517C74.8805 41.7234 75.1829 41.4446 75.4394 41.2169C75.6959 40.9892 75.9565 40.7886 76.2159 40.6062C76.5026 40.3556 76.8498 40.1844 77.2232 40.1096C77.3384 40.1211 77.4492 40.1594 77.5469 40.2217C77.6445 40.2839 77.7261 40.3683 77.785 40.4679C77.9317 40.6323 78.0245 40.8376 78.0509 41.0563C78.0409 41.1488 78.0066 41.2371 77.9515 41.3122C77.4544 41.9005 77.069 42.3812 76.7954 42.7442C76.5518 43.063 76.3339 43.4005 76.1436 43.7537C76.0016 43.9936 75.9173 44.2634 75.8977 44.5415C75.8977 44.8589 76.0497 45.0173 76.3536 45.0169C76.678 45.0169 77.3958 44.5821 78.5069 43.7126L78.504 43.7167ZM79.6871 41.9123C80.5744 41.078 81.5816 40.3814 82.6752 39.8455C83.3646 39.4709 84.1222 39.2387 84.9032 39.1625C84.9777 39.1646 85.051 39.1819 85.1187 39.2132C85.1863 39.2446 85.2469 39.2894 85.2968 39.3449C85.4169 39.4504 85.5123 39.5812 85.5762 39.7279C85.6283 39.8436 85.6664 39.965 85.6898 40.0897C85.6951 40.144 85.6846 40.1986 85.6597 40.2471C85.6347 40.2956 85.5964 40.3359 85.5491 40.3632C85.482 40.398 85.4129 40.4288 85.3421 40.4556C85.2386 40.4944 85.142 40.5321 85.0561 40.5668L85.2356 40.9786L85.4044 41.3904C85.4397 41.4771 85.4596 41.5693 85.4633 41.6628C85.3779 42.0031 85.2084 42.3165 84.9702 42.5741C84.7843 42.8224 84.6461 43.0125 84.5584 43.1395C84.5172 43.1919 84.4272 43.3266 84.286 43.5437C84.1524 43.776 84.0855 44.0406 84.0925 44.3085C84.0925 44.8098 84.3237 45.0575 84.7826 45.0575C85.2532 45.0575 85.9898 44.6157 86.9935 43.7332V44.3538C85.2959 46.2588 84.077 47.2112 83.3365 47.2108C83.2276 47.2206 83.1181 47.201 83.0193 47.1543C82.9205 47.1075 82.8361 47.0352 82.7746 46.9448C82.6503 46.712 82.5928 46.4493 82.6087 46.1859C82.6719 45.3831 82.8667 44.5962 83.1853 43.8567C82.1804 44.9679 81.4444 45.7501 80.9773 46.2035C80.6813 46.5622 80.2661 46.8023 79.8077 46.8801C79.6653 46.8801 79.4829 46.7554 79.2623 46.5065C79.0102 46.2061 78.8056 45.8688 78.6557 45.5063C78.5784 45.3029 78.5171 45.0939 78.4722 44.881C78.4282 44.668 78.4051 44.4513 78.4033 44.2338C78.3985 43.9676 78.4287 43.702 78.4933 43.4437C78.5658 43.2037 78.6859 42.9808 78.8464 42.7883C78.9511 42.6513 79.0641 42.5209 79.1846 42.3977C79.3229 42.2529 79.4882 42.0906 79.6853 41.9076L79.6871 41.9123ZM84.5314 40.798C83.2197 41.3532 81.9658 42.036 80.7878 42.8365C80.4778 43.0177 80.2147 43.2692 80.0198 43.5708C79.8249 43.8724 79.7037 44.2156 79.6659 44.5727C79.6597 44.7556 79.6978 44.9373 79.7771 45.1022C79.8025 45.1622 79.8447 45.2135 79.8985 45.2502C79.9523 45.287 80.0155 45.3075 80.0806 45.3093C80.2201 45.2902 80.354 45.2421 80.4737 45.1681C80.8317 44.9563 81.1722 44.7163 81.4921 44.4503C81.8228 44.1707 82.1317 43.8659 82.4158 43.539C83.1677 42.6613 83.8746 41.7461 84.5337 40.7968L84.5314 40.798ZM86.8046 44.5044V43.8473C87.1091 43.5016 87.3862 43.1328 87.6336 42.7442C87.4558 42.6907 87.2928 42.5972 87.1571 42.4706C87.0549 42.3313 87.006 42.1599 87.0194 41.9876C87.0466 41.6617 87.1493 41.3467 87.3194 41.0675C87.4221 40.8866 87.5338 40.711 87.6542 40.5415C87.78 40.3605 87.9175 40.188 88.066 40.025C88.2868 39.7595 88.5634 39.5459 88.8761 39.3995C88.9636 39.3637 89.0554 39.3394 89.1491 39.3272C89.2838 39.3272 89.3486 39.389 89.3486 39.5167C89.293 39.7667 89.1873 40.0028 89.0379 40.2108C89.7522 40.1032 90.3181 40.025 90.7353 39.9703C91.043 39.9263 91.3529 39.8996 91.6636 39.8902C91.7632 39.8846 91.8629 39.8974 91.9578 39.9279C92.0977 40.0344 92.1972 40.1851 92.2402 40.3555C92.3119 40.5706 92.3494 40.7955 92.3514 41.0222C92.3401 41.1938 92.2736 41.3573 92.1619 41.4881C92.0643 41.6158 91.8507 41.8599 91.5148 42.2217C91.1716 42.5928 90.8753 43.0046 90.6323 43.4478C90.4319 43.7604 90.3045 44.1141 90.2598 44.4827C90.2598 44.8 90.4559 44.9587 90.8482 44.9587C91.2514 44.9587 91.9655 44.538 92.9903 43.6967V44.3721C92.4385 44.9563 91.9754 45.4181 91.6071 45.7599C91.2953 46.0495 90.9609 46.3138 90.607 46.5501C90.361 46.7333 90.0676 46.8421 89.7616 46.8636C89.6214 46.8627 89.4836 46.8273 89.3605 46.7603C89.2373 46.6934 89.1325 46.5972 89.0555 46.48C88.9573 46.3374 88.8863 46.1779 88.8461 46.0094C88.7936 45.7946 88.7688 45.5739 88.7726 45.3528C88.7846 45.0168 88.8586 44.6859 88.9908 44.3768C89.1667 43.9532 89.3835 43.5477 89.638 43.166C89.9349 42.7094 90.2599 42.2716 90.6111 41.8552L89.9763 41.9887L89.2273 42.1212C89.1138 42.1376 89.0003 42.1547 88.8832 42.1682C88.7896 42.1894 88.7038 42.2094 88.6214 42.2312C88.1741 43.1036 87.5556 43.8769 86.8029 44.5051L86.8046 44.5044ZM97.571 45.1034C97.8992 44.8139 98.2299 44.5238 98.5605 44.2344C99.0059 43.8449 99.4713 43.4208 99.9649 42.9613L101.532 41.5158L102.542 40.6297C102.826 40.3838 103.013 40.2626 103.098 40.2626C103.239 40.2626 103.384 40.425 103.532 40.7498C103.659 40.9907 103.735 41.255 103.757 41.5264C103.757 41.6535 103.541 41.9572 103.109 42.4377C102.713 42.8758 102.393 43.2527 102.151 43.5684C101.953 43.8224 101.842 44.1336 101.836 44.4556C101.834 44.5384 101.85 44.6206 101.881 44.6971C101.913 44.7736 101.96 44.8429 102.019 44.9004C102.139 45.0055 102.294 45.0633 102.454 45.0628C102.711 45.0332 102.954 44.926 103.15 44.7556C103.427 44.5485 103.856 44.1897 104.444 43.6755V44.3932C104.155 44.6656 103.868 44.9275 103.588 45.1793C103.308 45.4311 103.064 45.6499 102.846 45.8323C102.453 46.1647 102.034 46.4668 101.595 46.736C101.329 46.9049 101.026 47.006 100.712 47.0302C100.614 47.031 100.516 47.0104 100.426 46.9698C100.336 46.9291 100.256 46.8694 100.192 46.7948C100.046 46.6341 99.9677 46.4234 99.9731 46.2065C99.9763 45.9718 100.017 45.7392 100.094 45.5175C100.199 45.2338 100.321 44.957 100.46 44.6886C100.623 44.3715 100.847 43.979 101.137 43.5054L101.896 42.25C101.205 42.8097 100.598 43.347 100.072 43.862C99.5425 44.3786 99.1059 44.8345 98.7612 45.2311L97.964 46.1383C97.8413 46.3098 97.6845 46.4541 97.5034 46.5621C97.3223 46.6702 97.1207 46.7395 96.9115 46.7659C96.5632 46.7659 96.3873 46.5177 96.3873 46.017C96.4503 45.6359 96.5835 45.2699 96.7803 44.9375C97.0426 44.4127 97.418 43.7479 97.9016 42.9372C97.9491 42.862 97.971 42.7734 97.964 42.6848C97.968 42.6573 97.9654 42.6292 97.9565 42.6029C97.9477 42.5766 97.9326 42.5528 97.9128 42.5333C97.893 42.5139 97.8688 42.4994 97.8424 42.4911C97.8159 42.4828 97.7878 42.4807 97.7604 42.4853C97.6257 42.4853 97.4121 42.6259 97.1133 42.9095C96.9585 43.0642 96.755 43.2754 96.5067 43.5472C96.2294 43.8445 95.8923 44.2148 95.4954 44.658C95.221 44.9688 94.9674 45.2974 94.7364 45.6417C94.6017 45.8347 94.484 46.0035 94.377 46.1418C94.2699 46.28 94.1946 46.3771 94.1416 46.4389C94.0981 46.4963 94.043 46.544 93.98 46.5791C93.917 46.6141 93.8475 46.6357 93.7757 46.6424C93.5345 46.6424 93.305 46.4253 93.0991 45.9953C92.9959 45.7743 92.917 45.5427 92.8638 45.3046C92.809 45.0367 92.7824 44.7638 92.7844 44.4903C92.7741 44.1189 92.8436 43.7496 92.988 43.4072C93.0603 43.2448 93.1462 43.0789 93.2438 42.9066C93.3415 42.7342 93.4709 42.523 93.6327 42.2747C93.9588 41.7769 94.3273 41.3083 94.7341 40.8739C94.8493 40.7459 94.9893 40.6425 95.1457 40.5702C95.302 40.4979 95.4714 40.4581 95.6436 40.4532C95.8147 40.4482 95.9841 40.4888 96.1343 40.5709C96.1954 40.5986 96.2473 40.6432 96.284 40.6993C96.3207 40.7555 96.3406 40.8209 96.3414 40.888C96.2848 41.1511 96.1555 41.393 95.9684 41.5864C95.8472 41.7481 95.7101 41.9094 95.5566 42.0753C95.403 42.2412 95.2318 42.4136 95.0324 42.596C94.8133 42.806 94.6221 43.0432 94.4634 43.3019C94.3239 43.4865 94.2305 43.7017 94.191 43.9297C94.191 44.1132 94.2634 44.2032 94.4046 44.2032C94.5117 44.2032 94.8018 43.9679 95.2707 43.4973L96.8003 41.9617C97.2871 41.4699 97.8033 41.0081 98.3464 40.5791C98.6824 40.2721 99.1059 40.0777 99.5578 40.0232C99.6528 40.021 99.7471 40.0404 99.8337 40.0797C99.9203 40.119 99.9969 40.1773 100.058 40.2503C100.19 40.406 100.26 40.6054 100.254 40.8098C100.201 41.093 100.097 41.3641 99.9467 41.6099C99.6793 42.1086 99.3835 42.5914 99.0607 43.056C98.65 43.6596 98.1519 44.346 97.5663 45.1152L97.571 45.1034ZM105.559 41.9123C106.446 41.0783 107.453 40.3817 108.546 39.8455C109.236 39.4711 109.993 39.2388 110.775 39.1625C110.849 39.1649 110.923 39.1823 110.99 39.2137C111.058 39.245 111.118 39.2896 111.168 39.3449C111.288 39.4508 111.383 39.5815 111.448 39.7279C111.5 39.8436 111.538 39.965 111.561 40.0897C111.567 40.144 111.556 40.1986 111.531 40.2471C111.506 40.2956 111.468 40.3359 111.421 40.3632C111.353 40.3981 111.284 40.4289 111.213 40.4556C111.11 40.4944 111.014 40.5321 110.926 40.5668L111.106 40.9786L111.275 41.3904C111.311 41.4771 111.331 41.5693 111.334 41.6628C111.249 42.0034 111.079 42.3169 110.84 42.5741C110.654 42.8224 110.517 43.0125 110.428 43.1395C110.387 43.1919 110.297 43.3266 110.156 43.5437C110.023 43.7762 109.956 44.0407 109.963 44.3085C109.963 44.8098 110.195 45.0575 110.653 45.0575C111.124 45.0575 111.861 44.6157 112.864 43.7332V44.3538C111.167 46.2588 109.948 47.2112 109.207 47.2108C109.098 47.2204 108.989 47.2008 108.89 47.1541C108.791 47.1074 108.706 47.0351 108.644 46.9448C108.521 46.7117 108.464 46.4492 108.48 46.1859C108.543 45.3833 108.737 44.5965 109.055 43.8567C108.052 44.9679 107.316 45.7501 106.846 46.2035C106.551 46.5624 106.136 46.8027 105.677 46.8801C105.536 46.8801 105.353 46.7554 105.132 46.5065C104.88 46.2058 104.675 45.8685 104.524 45.5063C104.447 45.3031 104.386 45.0939 104.342 44.881C104.298 44.668 104.274 44.4513 104.272 44.2338C104.267 43.9676 104.297 43.702 104.362 43.4437C104.435 43.204 104.555 42.9812 104.715 42.7883C104.819 42.6511 104.932 42.5206 105.053 42.3977C105.191 42.2529 105.357 42.0906 105.554 41.9076L105.559 41.9123ZM110.402 40.798C109.09 41.3534 107.836 42.0362 106.658 42.8365C106.348 43.0179 106.086 43.2695 105.891 43.5711C105.696 43.8727 105.575 44.2158 105.537 44.5727C105.531 44.7555 105.569 44.9372 105.648 45.1022C105.673 45.1623 105.715 45.2138 105.769 45.2505C105.823 45.2872 105.887 45.3076 105.952 45.3093C106.092 45.2901 106.226 45.242 106.345 45.1681C106.703 44.9565 107.043 44.7165 107.362 44.4503C107.694 44.171 108.003 43.8663 108.287 43.539C109.038 42.6613 109.744 41.7461 110.402 40.7968V40.798ZM118.97 43.7396V44.4162C118.255 45.1222 117.669 45.6681 117.213 46.0541C116.821 46.4036 116.393 46.7114 115.937 46.9725C115.583 47.1778 115.184 47.2903 114.775 47.2996C114.393 47.2929 114.029 47.1353 113.763 46.8613C113.432 46.5376 113.182 46.1409 113.032 45.7029C112.851 45.2207 112.76 44.7098 112.762 44.195C112.754 43.7716 112.859 43.3538 113.066 42.9842C113.395 42.4696 113.79 41.9996 114.239 41.5858C114.818 41.0023 115.458 40.4829 116.148 40.0367C116.558 39.7333 117.039 39.5401 117.545 39.4754C117.659 39.4729 117.772 39.4939 117.878 39.5371C117.984 39.5803 118.079 39.6448 118.159 39.7266C118.242 39.8105 118.307 39.9103 118.351 40.0202C118.394 40.13 118.415 40.2476 118.411 40.3656C118.371 40.6946 118.255 41.0098 118.073 41.2869C117.868 41.664 117.617 42.0138 117.324 42.3276C117.052 42.6218 116.835 42.7636 116.677 42.7636C116.5 42.7636 116.412 42.6665 116.412 42.4806L116.422 42.3276L116.433 42.187C116.437 42.1579 116.43 42.1282 116.413 42.1039C116.397 42.0796 116.371 42.0624 116.343 42.0558C116.27 42.0572 116.199 42.0813 116.14 42.1247C115.94 42.2671 115.719 42.4189 115.484 42.5901C115.174 42.8148 114.929 42.9907 114.757 43.126C114.534 43.2922 114.334 43.4854 114.159 43.7014C114.024 43.879 113.948 44.0956 113.945 44.3191C113.939 44.4997 113.97 44.6795 114.037 44.8471C114.105 45.0148 114.206 45.1666 114.335 45.2928C114.469 45.4183 114.626 45.5159 114.798 45.5798C114.97 45.6438 115.152 45.6728 115.335 45.6652C115.872 45.6283 116.391 45.4624 116.85 45.1816C117.596 44.7583 118.306 44.2762 118.975 43.7396H118.97ZM120.546 44.0926V44.3444C120.526 44.6793 120.631 45.0097 120.84 45.2716C120.936 45.3803 121.055 45.4664 121.188 45.5237C121.321 45.581 121.465 45.608 121.609 45.6029C121.965 45.5962 122.316 45.516 122.64 45.3675C123.005 45.2087 123.35 45.0077 123.668 44.7686C124 44.5204 124.434 44.1705 124.973 43.719V44.3368C124.345 45.1161 123.628 45.82 122.837 46.4347C122.256 46.8961 121.541 47.1563 120.799 47.176C120.524 47.1837 120.25 47.1239 120.003 47.0019C119.755 46.8799 119.541 46.6994 119.38 46.4759C118.999 45.9179 118.813 45.2496 118.85 44.575C118.841 43.9046 119.01 43.244 119.34 42.6601C119.776 41.9671 120.324 41.3508 120.961 40.8362C121.416 40.4389 121.925 40.1088 122.473 39.8561C122.901 39.6501 123.368 39.5342 123.843 39.5154C124.11 39.5016 124.374 39.5794 124.592 39.7361C124.682 39.8064 124.755 39.896 124.806 39.9985C124.855 40.12 124.878 40.2501 124.875 40.3809C124.863 40.8437 124.697 41.2894 124.404 41.6475C123.992 42.1459 123.497 42.5694 122.941 42.8995C122.178 43.3622 121.377 43.7605 120.547 44.0903L120.546 44.0926ZM120.65 43.4296C121.205 43.2254 121.724 42.9343 122.188 42.5671C122.558 42.2783 122.882 41.9338 123.147 41.5458C123.305 41.3376 123.414 41.0961 123.464 40.8397C123.464 40.685 123.396 40.6091 123.253 40.6091C123.044 40.638 122.844 40.7158 122.67 40.8362C122.373 41.0164 122.092 41.2209 121.829 41.4475C121.544 41.7089 121.293 42.0038 121.08 42.3259C120.865 42.6607 120.718 43.0351 120.649 43.4272L120.65 43.4296ZM129.734 43.0366C129.241 43.6919 128.813 44.2454 128.45 44.6968C128.061 45.1763 127.744 45.5416 127.501 45.8005C126.995 46.3461 126.579 46.6187 126.255 46.6183C126.125 46.616 125.996 46.5877 125.876 46.535C125.757 46.4822 125.649 46.4061 125.559 46.3112C125.326 46.0631 125.151 45.7673 125.045 45.4446C124.93 45.0679 124.872 44.6763 124.872 44.2826C124.869 44.0381 124.893 43.794 124.945 43.5549C124.967 43.4554 124.994 43.3572 125.027 43.2608C125.083 43.1175 125.153 42.9797 125.234 42.8489C125.396 42.5498 125.583 42.2646 125.793 41.9964C126.042 41.6693 126.327 41.3234 126.648 40.9692L127.156 40.3715C127.265 40.2352 127.403 40.1249 127.56 40.0485C127.767 39.974 127.987 39.942 128.207 39.9544C128.412 39.9536 128.616 39.9812 128.813 40.0367C129.01 40.089 129.108 40.1514 129.118 40.2162C129.066 40.4542 128.965 40.6787 128.82 40.8751C128.541 41.296 128.218 41.6855 127.855 42.037C127.379 42.5173 126.87 42.9625 126.33 43.369C126.226 43.6633 126.161 43.9695 126.136 44.2803C126.136 44.5697 126.247 44.7145 126.472 44.7145C126.622 44.6842 126.761 44.6139 126.875 44.511L127.824 43.7144L129.038 42.6648C129.381 42.3564 129.689 42.0107 129.956 41.634C130.215 41.2789 130.496 40.9392 130.795 40.6168C131.288 40.0991 131.626 39.7567 131.812 39.5961C131.953 39.4535 132.141 39.3673 132.342 39.3536C132.404 39.3469 132.467 39.3576 132.523 39.3845C132.58 39.4114 132.628 39.4535 132.662 39.506C132.742 39.7004 132.774 39.911 132.756 40.1203C132.759 40.2288 132.749 40.3373 132.725 40.4432C132.709 40.5007 132.687 40.5562 132.659 40.6091C132.636 40.6538 132.597 40.7198 132.542 40.8063L132.039 41.5652L131.127 42.876C130.94 43.1519 130.777 43.4438 130.64 43.7485C130.52 43.9756 130.445 44.224 130.42 44.4797C130.42 44.8298 130.558 45.0057 130.831 45.0057C131.125 44.9822 131.407 44.8806 131.649 44.7115C132.128 44.4032 132.588 44.0655 133.025 43.7002V44.3733L131.276 45.9535C130.974 46.2201 130.651 46.4623 130.31 46.6777C130.073 46.8421 129.795 46.9362 129.506 46.9495C128.94 46.9495 128.658 46.6154 128.658 45.9423C128.679 45.5915 128.761 45.2472 128.902 44.9251C129.061 44.5039 129.336 43.8767 129.729 43.0372L129.734 43.0366ZM136.489 38.4818H136.924C137.178 37.9846 137.505 37.5284 137.894 37.1286C138.029 37.0026 138.185 36.9001 138.354 36.825C138.522 36.7568 138.702 36.7228 138.883 36.7251C139.253 36.7251 139.439 36.8074 139.439 36.9774C139.345 37.2181 139.201 37.4365 139.018 37.6187C138.778 37.9115 138.554 38.218 138.349 38.5365L138.953 38.6053L139.377 38.6577C138.958 39.426 138.474 40.1575 137.932 40.8445L137.461 40.8133L137.065 40.7821L136.594 40.7403C136.257 41.2863 135.95 41.8133 135.673 42.3212C135.555 42.5483 135.446 42.763 135.359 42.963C135.273 43.163 135.187 43.3696 135.107 43.5872C134.988 43.9391 134.923 44.3068 134.914 44.678C134.914 45.1434 135.101 45.3787 135.469 45.3787C135.835 45.3381 136.182 45.1972 136.473 44.9716C136.694 44.8227 136.935 44.6509 137.193 44.4574C137.452 44.2638 137.77 44.0126 138.14 43.702V44.3774C136.321 46.3545 134.977 47.3439 134.106 47.3455C133.965 47.3495 133.825 47.3195 133.697 47.2581C133.57 47.1967 133.459 47.1055 133.375 46.9925C133.18 46.7296 133.081 46.408 133.095 46.0812C133.106 45.7803 133.157 45.4822 133.246 45.1946C133.295 45.0246 133.368 44.8075 133.464 44.5357C133.559 44.2639 133.678 43.9685 133.813 43.6379L133.54 43.879L133.309 44.0938L133.085 44.2939L132.843 44.5086V43.8073C133.834 42.8823 134.696 41.83 135.41 40.678L135.128 40.6715L134.813 40.6615C134.514 40.651 134.215 40.6773 133.923 40.7398L133.692 40.8121L133.55 40.8433C133.522 40.8157 133.509 40.795 133.509 40.7809C133.558 40.4189 133.7 40.0757 133.921 39.7849C134.094 39.4798 134.307 39.1998 134.556 38.9525C134.764 38.7604 135.022 38.6313 135.301 38.58C135.693 38.5063 136.092 38.4735 136.49 38.4823L136.489 38.4818ZM142.259 39.2072C142.081 39.2028 141.91 39.134 141.778 39.0136C141.706 38.9558 141.648 38.8823 141.609 38.7987C141.57 38.7151 141.55 38.6236 141.551 38.5312C141.584 38.1664 141.733 37.8218 141.975 37.5475C142.069 37.3926 142.198 37.2617 142.351 37.1651C142.504 37.0686 142.678 37.0092 142.858 36.9916C142.954 36.9865 143.05 37.002 143.14 37.0372C143.229 37.0724 143.31 37.1265 143.377 37.1956C143.444 37.2647 143.495 37.3474 143.527 37.4381C143.56 37.5287 143.572 37.6252 143.564 37.7211C143.535 38.076 143.391 38.4115 143.152 38.6759C143.056 38.8277 142.925 38.9548 142.77 39.0468C142.615 39.1387 142.441 39.1931 142.262 39.2054L142.259 39.2072ZM142.946 43.7196V44.458C142.42 45.1706 141.806 45.813 141.117 46.3694C140.715 46.7297 140.209 46.9543 139.672 47.0113C139.402 47.0074 139.14 46.9206 138.921 46.7627C138.703 46.6048 138.538 46.3836 138.45 46.1288C138.173 45.5373 138.033 44.8915 138.038 44.2386C138.034 44.097 138.039 43.9554 138.051 43.8143C138.072 43.6783 138.1 43.5433 138.134 43.4101C138.175 43.2321 138.234 43.0588 138.311 42.8931C138.352 42.8072 138.401 42.706 138.461 42.596C138.522 42.4859 138.61 42.34 138.725 42.1641C139.674 40.6737 140.549 39.9285 141.35 39.9285C141.762 39.9285 141.968 40.0909 141.968 40.4086C141.915 40.7706 141.779 41.1155 141.571 41.4164C141.377 41.7758 141.137 42.1085 140.857 42.4059C140.455 42.784 140.072 43.1824 139.711 43.5996C139.538 43.8139 139.444 44.081 139.445 44.3562C139.443 44.4712 139.466 44.5854 139.514 44.6903C139.561 44.7952 139.631 44.8882 139.719 44.9628C139.915 45.1306 140.167 45.2181 140.425 45.2075C140.799 45.1888 141.161 45.0666 141.471 44.8545C141.99 44.5129 142.484 44.1332 142.947 43.7185L142.946 43.7196Z" fill="#F1F0E7"/>
<path fill-rule="evenodd" clip-rule="evenodd" d="M148.942 43.7947V44.4624C148.227 45.157 147.641 45.6958 147.185 46.0786C146.792 46.4237 146.364 46.7273 145.909 46.9846C145.554 47.1871 145.155 47.2979 144.747 47.307C144.366 47.3007 144.003 47.1455 143.735 46.8745C143.405 46.5563 143.155 46.1649 143.004 45.732C142.824 45.2568 142.733 44.7525 142.735 44.2442C142.727 43.8261 142.832 43.4137 143.038 43.0499C143.368 42.5415 143.762 42.078 144.211 41.6708C144.791 41.0938 145.431 40.5809 146.12 40.1412C146.531 39.8414 147.012 39.6508 147.517 39.5876C147.63 39.5849 147.744 39.6055 147.849 39.6481C147.955 39.6907 148.051 39.7544 148.131 39.8353C148.214 39.9175 148.279 40.0159 148.323 40.1244C148.366 40.2329 148.387 40.3491 148.383 40.466C148.343 40.7911 148.227 41.1023 148.045 41.3749C147.84 41.7475 147.588 42.0925 147.296 42.4016C147.024 42.6887 146.807 42.8316 146.649 42.8316C146.472 42.8316 146.384 42.7357 146.384 42.5522L146.394 42.4016L146.404 42.2627C146.408 42.2338 146.401 42.2046 146.384 42.1807C146.367 42.1567 146.342 42.1399 146.314 42.1333C146.241 42.1349 146.17 42.1584 146.111 42.2009C145.911 42.3409 145.69 42.4951 145.456 42.6604C145.145 42.8822 144.9 43.0558 144.728 43.1899C144.506 43.3533 144.305 43.5438 144.131 43.757C143.995 43.9317 143.92 44.1455 143.916 44.3666C143.91 44.5451 143.942 44.723 144.009 44.8885C144.076 45.054 144.178 45.2035 144.307 45.3272C144.441 45.4513 144.599 45.5476 144.77 45.6106C144.942 45.6736 145.124 45.702 145.307 45.6944C145.842 45.6583 146.362 45.495 146.821 45.2179C147.566 44.8006 148.277 44.3249 148.947 43.7952L148.942 43.7947ZM150.083 41.9938C150.973 41.1701 151.98 40.4829 153.072 39.9547C153.763 39.5849 154.521 39.3559 155.301 39.281C155.375 39.2833 155.448 39.3004 155.515 39.3312C155.583 39.3621 155.643 39.406 155.694 39.4605C155.813 39.5648 155.909 39.6938 155.973 39.8388C156.025 39.9528 156.063 40.0725 156.087 40.1953C156.092 40.2492 156.081 40.3034 156.056 40.3513C156.031 40.3993 155.993 40.4389 155.946 40.4654C155.878 40.4996 155.809 40.53 155.738 40.5565C155.635 40.5948 155.537 40.6318 155.451 40.6665L155.631 41.0737L155.8 41.4855C155.836 41.5708 155.856 41.6619 155.859 41.7543C155.774 42.0909 155.604 42.4002 155.366 42.6528C155.18 42.8981 155.042 43.0852 154.954 43.2111C154.913 43.2629 154.823 43.3958 154.682 43.6105C154.55 43.8393 154.483 44.1003 154.489 44.3648C154.489 44.8589 154.72 45.1037 155.179 45.1037C155.65 45.1037 156.387 44.6682 157.391 43.797V44.4095C155.694 46.2886 154.475 47.2282 153.734 47.2282C153.625 47.2378 153.516 47.2186 153.417 47.1725C153.318 47.1264 153.234 47.0551 153.171 46.9658C153.048 46.7363 152.991 46.4769 153.006 46.2168C153.07 45.4243 153.264 44.6478 153.582 43.9188C152.578 45.0149 151.839 45.7885 151.374 46.2344C151.076 46.5892 150.661 46.8259 150.204 46.9016C150.063 46.9016 149.879 46.7781 149.659 46.5333C149.407 46.2373 149.203 45.9046 149.052 45.5467C148.975 45.3465 148.914 45.1403 148.87 44.9302C148.826 44.7198 148.802 44.5056 148.8 44.2906C148.795 44.0279 148.826 43.7658 148.89 43.5111C148.964 43.2741 149.084 43.054 149.243 42.8639C149.348 42.7284 149.461 42.5998 149.582 42.4786C149.719 42.3357 149.885 42.1756 150.081 41.9956L150.083 41.9938ZM154.928 40.8943C153.617 41.4412 152.363 42.1147 151.184 42.9051C150.875 43.0822 150.613 43.3297 150.419 43.6275C150.225 43.9253 150.104 44.2648 150.066 44.6183C150.059 44.7992 150.097 44.979 150.175 45.142C150.201 45.2015 150.244 45.2524 150.298 45.2885C150.352 45.3247 150.415 45.3447 150.48 45.3461C150.619 45.3274 150.753 45.28 150.873 45.2072C151.231 44.9996 151.571 44.7635 151.891 44.5013C152.222 44.2261 152.531 43.9255 152.816 43.6023C153.566 42.7365 154.272 41.8333 154.93 40.896L154.928 40.8943ZM162.132 43.6711V44.4066C160.725 46.2453 159.579 47.1644 158.695 47.164C158.452 47.1572 158.216 47.0795 158.016 46.9405C157.816 46.8015 157.661 46.6072 157.571 46.3815C157.274 45.751 157.132 45.0583 157.159 44.3618C157.189 43.5367 157.353 42.7219 157.645 41.9497C157.812 41.4596 157.998 40.9866 158.201 40.5377C158.403 40.0888 158.646 39.6193 158.928 39.1257C159.211 38.6321 159.491 38.1797 159.771 37.7608C160.05 37.3419 160.336 36.9507 160.626 36.5936C161.075 36.0007 161.625 35.4915 162.251 35.0892C162.393 34.9917 162.557 34.93 162.728 34.9092C162.791 34.905 162.853 34.9227 162.905 34.9592C162.956 34.9958 162.993 35.049 163.01 35.1098C163.068 35.3098 163.092 35.5179 163.083 35.7258C162.994 36.9353 162.604 38.1034 161.948 39.1234C161.059 40.6289 159.984 42.0168 158.75 43.2546C158.725 43.3942 158.701 43.541 158.68 43.6947C158.662 43.813 158.652 43.9323 158.65 44.0518C158.636 44.4172 158.731 44.7784 158.922 45.0902C159.008 45.217 159.124 45.32 159.261 45.3894C159.397 45.4589 159.549 45.4926 159.702 45.4873C159.9 45.4778 160.09 45.4107 160.25 45.2944C160.466 45.148 160.673 44.9876 160.868 44.8143L162.132 43.6711ZM159.11 41.8744C159.474 41.5137 159.812 41.1267 160.12 40.7166C160.417 40.3154 160.727 39.8559 161.052 39.3317C161.302 38.902 161.528 38.4586 161.729 38.0038C161.8 37.8398 161.861 37.6717 161.912 37.5002C161.952 37.3758 161.975 37.2466 161.981 37.116C161.981 36.9619 161.928 36.8883 161.818 36.8883C161.734 36.9061 161.655 36.9432 161.587 36.9966C161.016 37.5551 160.552 38.213 160.217 38.938C159.72 39.8644 159.348 40.8521 159.11 41.8756V41.8744ZM162.004 44.0559V43.8177L163.561 42.1903C163.829 41.9044 164.23 41.4843 164.754 40.9242C165.124 40.5249 165.403 40.222 165.593 40.0153C165.735 39.1975 166.094 38.7898 166.665 38.7898C166.823 38.7937 166.978 38.8339 167.117 38.9075L167.18 39.0975L167.138 39.4388C167.141 39.5256 167.152 39.612 167.17 39.697C167.191 39.8017 167.229 39.9518 167.28 40.1465L167.515 41.0036C167.54 41.1213 167.56 41.2426 167.574 41.3567C167.589 41.5003 167.596 41.6447 167.595 41.7891C167.595 42.2229 167.493 42.6506 167.298 43.0381C167.069 43.4759 166.769 43.8733 166.412 44.2147C166.211 44.4018 165.991 44.583 165.757 44.7625C165.522 44.9419 165.242 45.1367 164.928 45.3414C165.118 45.3769 165.311 45.3975 165.504 45.4032C165.648 45.4048 165.792 45.3911 165.932 45.362C166.091 45.324 166.246 45.2703 166.394 45.2019C166.739 45.053 167.067 44.868 167.374 44.6501C167.663 44.4495 168.053 44.15 168.548 43.7488V44.4189C167.839 45.1222 167.063 45.7542 166.231 46.3057C165.714 46.6769 165.106 46.9006 164.472 46.9528C164.14 46.9453 163.813 46.871 163.511 46.7344C163.209 46.5977 162.938 46.4014 162.713 46.1574C162.446 45.9004 162.242 45.5856 162.117 45.2373C162.079 45.0713 162.052 44.9031 162.037 44.7337C162.014 44.5065 162.004 44.2783 162.005 44.0501L162.004 44.0559ZM165.769 42.5304L165.587 41.0731C165.428 41.2543 165.239 41.4514 165.028 41.6697C164.816 41.8879 164.517 42.1833 164.134 42.561C163.781 42.914 163.369 43.3135 162.913 43.7594C163.209 43.79 163.49 43.9044 163.723 44.0894C163.956 44.3617 164.167 44.6519 164.355 44.9572C164.766 44.8051 165.128 44.5427 165.401 44.1989C165.664 43.8082 165.793 43.3423 165.769 42.8716L165.769 42.5304ZM158.215 7.80392H156.685L154.744 5.16644C154.604 5.17291 154.49 5.1747 154.403 5.1747C154.367 5.1747 154.327 5.1747 154.285 5.1747C154.244 5.1747 154.202 5.17052 154.156 5.16816V6.80961C154.129 7.03664 154.17 7.26669 154.274 7.47033C154.336 7.5336 154.411 7.58269 154.493 7.61418C154.576 7.64567 154.664 7.65878 154.752 7.65267H154.976V7.80622H152.526V7.65267H152.74C152.84 7.66114 152.939 7.64397 153.03 7.60276C153.121 7.56155 153.199 7.49766 153.258 7.41733C153.335 7.22374 153.365 7.01463 153.345 6.80724V3.15966C153.373 2.93281 153.332 2.7029 153.228 2.49959C153.164 2.43599 153.088 2.38678 153.004 2.3553C152.92 2.32383 152.83 2.3108 152.741 2.31717H152.526V2.16363H154.608C155.06 2.14688 155.511 2.19083 155.95 2.29426C156.236 2.38076 156.491 2.54877 156.683 2.7778C156.883 3.00998 156.991 3.30823 156.985 3.61505C156.99 3.94904 156.867 4.27221 156.642 4.51865C156.352 4.80593 155.98 4.9954 155.577 5.06051L156.759 6.67488C156.947 6.95999 157.183 7.21074 157.455 7.41618C157.687 7.55112 157.946 7.63161 158.213 7.65152L158.215 7.80392ZM154.155 4.9023C154.209 4.9023 154.255 4.9023 154.294 4.9023C154.333 4.9023 154.364 4.9023 154.389 4.9023C154.824 4.93388 155.255 4.81025 155.607 4.55341C155.739 4.44611 155.845 4.31015 155.916 4.1559C155.987 4.00166 156.023 3.83315 156.019 3.66324C156.025 3.50511 155.999 3.34736 155.943 3.19959C155.886 3.05181 155.8 2.91715 155.69 2.80373C155.573 2.69202 155.435 2.60516 155.284 2.54842C155.133 2.49168 154.972 2.46623 154.811 2.47366C154.591 2.47974 154.372 2.50534 154.156 2.55014L154.155 4.9023Z" fill="#F1F0E7"/>
<path d="M155.5 1C156.306 1.00012 157.093 1.23915 157.763 1.68686C158.433 2.13456 158.955 2.77086 159.263 3.51525C159.571 4.25964 159.652 5.07867 159.494 5.86884C159.337 6.65901 158.949 7.38479 158.379 7.9544C157.81 8.52402 157.084 8.91194 156.293 9.069C155.503 9.22607 154.684 9.14525 153.94 8.83682C153.196 8.52839 152.559 8.00616 152.112 7.3362C151.664 6.66624 151.426 5.87864 151.426 5.07296C151.426 3.99263 151.855 2.95668 152.619 2.19288C153.383 1.42908 154.42 1 155.5 1Z" stroke="#F1F0E7" stroke-width="1.417"/>
</svg>
