<svg width="78" height="77" viewBox="0 0 78 77" fill="none" xmlns="http://www.w3.org/2000/svg">
<path fill-rule="evenodd" clip-rule="evenodd" d="M36.7583 2.44449C37.465 2.13713 38.2275 1.97852 38.9982 1.97852C39.7689 1.97852 40.5314 2.13713 41.2382 2.44449C41.9449 2.75185 42.5809 3.20138 43.1064 3.76511C43.632 4.32883 44.0359 4.99468 44.2931 5.72123C44.5502 6.44778 44.6551 7.21947 44.6011 7.98829C44.5992 8.01618 44.5995 8.04419 44.6023 8.07202C44.7275 9.35132 44.5812 10.6427 44.1727 11.8615C43.7643 13.0803 43.103 14.1991 42.2321 15.1446L42.2293 15.1476C41.9916 15.4101 41.8487 15.8305 41.7644 16.2289C41.6747 16.6524 41.6316 17.1481 41.652 17.6379C41.6723 18.1244 41.7565 18.6335 41.9418 19.0701C42.1266 19.5054 42.4369 19.9219 42.9362 20.1109L42.9395 20.1122C43.3535 20.2655 43.759 20.4146 44.1553 20.5604L44.1568 20.5609L44.1572 20.5611L44.1573 20.5611C46.0829 21.2693 47.7882 21.8964 49.161 22.5276C49.9865 22.9071 50.6712 23.2791 51.1988 23.6586C51.7277 24.039 52.0684 24.4054 52.2476 24.7634C53.0134 26.3539 53.44 28.0862 53.5002 29.8503C53.5096 30.1263 53.741 30.3424 54.0169 30.333C54.2929 30.3236 54.509 30.0922 54.4996 29.8162C54.4346 27.9122 53.974 26.0426 53.147 24.3263L53.147 24.3262L53.1441 24.3203C52.8646 23.7593 52.3815 23.2775 51.7827 22.8467C51.1811 22.4141 50.4316 22.0111 49.5788 21.619C48.1667 20.9698 46.415 20.3257 44.4894 19.6177L44.4893 19.6177C44.096 19.473 43.6954 19.3257 43.289 19.1752C43.137 19.1172 42.9857 18.97 42.8623 18.6793C42.7391 18.3891 42.6683 18.0085 42.6511 17.5962C42.6341 17.1872 42.6709 16.7752 42.7427 16.4361C42.8194 16.074 42.9187 15.8771 42.9696 15.8199C43.9349 14.7713 44.668 13.5307 45.1209 12.1792C45.5697 10.8401 45.7333 9.42197 45.6015 8.01608C45.6583 7.12436 45.534 6.2302 45.2358 5.38759C44.9328 4.53169 44.457 3.74728 43.8379 3.08319C43.2187 2.4191 42.4696 1.88954 41.637 1.52746C40.8044 1.16537 39.9062 0.978516 38.9982 0.978516C38.0903 0.978516 37.1921 1.16537 36.3595 1.52746C35.5269 1.88954 34.7777 2.4191 34.1586 3.08319C33.5394 3.74728 33.0636 4.53169 32.7607 5.38759C32.4625 6.2302 32.3381 7.12436 32.395 8.01608C32.2631 9.42197 32.4268 10.8401 32.8756 12.1792C33.3287 13.5313 34.0623 14.7725 35.0283 15.8215C35.0782 15.8765 35.1781 16.0721 35.2552 16.4361C35.3271 16.7757 35.3638 17.1887 35.3466 17.5985C35.3292 18.0117 35.2581 18.3928 35.1348 18.6827C35.0109 18.9739 34.8597 19.1187 34.7095 19.1744C34.3053 19.3242 33.9068 19.4707 33.5156 19.6146L33.5145 19.615L33.5144 19.615C31.5861 20.3241 29.8324 20.969 28.4189 21.619C27.5662 22.0112 26.8169 22.4141 26.2152 22.8467C25.6162 23.2774 25.133 23.759 24.8527 24.3197L24.8526 24.3197L24.8492 24.3267C24.0241 26.0434 23.5647 27.9128 23.5002 29.8164C23.4908 30.0923 23.707 30.3236 23.983 30.333C24.2589 30.3424 24.4902 30.1262 24.4996 29.8502C24.5594 28.0865 24.9848 26.3544 25.7488 24.7636C25.9289 24.4053 26.2702 24.0389 26.799 23.6586C27.3268 23.2791 28.0115 22.9071 28.8367 22.5276C30.211 21.8955 31.9184 21.2676 33.8469 20.5583L33.8469 20.5583L33.847 20.5582L33.8535 20.5559L33.8582 20.5541C34.249 20.4104 34.6489 20.2633 35.0569 20.1122L35.0571 20.1121C35.5585 19.9261 35.8698 19.5093 36.0549 19.0742C36.2406 18.6377 36.3252 18.1278 36.3457 17.6406C36.3664 17.15 36.3233 16.6532 36.2335 16.2289C36.149 15.8303 36.0056 15.408 35.7653 15.1456L35.7643 15.1446C34.8935 14.1991 34.2322 13.0803 33.8237 11.8615C33.4153 10.6427 33.2689 9.35132 33.3942 8.07202C33.3969 8.04419 33.3973 8.01618 33.3953 7.98829C33.3414 7.21947 33.4463 6.44778 33.7034 5.72123C33.9605 4.99468 34.3644 4.32883 34.89 3.76511C35.4156 3.20138 36.0515 2.75185 36.7583 2.44449ZM28.9983 37.666C28.4236 37.666 27.8725 37.8943 27.4662 38.3006C27.0599 38.7069 26.8316 39.258 26.8316 39.8327V55.9993H2.3316C1.75696 55.9993 1.20586 56.2276 0.799531 56.6339C0.393202 57.0403 0.164929 57.5914 0.164929 58.166V74.8327C0.164929 75.4073 0.393202 75.9584 0.799531 76.3647C1.20586 76.7711 1.75696 76.9993 2.3316 76.9993H75.6649C76.2396 76.9993 76.7907 76.7711 77.197 76.3647C77.6033 75.9584 77.8316 75.4073 77.8316 74.8327V58.166C77.8316 57.5914 77.6033 57.0403 77.197 56.6339C76.7907 56.2276 76.2396 55.9993 75.6649 55.9993H51.1649V39.8327C51.1649 39.258 50.9367 38.7069 50.5303 38.3006C50.124 37.8943 49.5729 37.666 48.9983 37.666H28.9983ZM28.1733 39.0077C28.3921 38.7889 28.6888 38.666 28.9983 38.666H48.9983C49.3077 38.666 49.6044 38.7889 49.8232 39.0077C50.042 39.2265 50.1649 39.5233 50.1649 39.8327V56.4993C50.1649 56.7755 50.3888 56.9993 50.6649 56.9993H75.6649C75.9743 56.9993 76.2711 57.1223 76.4899 57.3411C76.7087 57.5598 76.8316 57.8566 76.8316 58.166V74.8327C76.8316 75.1421 76.7087 75.4388 76.4899 75.6576C76.2711 75.8764 75.9743 75.9993 75.6649 75.9993H2.3316C2.02218 75.9993 1.72543 75.8764 1.50664 75.6576C1.28785 75.4388 1.16493 75.1421 1.16493 74.8327V58.166C1.16493 57.8566 1.28785 57.5598 1.50664 57.3411C1.72543 57.1223 2.02218 56.9993 2.3316 56.9993H27.3316C27.6077 56.9993 27.8316 56.7755 27.8316 56.4993V39.8327C27.8316 39.5233 27.9545 39.2265 28.1733 39.0077ZM8.99854 25.9962C9.90826 25.9743 10.8124 26.1446 11.6519 26.496C12.4955 26.8492 13.2545 27.3773 13.879 28.0455C14.5035 28.7136 14.9791 29.5067 15.2745 30.3722C15.5647 31.2224 15.6745 32.1237 15.5971 33.0184C15.7279 34.4223 15.5641 35.8383 15.1159 37.1756C14.6628 38.5278 13.9292 39.7689 12.9632 40.8179L12.9637 40.8174L12.595 40.4798L12.9627 40.8184L12.9632 40.8179C12.9133 40.8729 12.8134 41.0685 12.7363 41.4325C12.6644 41.7721 12.6276 42.1851 12.6449 42.5949C12.6623 43.0081 12.7334 43.3892 12.8567 43.6791C12.9807 43.9704 13.1319 44.1152 13.2821 44.1709L13.2823 44.171C13.7223 44.3344 14.1561 44.4939 14.5814 44.6504C15.8994 45.1353 17.1363 45.5903 18.2277 46.037C18.4832 46.1416 18.6056 46.4335 18.501 46.6891C18.3964 46.9447 18.1044 47.067 17.8489 46.9624C16.7757 46.5232 15.563 46.0771 14.2498 45.594C13.8215 45.4364 13.3825 45.2749 12.9342 45.1084C12.4329 44.9225 12.1217 44.5056 11.9366 44.0706C11.7508 43.6341 11.6663 43.1242 11.6458 42.637C11.6251 42.1464 11.6682 41.6496 11.758 41.2253C11.8424 40.8267 11.9859 40.4044 12.2262 40.142L12.2272 40.141C13.098 39.1955 13.7593 38.0767 14.1677 36.8579C14.5762 35.6391 14.7226 34.3477 14.5973 33.0684C14.5942 33.0367 14.5941 33.0047 14.5971 32.9729C14.6695 32.2032 14.5778 31.4268 14.3281 30.6952C14.0784 29.9635 13.6763 29.2931 13.1484 28.7283C12.6205 28.1635 11.9788 27.717 11.2657 27.4184C10.5526 27.1199 9.7842 26.976 9.01135 26.9962C9.00244 26.9964 8.99352 26.9964 8.98461 26.9962C8.21126 26.9751 7.44223 27.1183 6.72835 27.4165C6.01448 27.7147 5.37203 28.161 4.84347 28.7259C4.31491 29.2909 3.91228 29.9616 3.6622 30.6937C3.41211 31.4258 3.32026 32.2026 3.39273 32.9729C3.39572 33.0047 3.39566 33.0367 3.39255 33.0684C3.26728 34.3477 3.41366 35.6391 3.82211 36.8579C4.23055 38.0767 4.89186 39.1955 5.7627 40.141L5.76553 40.144C6.00324 40.4065 6.14609 40.827 6.23044 41.2254C6.3201 41.6488 6.36326 42.1445 6.34283 42.6343C6.32253 43.1208 6.23831 43.63 6.05298 44.0665C5.86819 44.5018 5.55787 44.9183 5.0586 45.1073L5.05469 45.1088C4.76824 45.2145 4.4858 45.3184 4.20766 45.4207L4.20757 45.4208C2.9994 45.8653 1.87206 46.2801 0.847452 46.6819C0.590366 46.7827 0.300239 46.656 0.199434 46.3989C0.0986295 46.1418 0.22532 45.8517 0.482406 45.7509C1.51786 45.3449 2.65777 44.9255 3.86668 44.4807C4.14306 44.379 4.42306 44.2759 4.70623 44.1715C4.85807 44.1133 5.0092 43.9662 5.1325 43.6757C5.25571 43.3855 5.32649 43.0049 5.3437 42.5926C5.36076 42.1836 5.32393 41.7716 5.25213 41.4325C5.17547 41.0704 5.07613 40.8736 5.02524 40.8164C4.05992 39.7677 3.32684 38.5271 2.87393 37.1756C2.42578 35.8383 2.26196 34.4223 2.39278 33.0184C2.31529 32.123 2.42526 31.2212 2.71589 30.3704C3.01172 29.5044 3.488 28.711 4.11325 28.0427C4.7385 27.3745 5.49847 26.8465 6.34293 26.4938C7.18327 26.1428 8.08823 25.9732 8.99854 25.9962ZM66.7561 27.4406C67.4629 27.1332 68.2254 26.9746 68.9961 26.9746C69.7668 26.9746 70.5292 27.1332 71.236 27.4406C71.9428 27.7479 72.5787 28.1975 73.1043 28.7612C73.6298 29.3249 74.0338 29.9908 74.2909 30.7173C74.548 31.4439 74.6529 32.2156 74.599 32.9844C74.597 33.0123 74.5974 33.0403 74.6001 33.0681C74.7254 34.3474 74.579 35.6388 74.1705 36.8576C73.7621 38.0764 73.1008 39.1952 72.23 40.1406L72.2271 40.1437C71.9894 40.4062 71.8466 40.8266 71.7622 41.225C71.6726 41.6485 71.6294 42.1442 71.6498 42.634C71.6701 43.1204 71.7543 43.6296 71.9397 44.0662C72.1245 44.5015 72.4348 44.918 72.9341 45.107L72.938 45.1085C73.2323 45.2171 73.5225 45.3238 73.8081 45.4289C75.0077 45.8703 76.1279 46.2824 77.149 46.6817C77.4061 46.7823 77.6961 46.6553 77.7967 46.3982C77.8973 46.141 77.7703 45.851 77.5132 45.7504C76.4818 45.347 75.3495 44.9305 74.149 44.4888L74.1369 44.4844C73.857 44.3814 73.5733 44.277 73.2864 44.1711C73.1346 44.113 72.9835 43.9658 72.8602 43.6754C72.7369 43.3852 72.6662 43.0046 72.649 42.5923C72.6319 42.1833 72.6687 41.7713 72.7405 41.4322C72.8172 41.07 72.9166 40.8732 72.9674 40.816C73.9327 39.7674 74.6658 38.5268 75.1187 37.1753C75.5675 35.8362 75.7311 34.4181 75.5993 33.0122C75.6562 32.1205 75.5318 31.2263 75.2336 30.3837C74.9307 29.5278 74.4548 28.7434 73.8357 28.0793C73.2166 27.4152 72.4674 26.8856 71.6348 26.5236C70.8022 26.1615 69.904 25.9746 68.9961 25.9746C68.0881 25.9746 67.1899 26.1615 66.3573 26.5236C65.5247 26.8856 64.7755 27.4152 64.1564 28.0793C63.5373 28.7434 63.0614 29.5278 62.7585 30.3837C62.4603 31.2263 62.336 32.1205 62.3928 33.0122C62.261 34.4181 62.4246 35.8362 62.8734 37.1753C63.3265 38.5274 64.0601 39.7686 65.0261 40.8176C65.076 40.8726 65.1759 41.0682 65.253 41.4322C65.3249 41.7718 65.3617 42.1848 65.3444 42.5946C65.327 43.0078 65.2559 43.3889 65.1326 43.6788C65.0087 43.9701 64.8575 44.1149 64.7072 44.1706L64.707 44.1707C64.267 44.334 63.8332 44.4936 63.4079 44.6501L63.4076 44.6502C62.0897 45.135 60.8529 45.59 59.7617 46.0366C59.5061 46.1412 59.3837 46.4332 59.4883 46.6888C59.5929 46.9443 59.8849 47.0667 60.1405 46.9621C61.2136 46.5229 62.4263 46.0767 63.7395 45.5936C64.1678 45.4361 64.6068 45.2746 65.0551 45.1081C65.5564 44.9221 65.8677 44.5053 66.0528 44.0703C66.2385 43.6338 66.323 43.1239 66.3435 42.6367C66.3642 42.1461 66.3212 41.6493 66.2313 41.225C66.1469 40.8264 66.0034 40.4041 65.7631 40.1417L65.7622 40.1406C64.8913 39.1952 64.23 38.0764 63.8216 36.8576C63.4131 35.6388 63.2667 34.3474 63.392 33.0681C63.3947 33.0403 63.3951 33.0123 63.3932 32.9844C63.3392 32.2156 63.4441 31.4439 63.7012 30.7173C63.9584 29.9908 64.3623 29.3249 64.8878 28.7612C65.4134 28.1975 66.0493 27.7479 66.7561 27.4406Z" fill="#92711D"/>
</svg>
