<svg width="79" height="72" viewBox="0 0 79 72" fill="none" xmlns="http://www.w3.org/2000/svg">
<path fill-rule="evenodd" clip-rule="evenodd" d="M0.666992 4.33333C0.666992 2.21624 2.38323 0.5 4.50033 0.5H74.5003C76.6174 0.5 78.3337 2.21624 78.3337 4.33333V54.3333C78.3337 56.4504 76.6174 58.1667 74.5003 58.1667H45.0305C45.3485 62.6509 46.9876 66.9433 49.744 70.5H54.4971C54.7732 70.5 54.9971 70.7239 54.9971 71C54.9971 71.2761 54.7732 71.5 54.4971 71.5H24.4971C24.2209 71.5 23.9971 71.2761 23.9971 71C23.9971 70.7239 24.2209 70.5 24.4971 70.5H29.256C32.0124 66.9433 33.6515 62.6509 33.9695 58.1667H4.50033C2.38323 58.1667 0.666992 56.4504 0.666992 54.3333V4.33333ZM1.66699 4.33333C1.66699 2.76853 2.93552 1.5 4.50033 1.5H74.5003C76.0651 1.5 77.3337 2.76853 77.3337 4.33333V47.166H1.66699V4.33333ZM34.4737 57.1667H4.50033C2.93552 57.1667 1.66699 55.8981 1.66699 54.3333V48.166H77.3337V54.3333C77.3337 55.8981 76.0651 57.1667 74.5003 57.1667H44.5263C44.5097 57.1658 44.493 57.1658 44.4762 57.1666L44.4745 57.1667H34.5255L34.5238 57.1666C34.507 57.1658 34.4903 57.1658 34.4737 57.1667ZM34.9719 58.1667C34.6695 62.6188 33.1198 66.8924 30.5056 70.5H48.4944C45.8802 66.8924 44.3305 62.6188 44.0281 58.1667H34.9719Z" fill="#92711D"/>
</svg>
