<svg width="78" height="68" viewBox="0 0 78 68" fill="none" xmlns="http://www.w3.org/2000/svg">
<path fill-rule="evenodd" clip-rule="evenodd" d="M1.16699 7.34636C1.16699 3.9406 3.9279 1.17969 7.33366 1.17969H70.667C74.0727 1.17969 76.8337 3.9406 76.8337 7.34636V16.8457H1.16699V7.34636ZM0.166992 17.3457V7.34636C0.166992 3.38831 3.37562 0.179688 7.33366 0.179688H70.667C74.625 0.179688 77.8337 3.38831 77.8337 7.34636V17.3457V60.6797C77.8337 64.6377 74.625 67.8464 70.667 67.8464H7.33366C3.37562 67.8464 0.166992 64.6377 0.166992 60.6797V17.3457ZM76.8337 17.8457V60.6797C76.8337 64.0854 74.0727 66.8464 70.667 66.8464H7.33366C3.9279 66.8464 1.16699 64.0854 1.16699 60.6797V17.8457H76.8337ZM12.3333 8.67969C12.2449 8.67969 12.1601 8.71481 12.0976 8.77732C12.0351 8.83983 12 8.92461 12 9.01302C12 9.07895 12.0195 9.14339 12.0562 9.19821C12.0928 9.25303 12.1449 9.29575 12.2058 9.32098C12.2667 9.34621 12.3337 9.35281 12.3984 9.33995C12.463 9.32709 12.5224 9.29534 12.569 9.24872C12.6157 9.2021 12.6474 9.14271 12.6603 9.07805C12.6731 9.01339 12.6665 8.94637 12.6413 8.88546C12.6161 8.82455 12.5733 8.77249 12.5185 8.73586C12.4637 8.69924 12.3993 8.67969 12.3333 8.67969ZM11.3905 8.07021C11.6406 7.82016 11.9797 7.67969 12.3333 7.67969C12.597 7.67969 12.8548 7.75788 13.0741 7.90439C13.2934 8.0509 13.4643 8.25914 13.5652 8.50278C13.6661 8.74641 13.6925 9.0145 13.641 9.27314C13.5896 9.53178 13.4626 9.76936 13.2761 9.95583C13.0897 10.1423 12.8521 10.2693 12.5935 10.3207C12.3348 10.3722 12.0667 10.3458 11.8231 10.2449C11.5795 10.1439 11.3712 9.97304 11.2247 9.75378C11.0782 9.53451 11 9.27673 11 9.01302C11 8.6594 11.1405 8.32026 11.3905 8.07021ZM22.0976 8.77732C22.1601 8.71481 22.2449 8.67969 22.3333 8.67969C22.3993 8.67969 22.4637 8.69924 22.5185 8.73586C22.5733 8.77249 22.6161 8.82455 22.6413 8.88546C22.6665 8.94637 22.6731 9.01339 22.6603 9.07805C22.6474 9.14271 22.6157 9.2021 22.569 9.24872C22.5224 9.29534 22.463 9.32709 22.3984 9.33995C22.3337 9.35281 22.2667 9.34621 22.2058 9.32098C22.1449 9.29575 22.0928 9.25303 22.0562 9.19821C22.0195 9.14339 22 9.07895 22 9.01302C22 8.92461 22.0351 8.83983 22.0976 8.77732ZM22.3333 7.67969C21.9797 7.67969 21.6406 7.82016 21.3905 8.07021C21.1405 8.32026 21 8.6594 21 9.01302C21 9.27673 21.0782 9.53451 21.2247 9.75378C21.3712 9.97304 21.5795 10.1439 21.8231 10.2449C22.0667 10.3458 22.3348 10.3722 22.5935 10.3207C22.8521 10.2693 23.0897 10.1423 23.2761 9.95583C23.4626 9.76936 23.5896 9.53178 23.641 9.27314C23.6925 9.0145 23.6661 8.74641 23.5652 8.50278C23.4643 8.25914 23.2934 8.0509 23.0741 7.90439C22.8548 7.75788 22.597 7.67969 22.3333 7.67969ZM32.3333 8.67969C32.2449 8.67969 32.1601 8.71481 32.0976 8.77732C32.0351 8.83983 32 8.92461 32 9.01302C32 9.07895 32.0195 9.14339 32.0562 9.19821C32.0928 9.25303 32.1449 9.29575 32.2058 9.32098C32.2667 9.34621 32.3337 9.35281 32.3984 9.33995C32.463 9.32709 32.5224 9.29534 32.569 9.24872C32.6157 9.2021 32.6474 9.14271 32.6603 9.07805C32.6731 9.01339 32.6665 8.94637 32.6413 8.88546C32.6161 8.82455 32.5733 8.77249 32.5185 8.73586C32.4637 8.69924 32.3993 8.67969 32.3333 8.67969ZM31.3905 8.07021C31.6406 7.82016 31.9797 7.67969 32.3333 7.67969C32.597 7.67969 32.8548 7.75788 33.0741 7.90439C33.2934 8.0509 33.4643 8.25914 33.5652 8.50278C33.6661 8.74641 33.6925 9.0145 33.641 9.27314C33.5896 9.53178 33.4626 9.76936 33.2761 9.95583C33.0897 10.1423 32.8521 10.2693 32.5935 10.3207C32.3348 10.3722 32.0667 10.3458 31.8231 10.2449C31.5795 10.1439 31.3712 9.97304 31.2247 9.75378C31.0782 9.53451 31 9.27673 31 9.01302C31 8.6594 31.1405 8.32026 31.3905 8.07021ZM31.5 50.4277C31.5 47.9425 33.5147 45.9277 36 45.9277C38.4853 45.9277 40.5 47.9425 40.5 50.4277C40.5 52.913 38.4853 54.9277 36 54.9277C33.5147 54.9277 31.5 52.913 31.5 50.4277ZM36 44.9277C32.9624 44.9277 30.5 47.3902 30.5 50.4277C30.5 53.4653 32.9624 55.9277 36 55.9277C39.0376 55.9277 41.5 53.4653 41.5 50.4277C41.5 48.7062 40.709 47.1694 39.4707 46.1609L55.8568 29.7814C56.0521 29.5861 56.0522 29.2696 55.857 29.0743C55.6617 28.879 55.3452 28.8789 55.1498 29.0741L38.6465 45.5708C38.6391 45.5782 38.632 45.5857 38.6252 45.5935C37.845 45.1689 36.9507 44.9277 36 44.9277ZM8.47559 53.2617C8.19944 53.2617 7.97559 53.4856 7.97559 53.7617C7.97559 54.0379 8.19944 54.2617 8.47559 54.2617H15.1423C15.4184 54.2617 15.6423 54.0379 15.6423 53.7617C15.6423 53.4856 15.4184 53.2617 15.1423 53.2617H8.47559ZM64.6426 53.7617C64.6426 53.4856 64.8664 53.2617 65.1426 53.2617H71.8092C72.0854 53.2617 72.3092 53.4856 72.3092 53.7617C72.3092 54.0379 72.0854 54.2617 71.8092 54.2617H65.1426C64.8664 54.2617 64.6426 54.0379 64.6426 53.7617ZM69.5872 40.4405C69.8424 40.3348 69.9635 40.0423 69.8579 39.7872C69.7522 39.5321 69.4597 39.4109 69.2046 39.5166L63.0479 42.0666C62.7928 42.1722 62.6716 42.4647 62.7773 42.7198C62.883 42.975 63.1755 43.0961 63.4306 42.9905L69.5872 40.4405ZM17.3994 29.3471C17.5949 29.1521 17.9115 29.1524 18.1065 29.3479L22.8132 34.0646C23.0082 34.26 23.0079 34.5766 22.8124 34.7717C22.617 34.9667 22.3004 34.9664 22.1053 34.7709L17.3987 30.0542C17.2036 29.8588 17.2039 29.5422 17.3994 29.3471ZM11.0806 39.5166C10.8255 39.4109 10.533 39.532 10.4273 39.7871C10.3215 40.0422 10.4426 40.3347 10.6977 40.4404L16.8511 42.9904C17.1062 43.0961 17.3987 42.975 17.5044 42.7199C17.6101 42.4648 17.489 42.1723 17.2339 42.0666L11.0806 39.5166Z" fill="#92711D"/>
</svg>
