<svg width="174" height="41" viewBox="0 0 174 41" fill="none" xmlns="http://www.w3.org/2000/svg">
<path id="Vector" d="M45.782 17.6928C43.829 19.6412 42.7388 22.2346 42.7388 24.9322C42.7388 27.6298 43.829 30.2232 45.782 32.1716C46.7362 33.1202 47.8833 33.8723 49.1529 34.3819C50.4225 34.8916 51.7877 35.1478 53.1648 35.135C57.3205 35.135 60.6604 32.8399 62.2956 29.3193L67.7429 30.6659C66.6042 33.4771 64.6031 35.894 62.0017 37.6C59.4003 39.306 56.3201 40.2213 53.1648 40.2261C51.0452 40.2658 48.9402 39.8832 46.9841 39.1025C45.0279 38.3219 43.2635 37.1605 41.8033 35.6922C40.3213 34.2786 39.1509 32.5955 38.3614 30.7423C37.5719 28.8892 37.1792 26.9037 37.2066 24.9032C37.2112 20.8651 38.8895 16.9931 41.8745 14.134C44.8605 11.2736 48.91 9.65794 53.1387 9.64C56.2981 9.61844 59.388 10.5355 61.978 12.2668C64.5806 13.9699 66.5815 16.3868 67.7169 19.1986L62.2696 20.5451C61.3031 18.3206 59.4909 16.5281 57.1973 15.528C54.9038 14.5278 52.299 14.3942 49.9065 15.1539C48.322 15.6554 46.8944 16.5283 45.7542 17.6928H45.782ZM126.359 22.5683C126.699 24.0221 126.72 25.5275 126.42 26.9894H100.654C101.353 31.9627 105.57 35.2047 110.785 35.2047C112.559 35.2243 114.315 34.8567 115.918 34.1299C117.522 33.4031 118.93 32.3363 120.037 31.0108L125.245 32.2993C123.943 34.7552 121.878 36.766 119.332 38.0553C116.731 39.4835 113.785 40.2365 110.785 40.2393C108.68 40.2717 106.591 39.8913 104.646 39.1218C102.702 38.3522 100.943 37.2098 99.4787 35.7652C97.9821 34.3483 96.8009 32.6571 96.0059 30.793C95.2109 28.929 94.8186 26.9307 94.8525 24.9181C94.8566 20.8795 96.5349 17.0068 99.5203 14.1473C102.506 11.2868 106.556 9.67121 110.785 9.65327C114.576 9.60119 118.243 10.9436 121.026 13.4027C123.921 15.7234 125.819 18.9808 126.359 22.5533V22.5683ZM120.681 22.6263C120.31 20.407 119.126 18.3855 117.341 16.9217C115.463 15.4311 113.095 14.6201 110.653 14.631C108.212 14.6419 105.852 15.4741 103.989 16.9814C102.174 18.3957 100.983 20.4111 100.654 22.6263H120.681ZM167.996 10.1624L161.549 35.601L155.463 10.1624H147.206L141.078 35.5413L134.643 10.1624H128.723L136.894 39.7932H145.326L151.412 14.0727L157.447 39.7932H165.821L173.961 10.1624H167.996ZM15.4488 0.605469L29.711 39.7916H36.1147L21.8526 0.605469H15.4488ZM78.9204 15.1208V10.1458H73.0634V39.7767H78.9204V25.0591C78.9204 22.2615 79.896 19.5949 81.4374 18.1273C83.4806 16.1473 86.0341 15.333 90.2263 15.333H93.5002V10.1325C85.7685 9.8788 83.0102 10.6483 78.9204 15.1042V15.1208ZM7.146 27.185C5.79625 27.185 4.47673 27.5669 3.35401 28.2826C2.23128 28.9983 1.35568 30.0158 0.837732 31.2065C0.450568 32.0972 0.275279 33.0589 0.324523 34.0222C0.373766 34.9855 0.646313 35.9264 1.12248 36.7768C1.59865 37.6272 2.26657 38.3661 3.07799 38.9399C3.88942 39.5137 4.8241 39.9083 5.81456 40.0951C6.80436 40.2825 7.82533 40.258 8.80408 40.0236C9.78282 39.7891 10.695 39.3504 11.4751 38.739C12.2552 38.1276 12.8839 37.3586 13.3158 36.4875C13.7478 35.6163 13.9723 34.6645 13.9733 33.7006C13.9733 32.8443 13.7967 31.9964 13.4535 31.2054C13.1103 30.4144 12.6074 29.6957 11.9733 29.0905C11.3393 28.4852 10.5866 28.0053 9.75831 27.678C8.93001 27.3508 8.04233 27.1827 7.146 27.1834V27.185ZM12.3537 13.9351C11.6276 13.9349 10.9105 14.0885 10.254 14.3847C9.59743 14.681 9.01776 15.1125 8.55664 15.6483C8.09553 16.1841 7.76443 16.8109 7.58715 17.4835C7.40987 18.1562 7.39082 18.858 7.53137 19.5385C7.67296 20.2193 7.97099 20.8617 8.40396 21.4191C8.83692 21.9766 9.39402 22.4352 10.0351 22.7621C10.6761 23.0889 11.3851 23.2757 12.1108 23.309C12.8366 23.3423 13.5611 23.2213 14.232 22.9547C15.1288 22.599 15.8952 21.9974 16.4344 21.2259C16.9735 20.4543 17.2612 19.5475 17.2611 18.6198C17.2602 17.377 16.7428 16.1855 15.8225 15.307C14.9023 14.4285 13.6546 13.9351 12.3537 13.9351Z" fill="white"/>
</svg>
