<svg width="169" height="45" viewBox="0 0 169 45" fill="none" xmlns="http://www.w3.org/2000/svg">
<path d="M46.0405 5.68456C46.0405 8.43594 43.6946 10.6523 40.7824 10.6523C37.8703 10.6523 35.5244 8.43594 35.5244 5.68456C35.5244 2.93318 37.7894 0.716797 40.7824 0.716797C43.7755 0.793224 46.0405 3.00961 46.0405 5.68456ZM24.3611 15.6965C24.3611 16.1551 24.3611 16.9193 24.3611 16.9193C24.3611 16.9193 21.8535 13.8623 16.5145 13.8623C7.69719 13.8623 0.821289 20.2057 0.821289 28.9948C0.821289 37.7075 7.6163 44.1274 16.5145 44.1274C21.9344 44.1274 24.3611 40.9939 24.3611 40.9939V42.2931C24.3611 42.9046 24.8465 43.3631 25.4937 43.3631H32.046V14.6265C32.046 14.6265 26.0599 14.6265 25.4937 14.6265C24.8465 14.6265 24.3611 15.1615 24.3611 15.6965ZM24.3611 34.1154C23.1477 35.7968 20.721 37.249 17.8088 37.249C12.6317 37.249 8.66791 34.1919 8.66791 28.9948C8.66791 23.7978 12.6317 20.7407 17.8088 20.7407C20.6401 20.7407 23.2286 22.2692 24.3611 23.8742V34.1154ZM36.8996 14.6265H44.6653V43.3631H36.8996V14.6265ZM152.9 13.8623C147.561 13.8623 145.053 16.9193 145.053 16.9193V0.793225H137.288V43.3631C137.288 43.3631 143.274 43.3631 143.84 43.3631C144.487 43.3631 144.973 42.8281 144.973 42.2931V40.9939C144.973 40.9939 147.48 44.1274 152.819 44.1274C161.637 44.1274 168.512 37.7075 168.512 28.9948C168.512 20.2821 161.637 13.8623 152.9 13.8623ZM151.606 37.1725C148.613 37.1725 146.267 35.7204 145.053 34.039V23.7978C146.267 22.2692 148.855 20.6643 151.606 20.6643C156.783 20.6643 160.747 23.7214 160.747 28.9184C160.747 34.1154 156.783 37.1725 151.606 37.1725ZM133.243 26.3199V43.4396H125.477V27.1606C125.477 22.4221 123.86 20.5114 119.491 20.5114C117.145 20.5114 114.719 21.6578 113.182 23.3392V43.3631H105.416V14.6265H111.564C112.211 14.6265 112.696 15.1615 112.696 15.6965V16.9193C114.961 14.703 117.954 13.8623 120.947 13.8623C124.345 13.8623 127.176 14.7794 129.441 16.6136C132.191 18.7536 133.243 21.505 133.243 26.3199ZM86.5678 13.8623C81.2289 13.8623 78.7212 16.9193 78.7212 16.9193V0.793225H70.9555V43.3631C70.9555 43.3631 76.9416 43.3631 77.5078 43.3631C78.155 43.3631 78.6403 42.8281 78.6403 42.2931V40.9939C78.6403 40.9939 81.148 44.1274 86.487 44.1274C95.3043 44.1274 102.18 37.7075 102.18 28.9948C102.261 20.2821 95.3852 13.8623 86.5678 13.8623ZM85.2736 37.1725C82.2805 37.1725 79.9346 35.7204 78.7212 34.039V23.7978C79.9346 22.2692 82.5232 20.6643 85.2736 20.6643C90.4507 20.6643 94.4145 23.7214 94.4145 28.9184C94.4145 34.1154 90.4507 37.1725 85.2736 37.1725ZM64.2414 13.8623C66.5873 13.8623 67.8007 14.2444 67.8007 14.2444V21.0464C67.8007 21.0464 61.3292 18.9829 57.2846 23.3392V43.4396H49.5189V14.6265C49.5189 14.6265 55.505 14.6265 56.0712 14.6265C56.7184 14.6265 57.2037 15.1615 57.2037 15.6965V16.9193C58.6598 15.3144 61.8146 13.8623 64.2414 13.8623Z" fill="white"/>
</svg>
