<svg width="121" height="120" viewBox="0 0 121 120" fill="none" xmlns="http://www.w3.org/2000/svg">
<g id="Property 1=Image 2">
<g id="Group 80">
<path id="Vector 15" d="M66.3749 41.8779C62.0672 41.3265 53.431 41.547 53.3482 46.8406C53.2447 53.4575 68.3392 54.8015 67.7189 60.7979C67.0986 66.7944 55.2085 67.9317 55.2085 71.3435C55.2085 74.7552 67.8229 77.5467 66.3749 81.889C65.811 83.0939 64.1466 85.8104 62 87.0371" stroke="#F1B434" stroke-width="2"/>
<path id="Vector 12" d="M60.2274 22.6621H50.3345V39.2565L35.3358 31.2784L24.8047 50.1067L38.8461 58.4039L24.8047 67.3394L35.3358 86.4868L50.3345 77.8704V95.1031H60.2274" stroke="#F1B434" stroke-width="2"/>
<path id="Vector 11" d="M9.16699 19.1514C30.3568 18.3855 52.0359 7.13108 60.2267 1.59961C69.8152 7.85582 93.3756 20.1259 110.909 19.1568L104.301 94.0473C102.502 97.7383 97.1422 104.73 85.6883 110.102C75.4585 114.899 64.5213 117.293 60.5458 118.399C57.2482 117.441 48.1 115.527 35.6542 110.102C23.9573 105.003 17.6769 97.0175 16.1877 93.188L9.16699 19.1514Z" stroke="#F1B434" stroke-width="2"/>
<path id="Vector 14" d="M60.216 22.6621H70.1088V39.2565L85.1076 31.2784L95.6387 50.1067L81.5973 58.4039L95.6387 67.3394L85.1076 86.4868L70.1088 77.8704V95.1031H60.216" stroke="#F1B434" stroke-width="2"/>
<line id="Line 22" x1="61.0381" y1="31.1582" x2="61.0381" y2="87.777" stroke="#F1B434" stroke-width="2"/>
</g>
</g>
</svg>
