<svg width="121" height="120" viewBox="0 0 121 120" fill="none" xmlns="http://www.w3.org/2000/svg">
<g id="Property 1=Image 3">
<g id="Group 81">
<path id="Vector 16" d="M58.4675 28.3504L56.0932 6.19903L2.35547 11.959L12.2045 103.846L65.9423 98.0863L63.436 74.7043" stroke="#F1B434" stroke-width="2"/>
<circle id="Ellipse 8" cx="57.7121" cy="51.469" r="18.1526" stroke="#F1B434" stroke-width="2"/>
<circle id="Ellipse 9" cx="17.9566" cy="26.4769" r="6.93745" transform="rotate(-6.11798 17.9566 26.4769)" stroke="#F1B434" stroke-width="2"/>
<circle id="Ellipse 11" cx="24.3746" cy="86.3539" r="6.93745" transform="rotate(-6.11798 24.3746 86.3539)" stroke="#F1B434" stroke-width="2"/>
<circle id="Ellipse 13" cx="21.1646" cy="56.4144" r="6.93745" transform="rotate(-6.11798 21.1646 56.4144)" stroke="#F1B434" stroke-width="2"/>
<circle id="Ellipse 10" cx="44.1959" cy="23.6644" r="6.93745" transform="rotate(-6.11798 44.1959 23.6644)" stroke="#F1B434" stroke-width="2"/>
<circle id="Ellipse 12" cx="50.6148" cy="83.5414" r="6.93745" transform="rotate(-6.11798 50.6148 83.5414)" stroke="#F1B434" stroke-width="2"/>
<line id="Line 23" x1="14.2342" y1="29.2467" x2="19.8655" y2="22.5208" stroke="#F1B434" stroke-width="2"/>
<line id="Line 25" x1="20.6522" y1="89.1237" x2="26.2834" y2="82.3977" stroke="#F1B434" stroke-width="2"/>
<line id="Line 27" x1="17.4432" y1="59.1842" x2="23.0745" y2="52.4583" stroke="#F1B434" stroke-width="2"/>
<line id="Line 24" x1="40.4745" y1="26.4342" x2="46.1057" y2="19.7083" stroke="#F1B434" stroke-width="2"/>
<line id="Line 26" x1="46.8915" y1="86.3112" x2="52.5227" y2="79.5852" stroke="#F1B434" stroke-width="2"/>
<path id="Vector 17" d="M57.3818 37.1758V52.7945L69.8769 47.5883" stroke="#F1B434" stroke-width="2"/>
<path id="Rectangle 3656" d="M66.2803 25.4414L119.144 33.5695L116.493 50.8072L82.4218 45.5685" stroke="#F1B434" stroke-width="2"/>
<path id="Vector 18" d="M112.329 50.1339L102.54 113.8L60.5721 106.439" stroke="#F1B434" stroke-width="2"/>
<path id="Rectangle 3657" d="M72.6667 99.3496L98.1252 103.264L105.286 56.6937L88.9762 54.186L80.8214 52.9322" stroke="#F1B434" stroke-width="2"/>
</g>
</g>
</svg>
