<svg width="125" height="44" viewBox="0 0 125 44" fill="none" xmlns="http://www.w3.org/2000/svg">
<path id="Vector" fill-rule="evenodd" clip-rule="evenodd" d="M109.699 12.827C118.874 12.827 124.953 18.8542 124.953 27.951C124.953 37.0477 118.874 43.131 109.699 43.131C100.173 43.131 93.8022 37.0477 93.8022 27.951C93.8022 18.8542 100.173 12.827 109.699 12.827ZM60.7292 13.4374V42.5204L53.8707 41.1882V14.714L60.7292 13.4374ZM88.1916 12.7619V19.5873L84.2394 20.2793C80.8435 20.8953 78.6597 22.5641 78.6597 26.257V42.5204L71.8012 41.1882V25.2662C71.8012 17.3639 76.6996 15.0132 84.2394 13.3725L88.1916 12.7619ZM15.3071 12.827C17.9986 12.827 21.2993 14.249 23.1602 16.7971C25.0281 14.4766 28.1506 12.9539 31.9828 12.9045C36.8065 12.8424 42.7988 15.713 42.7988 24.3159V42.5204L35.9403 41.1882V24.3159C35.9403 21.4297 33.7317 19.376 30.4769 19.376C27.2219 19.376 25.0133 21.4297 25.0133 24.3159V42.5204L18.155 41.1882V24.3159C18.155 21.4297 15.9464 19.376 12.6916 19.376C9.37856 19.376 7.16996 21.4297 7.16996 24.3159V42.5204L0.311523 41.1882V14.714L7.16996 13.4374V16.4345C9.08794 14.2145 11.9941 12.827 15.3071 12.827ZM109.699 18.9658C104.38 18.9658 100.815 22.5376 100.815 27.951C100.815 33.3645 104.38 36.992 109.699 36.992C114.666 36.992 117.939 33.3645 117.939 27.951C117.939 22.5376 114.666 18.9658 109.699 18.9658ZM57.4456 0.664062C59.9412 0.664062 61.5941 2.3033 61.5941 4.7775C61.5941 7.25157 59.9412 8.90606 57.4456 8.90606C54.8545 8.90606 53.1221 7.25157 53.1221 4.7775C53.1221 2.3033 54.8545 0.664062 57.4456 0.664062Z" fill="white"/>
</svg>
