<svg width="120" height="120" viewBox="0 0 120 120" fill="none" xmlns="http://www.w3.org/2000/svg">
<path d="M58.8533 55.6602H1.56543L8.45249 81.5713C9.60033 85.8365 13.6491 95.5186 20.6614 100.125C29.4267 105.883 35.0616 106.203 36.9399 108.442C38.8182 110.681 41.6356 116.12 45.0791 117.399C47.834 118.423 55.4097 118.465 58.8533 118.359" stroke="#F1B434" stroke-width="2"/>
<path d="M58.8526 118.36C62.2962 118.467 69.8719 118.424 72.6267 117.401C76.0703 116.121 78.8877 110.683 80.766 108.444C82.6443 106.204 88.2792 105.885 97.0445 100.126C104.057 95.52 108.106 85.838 109.253 81.5728L109.934 79.0137" stroke="#F1B434" stroke-width="2"/>
<ellipse cx="91.7231" cy="51.8235" rx="26.6091" ry="27.1907" stroke="#F1B434" stroke-width="2"/>
<path d="M91.4102 68.4566H97.6711V57.5803H108.002V45.4244H97.6711V35.5078H91.7232" stroke="#F1B434" stroke-width="2"/>
<path d="M92.3494 68.4566H86.0884V57.5803H75.7578V45.4244H86.0884V35.5078H92.0363" stroke="#F1B434" stroke-width="2"/>
<path d="M51.1279 40.9463H56.0516V32.3931H64.1757V22.8337H56.0516V15.0352H51.3741" stroke="#F1B434" stroke-width="2"/>
<path d="M51.866 40.9463H46.9423V32.3931H38.8182V22.8337H46.9423V15.0352H51.6198" stroke="#F1B434" stroke-width="2"/>
<path d="M73.1777 17.914H76.2778V12.5287H81.393V6.50978H76.2778V1.59961H73.3327" stroke="#F1B434" stroke-width="2"/>
<path d="M73.6426 17.914H70.5425V12.5287H65.4273V6.50978H70.5425V1.59961H73.4876" stroke="#F1B434" stroke-width="2"/>
<line x1="43.8271" y1="106.803" x2="73.8798" y2="106.803" stroke="#F1B434" stroke-width="2"/>
<line x1="8.76538" y1="61.3789" x2="58.8531" y2="61.3789" stroke="#F1B434" stroke-width="2"/>
<path d="M37.2534 50.8622L25.6706 22.072C28.488 19.193 32.9959 12.6033 28.488 9.27639C23.9801 5.94952 16.8009 7.89019 13.7748 9.27639C8.87034 10.8758 0.376294 15.2903 5.6355 20.1526C10.8947 25.015 13.7748 25.2709 13.7748 25.2709L18.4703 50.8622" stroke="#F1B434" stroke-width="2"/>
</svg>
