<svg width="120" height="120" viewBox="0 0 120 120" fill="none" xmlns="http://www.w3.org/2000/svg">
<path d="M49.4435 30.3236C46.8326 30.3209 44.2811 29.5443 42.1115 28.0918C39.9419 26.6393 38.2517 24.5762 37.2544 22.1633C36.2571 19.7504 35.9975 17.096 36.5085 14.5356C37.0195 11.9752 38.2781 9.62375 40.1253 7.77852C41.9724 5.93329 44.3251 4.6771 46.886 4.16873C49.447 3.66036 52.1011 3.92264 54.513 4.92241C56.9249 5.92218 58.9862 7.61455 60.4365 9.78562C61.8867 11.9567 62.6608 14.509 62.6608 17.1199C62.6561 20.6226 61.2616 23.9804 58.7835 26.456C56.3054 28.9315 52.9462 30.3225 49.4435 30.3236ZM49.4435 5.83189C47.2113 5.83444 45.03 6.4987 43.1753 7.74069C41.3206 8.98268 39.8757 10.7466 39.0233 12.8096C38.1709 14.8726 37.9492 17.142 38.3863 19.331C38.8234 21.5199 39.8996 23.5301 41.4789 25.1075C43.0583 26.685 45.0698 27.7588 47.2592 28.1932C49.4487 28.6277 51.7178 28.4033 53.7798 27.5484C55.8417 26.6935 57.604 25.2465 58.8437 23.3903C60.0835 21.5341 60.7451 19.352 60.745 17.1199C60.7405 14.1252 59.5479 11.2546 57.4291 9.13828C55.3102 7.02196 52.4382 5.83283 49.4435 5.83189Z" fill="#F5B335"/>
<path d="M71.7594 61.3354H27.1374C26.8834 61.3353 26.6397 61.2344 26.4601 61.0548C26.2804 60.8751 26.1795 60.6314 26.1794 60.3774V46.5013C26.1845 42.5676 27.7498 38.7965 30.5317 36.0153C33.3137 33.2341 37.0853 31.67 41.0191 31.666H41.5704C41.7386 31.6664 41.9038 31.7109 42.0494 31.795C42.195 31.8792 42.3161 32 42.4004 32.1456L49.4451 44.345L56.491 32.1456C56.5753 32 56.6963 31.8792 56.842 31.795C56.9876 31.7109 57.1527 31.6664 57.3209 31.666H57.8765C61.8103 31.67 65.5819 33.2341 68.3638 36.0153C71.1458 38.7965 72.7111 42.5676 72.7161 46.5013V60.3774C72.7162 60.6312 72.6155 60.8748 72.4361 61.0544C72.2567 61.234 72.0133 61.3351 71.7594 61.3354ZM28.0959 59.4195H70.8016V46.5013C70.7971 43.0753 69.4337 39.7909 67.0106 37.3688C64.5875 34.9468 61.3026 33.5848 57.8765 33.5817H57.8734L50.275 46.7391C50.1908 46.8846 50.0699 47.0054 49.9244 47.0894C49.7788 47.1734 49.6137 47.2176 49.4457 47.2176C49.2776 47.2176 49.1125 47.1734 48.9669 47.0894C48.8214 47.0054 48.7004 46.8846 48.6163 46.7391L41.0179 33.5817C37.5925 33.5858 34.3084 34.9481 31.886 37.3701C29.4636 39.792 28.1006 43.0758 28.0959 46.5013V59.4195Z" fill="#F5B335"/>
<path d="M34.988 61.3317C34.7339 61.3317 34.4903 61.2307 34.3106 61.0511C34.131 60.8714 34.03 60.6278 34.03 60.3737V48.1279C34.03 47.8738 34.131 47.6301 34.3106 47.4505C34.4903 47.2708 34.7339 47.1699 34.988 47.1699C35.242 47.1699 35.4857 47.2708 35.6653 47.4505C35.845 47.6301 35.9459 47.8738 35.9459 48.1279V60.3737C35.9459 60.6277 35.845 60.8714 35.6653 61.0511C35.4857 61.2307 35.2421 61.3316 34.988 61.3317Z" fill="#F5B335"/>
<path d="M63.9055 61.3323C63.6515 61.3321 63.408 61.2311 63.2284 61.0515C63.0487 60.8719 62.9477 60.6283 62.9475 60.3743V48.1285C62.9475 47.8743 63.0485 47.6304 63.2283 47.4507C63.408 47.2709 63.6519 47.1699 63.9061 47.1699C64.1603 47.1699 64.4041 47.2709 64.5839 47.4507C64.7636 47.6304 64.8646 47.8743 64.8646 48.1285V60.3743C64.8646 60.5002 64.8398 60.6249 64.7915 60.7412C64.7433 60.8574 64.6726 60.9631 64.5836 61.0521C64.4945 61.141 64.3888 61.2116 64.2724 61.2596C64.1561 61.3077 64.0314 61.3324 63.9055 61.3323Z" fill="#F5B335"/>
<path d="M53.7028 108.042H45.1922C45.0663 108.042 44.9417 108.017 44.8254 107.969C44.7091 107.921 44.6034 107.85 44.5144 107.761C44.4254 107.672 44.3548 107.567 44.3066 107.451C44.2584 107.334 44.2337 107.21 44.2337 107.084V97.4899H34.6311C34.377 97.4898 34.1334 97.3889 33.9537 97.2093C33.7741 97.0296 33.6731 96.7859 33.6731 96.5319V88.03C33.6731 87.7759 33.7741 87.5323 33.9537 87.3526C34.1334 87.173 34.377 87.072 34.6311 87.072H44.2337V77.478C44.2337 77.3522 44.2584 77.2275 44.3066 77.1112C44.3547 76.9949 44.4253 76.8892 44.5143 76.8002C44.6034 76.7112 44.709 76.6406 44.8253 76.5924C44.9416 76.5442 45.0663 76.5195 45.1922 76.5195H53.7028C53.8288 76.5194 53.9535 76.544 54.07 76.5921C54.1864 76.6402 54.2922 76.7108 54.3814 76.7998C54.4705 76.8888 54.5412 76.9946 54.5895 77.1109C54.6377 77.2273 54.6625 77.3521 54.6625 77.478V87.072H64.264C64.5181 87.0721 64.7617 87.173 64.9413 87.3527C65.1209 87.5323 65.2219 87.776 65.2219 88.03V96.5319C65.2219 96.7859 65.1209 97.0296 64.9413 97.2092C64.7617 97.3889 64.5181 97.4898 64.264 97.4899H54.6625V107.084C54.6625 107.21 54.6377 107.335 54.5894 107.451C54.5412 107.567 54.4704 107.673 54.3813 107.762C54.2921 107.851 54.1863 107.921 54.0699 107.969C53.9535 108.017 53.8287 108.042 53.7028 108.042ZM46.1501 106.126H52.7462V96.5319C52.746 96.2779 52.8466 96.0343 53.026 95.8545C53.2054 95.6748 53.4488 95.5737 53.7028 95.5734H63.306V88.9885H53.7028C53.4488 88.9882 53.2054 88.8871 53.026 88.7073C52.8466 88.5276 52.746 88.284 52.7462 88.03V78.4348H46.1501V88.03C46.1501 88.1559 46.1254 88.2805 46.0773 88.3967C46.0292 88.513 45.9586 88.6187 45.8697 88.7077C45.7807 88.7967 45.6751 88.8673 45.5589 88.9155C45.4426 88.9637 45.318 88.9885 45.1922 88.9885H35.5896V95.5734H45.1922C45.318 95.5734 45.4426 95.5982 45.5589 95.6464C45.6751 95.6946 45.7807 95.7652 45.8697 95.8542C45.9586 95.9432 46.0292 96.0489 46.0773 96.1651C46.1254 96.2814 46.1501 96.406 46.1501 96.5319V106.126Z" fill="#F5B335"/>
<path d="M80.7796 38.6777C80.5375 38.6778 80.3043 38.5861 80.1272 38.421C79.9501 38.2559 79.8422 38.0298 79.8254 37.7883L79.4421 32.3986H76.6747C75.7839 32.3978 74.9297 32.0436 74.2996 31.4138C73.6696 30.784 73.3151 29.93 73.314 29.0391V6.36747C73.3139 5.4755 73.6677 4.61995 74.2978 3.9886C74.9279 3.35725 75.7827 3.00171 76.6747 3H111.654C112.546 3.00171 113.401 3.35725 114.031 3.9886C114.661 4.61995 115.015 5.4755 115.015 6.36747V29.0391C115.014 29.93 114.659 30.784 114.029 31.4138C113.399 32.0436 112.545 32.3978 111.654 32.3986H90.3524L81.316 38.5139C81.1576 38.6209 80.9707 38.678 80.7796 38.6777ZM76.6747 4.91587C76.2907 4.91691 75.9227 5.07038 75.6518 5.34258C75.3809 5.61478 75.2291 5.98342 75.2298 6.36747V29.0391C75.2301 29.4221 75.3825 29.7892 75.6535 30.0598C75.9244 30.3305 76.2918 30.4824 76.6747 30.4822H80.3322C80.5734 30.4823 80.8057 30.5733 80.9828 30.7371C81.1598 30.9009 81.2687 31.1255 81.2875 31.366L81.3308 31.9394L81.6188 35.9967L89.5206 30.6472C89.6794 30.5399 89.8667 30.4825 90.0583 30.4822H111.654C112.037 30.4819 112.404 30.3298 112.674 30.0593C112.945 29.7887 113.097 29.4218 113.098 29.0391V6.36747C113.098 5.98367 112.947 5.61531 112.676 5.34318C112.405 5.07105 112.038 4.91737 111.654 4.91587H76.6747Z" fill="#F5B335"/>
<path d="M107.378 10.1216H81.2105C80.9563 10.1216 80.7126 10.0206 80.5329 9.84091C80.3532 9.6612 80.2522 9.41748 80.2522 9.16334C80.2522 8.9092 80.3532 8.66546 80.5329 8.48575C80.7126 8.30604 80.9563 8.20508 81.2105 8.20508H107.378C107.632 8.20508 107.876 8.30604 108.056 8.48575C108.235 8.66546 108.336 8.9092 108.336 9.16334C108.336 9.41748 108.235 9.6612 108.056 9.84091C107.876 10.0206 107.632 10.1216 107.378 10.1216Z" fill="#F5B335"/>
<path d="M100.833 15.9959H81.2101C80.9561 15.9959 80.7124 15.895 80.5328 15.7154C80.3531 15.5357 80.2522 15.2921 80.2522 15.038C80.2522 14.784 80.3531 14.5403 80.5328 14.3607C80.7124 14.181 80.9561 14.0801 81.2101 14.0801H100.833C101.087 14.0801 101.331 14.181 101.51 14.3607C101.69 14.5403 101.791 14.784 101.791 15.038C101.791 15.2921 101.69 15.5357 101.51 15.7154C101.331 15.895 101.087 15.9959 100.833 15.9959Z" fill="#F5B335"/>
<path d="M103.505 21.8631H81.2101C80.9561 21.8631 80.7124 21.7622 80.5328 21.5826C80.3531 21.4029 80.2522 21.1593 80.2522 20.9052C80.2522 20.6511 80.3531 20.4075 80.5328 20.2278C80.7124 20.0482 80.9561 19.9473 81.2101 19.9473H103.505C103.759 19.9473 104.003 20.0482 104.183 20.2278C104.362 20.4075 104.463 20.6511 104.463 20.9052C104.463 21.1593 104.362 21.4029 104.183 21.5826C104.003 21.7622 103.759 21.8631 103.505 21.8631Z" fill="#F5B335"/>
<path d="M95.8856 27.7308H81.2104C80.9563 27.7308 80.7125 27.6299 80.5329 27.4502C80.3532 27.2705 80.2522 27.0268 80.2522 26.7726C80.2522 26.5185 80.3532 26.2748 80.5329 26.0951C80.7125 25.9154 80.9563 25.8145 81.2104 25.8145H95.8856C96.1397 25.8145 96.3835 25.9154 96.5631 26.0951C96.7428 26.2748 96.8438 26.5185 96.8438 26.7726C96.8438 27.0268 96.7428 27.2705 96.5631 27.4502C96.3835 27.6299 96.1397 27.7308 95.8856 27.7308Z" fill="#F5B335"/>
<path d="M83.6685 115.001H15.2271C14.9732 115 14.7298 114.899 14.5504 114.719C14.371 114.54 14.2703 114.296 14.2705 114.042V70.5151C14.2703 70.2612 14.371 70.0176 14.5504 69.8378C14.7298 69.6581 14.9732 69.5569 15.2271 69.5566H83.6685C83.7943 69.5567 83.9189 69.5815 84.0352 69.6296C84.1514 69.6778 84.2571 69.7484 84.346 69.8374C84.435 69.9265 84.5055 70.0321 84.5537 70.1484C84.6018 70.2647 84.6265 70.3893 84.6265 70.5151V114.042C84.6265 114.168 84.6018 114.293 84.5537 114.409C84.5055 114.525 84.435 114.631 84.346 114.72C84.2571 114.809 84.1514 114.88 84.0352 114.928C83.9189 114.976 83.7943 115.001 83.6685 115.001ZM16.1869 113.084H82.7106V71.4731H16.1869V113.084Z" fill="#F5B335"/>
<path d="M88.5767 71.4734H10.3158C10.0617 71.4734 9.8181 71.3724 9.63847 71.1928C9.45884 71.0131 9.35791 70.7695 9.35791 70.5154V60.3739C9.35794 60.1199 9.45888 59.8762 9.63851 59.6966C9.81813 59.517 10.0618 59.416 10.3158 59.416H88.5767C88.8307 59.416 89.0744 59.5169 89.254 59.6966C89.4337 59.8762 89.5346 60.1198 89.5347 60.3739V70.5154C89.5346 70.7695 89.4337 71.0132 89.2541 71.1928C89.0744 71.3725 88.8307 71.4734 88.5767 71.4734ZM11.2744 69.5569H87.6188V61.3319H11.2744V69.5569Z" fill="#F5B335"/>
</svg>
